<svg width="80" height="80" viewBox="0 0 80 80" fill="none" xmlns="http://www.w3.org/2000/svg">
<g id="icon_domen" clip-path="url(#clip0_72_248)">
<g id="Group">
<path id="Vector" d="M52.2081 7.25905C53.0728 7.25905 53.7737 6.55812 53.7737 5.69349C53.7737 4.82885 53.0728 4.12793 52.2081 4.12793C51.3435 4.12793 50.6426 4.82885 50.6426 5.69349C50.6426 6.55812 51.3435 7.25905 52.2081 7.25905Z" fill="black"/>
<path id="Vector_2" d="M71.9118 17.4481H61.1884C60.6538 14.6362 59.5546 11.9339 57.9621 9.55037C57.4816 8.83131 56.5096 8.63812 55.7905 9.11843C55.0716 9.59875 54.8783 10.571 55.3586 11.2899C56.6076 13.1591 57.501 15.2581 57.992 17.4481H47.8004C44.7762 17.4481 42.3158 19.9086 42.3158 22.9328V40.2456C42.2336 40.2414 42.1512 40.2436 42.0693 40.2522C41.3739 40.3303 40.6639 40.3699 39.9591 40.3699C37.4401 40.3698 34.9471 39.8606 32.6298 38.873C33.366 38.1322 34.0354 37.3278 34.63 36.4692C36.6644 33.5288 37.7398 30.0783 37.7398 26.4905C37.7398 18.8094 32.7843 12.2647 25.9029 9.88305C29.3713 5.62975 34.5739 3.13112 40.1096 3.13112C42.1216 3.13112 44.0985 3.45472 45.9854 4.09315C46.8042 4.3701 47.6931 3.9308 47.9701 3.1117C48.2472 2.29276 47.8077 1.40415 46.9888 1.12705C44.7781 0.379178 42.4636 0 40.1096 0C33.1297 0 26.6029 3.39241 22.5791 9.08775C21.7814 8.97768 20.9771 8.92234 20.1719 8.92211C10.4845 8.92211 2.60352 16.8033 2.60352 26.4905C2.60352 30.0783 3.6789 33.5288 5.71334 36.4692C7.49369 39.0424 9.89526 41.0735 12.7036 42.3919V73.0552C12.7036 73.273 12.749 73.4884 12.837 73.6876C12.925 73.8869 13.0536 74.0656 13.2146 74.2123L19.1172 79.5917C19.416 79.864 19.7938 80 20.1717 80C20.5497 80 20.9274 79.864 21.2263 79.5917L27.1289 74.2123C27.2899 74.0656 27.4185 73.8869 27.5065 73.6876C27.5945 73.4884 27.6399 73.273 27.6399 73.0552V66.4974C27.6399 66.1031 27.4911 65.7233 27.2232 65.4339L24.668 62.6737L27.2404 59.8026C27.4933 59.5203 27.6353 59.1558 27.6399 58.7768C27.6445 58.3978 27.5114 58.03 27.2654 57.7417L24.6693 54.699L27.1947 52.1121C27.4802 51.8197 27.6401 51.4272 27.6401 51.0186V42.3919C28.4467 42.0125 29.2233 41.5722 29.963 41.0749C33.0378 42.6632 36.4714 43.5011 39.9596 43.5011C40.7461 43.5011 41.538 43.4575 42.3161 43.3739V58.6348C42.3161 61.659 44.7765 64.1195 47.8007 64.1195H71.912C74.9362 64.1195 77.3966 61.659 77.3966 58.6348V22.9328C77.3965 19.9086 74.936 17.4481 71.9118 17.4481ZM25.4964 39.9094C25.205 40.0251 24.9551 40.2257 24.779 40.4851C24.6029 40.7445 24.5088 41.0508 24.5088 41.3644V50.3811L21.4303 53.5346C21.1574 53.814 20.9989 54.1854 20.9858 54.5758C20.9727 54.9662 21.106 55.3473 21.3595 55.6445L23.9948 58.733L21.3846 61.6465C21.1244 61.9369 20.9819 62.314 20.9851 62.7039C20.9882 63.0938 21.1368 63.4685 21.4016 63.7547L24.5088 67.1109V72.364L20.1717 76.3166L15.8347 72.364V41.3644C15.8347 41.0508 15.7406 40.7445 15.5645 40.4851C15.3884 40.2257 15.1385 40.0251 14.8471 39.9094C9.31146 37.7105 5.73463 32.4434 5.73463 26.4905C5.73463 18.5298 12.2112 12.0532 20.1717 12.0532C20.3859 12.0532 20.599 12.0589 20.8109 12.0681C20.1597 13.4032 19.6501 14.8028 19.2905 16.2441C19.269 16.332 19.2552 16.4215 19.2492 16.5118C16.1093 16.9611 13.6874 19.6672 13.6874 22.9295C13.6874 26.505 16.5963 29.414 20.1717 29.414C23.7473 29.414 26.6561 26.505 26.6561 22.9295C26.6561 20.1273 24.8692 17.735 22.3751 16.8312C22.7588 15.3511 23.3283 13.9255 24.07 12.5885C30.1431 14.2937 34.609 19.8802 34.609 26.4905C34.609 31.0268 32.5301 35.1634 29.0918 37.8489C28.9525 37.9242 28.8255 38.0203 28.7151 38.1339C27.7213 38.859 26.6398 39.4555 25.4964 39.9094ZM20.1717 19.5762C22.0208 19.5762 23.525 21.0804 23.525 22.9295C23.525 24.7786 22.0207 26.2829 20.1717 26.2829C18.3228 26.2829 16.8185 24.7786 16.8185 22.9295C16.8185 21.0804 18.3228 19.5762 20.1717 19.5762ZM74.2653 58.6348C74.2653 59.9325 73.2095 60.9883 71.9118 60.9883H47.8005C46.5028 60.9883 45.447 59.9325 45.447 58.6348V22.9328C45.447 21.6351 46.5028 20.5793 47.8005 20.5793H58.4134C58.4275 20.873 58.4358 21.1663 58.4358 21.4574C58.4358 22.3219 59.1367 23.0229 60.0014 23.0229C60.8661 23.0229 61.567 22.3219 61.567 21.4574C61.567 21.166 61.559 20.8728 61.5469 20.5793H71.912C73.2097 20.5793 74.2655 21.6351 74.2655 22.9328L74.2653 58.6348Z" fill="black"/>
<path id="Vector_3" d="M69.3735 39.9772L60.8683 32.7689C60.5855 32.5293 60.2268 32.3977 59.8561 32.3977C59.4854 32.3977 59.1267 32.5293 58.8439 32.7689L50.3385 39.9772C49.679 40.5363 49.5974 41.5242 50.1563 42.1839C50.3032 42.3576 50.4863 42.4971 50.6927 42.5926C50.8992 42.6882 51.124 42.7375 51.3515 42.7372C51.722 42.7376 52.0805 42.606 52.3628 42.366L53.204 41.6532V47.6049C53.204 48.4694 53.9049 49.1705 54.7695 49.1705H64.7634C65.6281 49.1705 66.329 48.4694 66.329 47.6049V41.5015L67.3491 42.366C68.0087 42.9249 68.9965 42.8432 69.5556 42.1839C70.1147 41.524 70.0331 40.5363 69.3735 39.9772ZM63.1979 46.0392H56.3351V38.9994L59.856 36.0154L63.1979 38.8477V46.0392Z" fill="#33CCCC"/>
</g>
</g>
<defs>
<clipPath id="clip0_72_248">
<rect width="80" height="80" fill="white"/>
</clipPath>
</defs>
</svg>
