<svg width="80" height="80" viewBox="0 0 80 80" fill="none" xmlns="http://www.w3.org/2000/svg">
<g id="icon_ip">
<g id="Group">
<path id="Vector" d="M63.3455 55.4625C67.8761 48.7691 71.25 41.027 71.25 32.8125C71.25 15.5531 57.2594 1.5625 40 1.5625C22.7406 1.5625 8.75 15.5531 8.75 32.8125C8.75 57.8125 40 78.4375 40 78.4375C40 78.4375 46.9133 73.8747 54.2367 66.44" stroke="black" stroke-width="3" stroke-miterlimit="10" stroke-linecap="round" stroke-linejoin="round"/>
<path id="Vector_2" d="M40 56.25C52.9442 56.25 63.4375 45.7567 63.4375 32.8125C63.4375 19.8683 52.9442 9.375 40 9.375C27.0558 9.375 16.5625 19.8683 16.5625 32.8125C16.5625 45.7567 27.0558 56.25 40 56.25Z" stroke="#33CCCC" stroke-width="3" stroke-miterlimit="10" stroke-linecap="round" stroke-linejoin="round"/>
<path id="Vector_3" d="M40 32.8125H44.6875C47.2764 32.8125 49.375 30.7139 49.375 28.125C49.375 25.5361 47.2764 23.4375 44.6875 23.4375H40V32.8125ZM40 32.8125V42.1875M33.75 23.4375V42.1875" stroke="black" stroke-width="3" stroke-miterlimit="10" stroke-linecap="round" stroke-linejoin="round"/>
</g>
<circle id="Ellipse 1" cx="59" cy="61" r="2" fill="black"/>
</g>
</svg>
