<svg width="314" height="76" viewBox="0 0 314 76" fill="none" xmlns="http://www.w3.org/2000/svg">
<g clip-path="url(#clip0_154_2172)">
<path d="M4.30368 0C2.01059 0 0.132812 1.97204 0.132812 4.38024V5.96459H78.4919V4.38024C78.4919 1.97204 76.7028 0 74.4097 0H4.30368ZM195.986 5.96459C192.848 5.96459 190.307 8.63001 190.307 11.9292C190.307 15.2246 192.848 17.8938 195.986 17.8938C199.124 17.8938 201.666 15.2246 201.666 11.9292C201.666 8.63001 199.124 5.96459 195.986 5.96459ZM99.6124 6.89655V39.0494C99.6124 40.6673 99.7331 43.0233 98.725 44.3616C97.5855 45.9087 95.6794 46.3187 93.9329 46.3187C92.19 46.3187 87.327 44.3765 85.325 42.6841V52.9357C85.325 52.9357 88.0618 54.6095 89.6733 54.986C92.0552 55.5415 95.974 55.918 95.974 55.918C106.378 55.918 110.35 51.2954 110.35 40.4473V6.89655H99.6124ZM307.712 7.36254C304.319 7.36254 301.411 10.0056 301.411 13.6999C301.411 17.4278 304.319 20.2237 307.712 20.2237C311.024 20.2237 313.835 17.4278 313.835 13.6999C313.835 10.0056 311.024 7.36254 307.712 7.36254ZM0.132812 8.2945V16.3094H15.3077C19.0845 12.6785 23.6671 9.92731 28.7964 8.2945H0.132812ZM50.0057 8.2945C55.1386 9.92731 59.7176 12.6785 63.4945 16.3094H78.4919V8.2945H50.0057ZM307.712 8.3877C310.459 8.3877 312.593 10.6617 312.593 13.6999C312.593 16.7978 310.459 19.1053 307.712 19.1053C304.915 19.1053 302.654 16.7978 302.654 13.6999C302.654 10.6617 304.915 8.3877 307.712 8.3877ZM25.7792 9.97204C25.3 10.1547 24.9983 10.6542 25.0693 11.1836L25.8679 17.4278L25.6017 17.3346C25.2148 17.1258 24.7782 17.1295 24.4481 17.4278C24.118 17.726 23.9547 18.2032 24.0931 18.6393L25.9567 24.6039L24.0931 23.4856C23.6565 23.2544 23.0886 23.3849 22.762 23.7651C22.439 24.1491 22.4035 24.7344 22.6732 25.1631L24.5368 28.0522C24.2102 28.0336 23.8695 28.1603 23.6494 28.425C23.3512 28.7903 23.2447 29.3159 23.4719 29.7297L25.4242 33.2712L24.1819 32.246C23.7914 31.9254 23.2376 31.9217 22.8507 32.246C22.4638 32.5666 22.3786 33.1743 22.5845 33.644L26.1342 41.7521L25.2468 41.1929C24.8563 40.9394 24.3593 40.9767 24.0044 41.2861C23.6494 41.5918 23.4861 42.1398 23.6494 42.5909L24.803 45.8528L21.6083 43.616C21.2676 43.3886 20.8026 43.4035 20.4547 43.616C20.1068 43.8323 19.8974 44.2162 19.9222 44.6412L20.011 45.2004L19.3898 44.7344L16.1951 40.5405C15.8898 40.1379 15.3148 39.9553 14.864 40.1678C14.4983 40.343 14.3564 40.7829 14.3315 41.1929L11.758 38.6766C11.3959 38.3262 10.8386 38.3001 10.4269 38.5834C10.0116 38.8705 9.81632 39.3961 9.98316 39.8882L11.0481 43.0569C10.9238 43.1165 10.8777 43.1351 10.7818 43.2433C10.4695 43.5974 10.3914 44.123 10.6043 44.548L12.6454 48.7419C12.6632 48.7679 13.043 49.357 13.4441 50.0466H12.113C11.7012 50.0466 11.403 50.3113 11.2255 50.699C11.0445 51.0904 11.0587 51.5713 11.3143 51.9105L14.154 55.7316C13.7707 55.7763 13.508 56.0037 13.3553 56.384C13.1885 56.8015 13.2311 57.2712 13.5328 57.5955L18.4136 62.9077H18.0587C17.6185 62.8481 17.2067 63.0569 16.9938 63.4669C16.7843 63.877 16.8837 64.4175 17.1712 64.7717L18.4136 66.2628C18.3213 66.3709 18.1971 66.4939 18.1474 66.6356C17.9983 67.083 18.1581 67.5452 18.5024 67.8472L20.9871 70.0839H0.132812V71.6682C0.132812 74.0764 2.01059 75.9553 4.30368 75.9553H74.4097C76.7028 75.9553 78.4919 74.0764 78.4919 71.6682V70.0839H59.4124V69.9907H56.7501C56.6756 69.9236 56.5975 69.8267 56.5726 69.8043L61.5422 64.7717C61.8758 64.4287 61.9291 63.9068 61.7197 63.4669C61.6948 63.411 61.6629 63.4222 61.6309 63.3737L63.7607 61.6962C64.1086 61.4278 64.2151 61.0177 64.1157 60.5778C64.0163 60.1379 63.743 59.7204 63.317 59.6459L62.3408 59.5527C62.3408 59.5527 61.9149 59.4185 61.6309 59.3663L63.317 57.6887L65.0031 56.1044L66.7779 54.52C67.1258 54.1883 67.1542 53.6626 66.9554 53.2153C66.7566 52.7679 66.3555 52.4958 65.8905 52.5629H65.5355L65.6243 52.2833L68.2865 49.1146C68.5954 48.7344 68.6344 48.2274 68.3753 47.8099C68.2652 47.6347 68.1055 47.4296 67.9316 47.3439L69.174 45.3868C69.4508 44.9506 69.426 44.3691 69.0852 43.9888C68.7445 43.6049 68.1872 43.5452 67.7541 43.8024L65.8905 44.8276L64.1157 45.946L62.2521 47.0643C62.2698 46.7474 62.2521 46.5051 62.2521 46.5051L62.3408 45.1072L62.4296 43.8024C62.4615 43.3141 62.1563 42.863 61.7197 42.6841C61.2795 42.5089 60.7683 42.5797 60.4773 42.9637L59.8561 43.8956C59.7318 43.7465 59.5118 43.5862 59.3236 43.5228C59.1248 43.4557 58.9864 43.4669 58.7912 43.5228L60.6547 40.5405C60.9068 40.1379 60.85 39.616 60.566 39.2358C60.3708 38.9674 60.0761 38.7847 59.7673 38.7698L61.4534 35.3215C61.6629 34.8966 61.5919 34.3672 61.2759 34.0168C60.9636 33.6701 60.5412 33.6365 60.1223 33.8304L58.6137 34.4828L57.1051 35.2283L55.7739 35.7875L55.8627 34.3896L56.5726 31.9665C56.7146 31.4967 56.601 31.0382 56.2177 30.7549C56.0331 30.617 55.8094 30.4753 55.5965 30.4753L56.3951 24.1379C56.4697 23.6123 56.2532 23.109 55.7739 22.9264C55.2947 22.74 54.709 22.9376 54.4428 23.3924L53.2004 25.5359C53.0265 25.2227 52.7567 25.0065 52.4018 24.9767C51.9368 24.9357 51.5143 25.178 51.3369 25.6291L49.3845 30.3821C49.31 30.3597 49.2851 30.3858 49.2071 30.3821C48.7704 30.3672 48.3232 30.617 48.1421 31.0345L47.4322 32.6188C47.1269 32.5331 46.8075 32.6151 46.5448 32.8052L46.3673 32.8984L45.9236 28.2386C45.8846 27.8248 45.668 27.4669 45.3024 27.3066C44.9439 27.1501 44.5463 27.247 44.2375 27.493L41.309 21.808C41.0996 21.4017 40.6843 21.1929 40.2441 21.2488C39.8075 21.301 39.3816 21.644 39.268 22.0876L39.0017 23.3924C39.0017 23.3924 38.8314 23.9329 38.7355 24.3243C38.7462 24.3504 36.6945 19.3849 36.6945 19.3849C36.517 18.945 36.0839 18.7064 35.6295 18.7325C35.4521 18.7474 35.3314 18.8257 35.1858 18.9189L33.9435 15.8434C33.7802 15.4185 33.4039 15.0941 32.9673 15.0979C32.5271 15.1016 32.1509 15.4147 31.9911 15.8434L31.6362 16.8686L31.015 14.9115C30.8801 14.4567 30.4932 14.1845 30.0388 14.1659C29.7335 14.151 29.4496 14.2293 29.2401 14.4455L28.4415 12.7679C28.4095 12.712 27.0216 10.438 27.0216 10.438C26.7554 9.98323 26.2584 9.79311 25.7792 9.97204ZM305.316 10.0652V17.4278H306.381V14.2591H307.623L309.487 17.4278H310.641L308.688 14.1659C309.7 14.0466 310.463 13.4315 310.463 12.1156C310.463 10.6505 309.639 10.0652 307.978 10.0652H305.316ZM306.381 10.9972H307.801C308.532 10.9972 309.398 11.1985 309.398 12.1156C309.398 13.2637 308.536 13.3271 307.623 13.3271H306.381V10.9972ZM0.132812 18.6393V26.561H8.03084C9.37616 23.6757 11.1155 21.0289 13.1779 18.6393H0.132812ZM65.713 18.6393C67.7754 21.0289 69.426 23.6757 70.7713 26.561H78.4919V18.6393H65.713ZM173.446 18.7325C168.469 18.7325 165.611 20.9506 163.595 25.5359H163.507V19.4781H154.189V55.2656H164.039V36.0671C164.039 33.8117 164.185 31.6831 165.193 29.6365C165.998 28.0149 167.617 27.027 169.363 27.027C174.34 27.027 173.801 32.3989 173.801 36.0671V55.2656H183.74V33.178C183.74 29.931 183.665 25.4203 181.787 22.74C179.771 19.8472 176.669 18.7325 173.446 18.7325ZM226.691 18.7325C222.325 18.7325 219.634 20.7568 217.817 24.6971H217.639V19.4781H208.41V74.0913H218.26V51.2582H218.349C219.762 54.4306 222.885 55.918 226.247 55.918C236.186 55.918 239.292 46.1659 239.292 37.3719C239.292 33.0065 238.866 28.7754 236.719 24.9767C234.436 20.8947 231.259 18.7325 226.691 18.7325ZM297.595 18.7325C293.3 18.3821 291.327 22.3784 290.319 26.1883H290.141V19.4781H280.912V55.2656H290.851V41.5657C290.851 35.2172 291.763 28.8388 299.282 29.2638V18.9189L297.595 18.7325ZM258.993 18.8257C248.386 18.8257 242.398 27.3103 242.398 37.8378C242.398 48.4213 249.057 55.918 259.259 55.918C270.806 55.918 274.789 45.3681 274.789 43.616L265.648 42.8705C265.648 46.1622 262.635 48.5555 259.614 48.5555C255.319 48.5555 252.916 45.1146 253.047 40.9133L253.136 39.1426H274.966C275.034 34.2777 274.324 29.219 271.505 25.1631C268.687 21.0736 263.76 18.8257 258.993 18.8257ZM118.159 19.4781V42.0317C118.159 45.4874 117.964 48.8984 119.846 52.0037C121.791 55.247 124.762 56.0112 128.187 56.0112C132.823 56.0112 136.337 53.6291 137.949 49.1146H138.038V55.2656H147.178V19.4781H137.328V38.6766C137.328 40.5107 137.47 42.5536 136.795 44.1752C135.922 46.2926 134.044 47.7167 131.826 47.7167C128.329 47.7167 128.01 44.9245 128.01 42.0317V19.4781H118.159ZM190.75 19.4781V55.2656H200.601V19.4781H190.75ZM259.436 25.6291C263.732 25.6291 264.917 29.1482 265.116 32.9916H253.047C253.384 28.9357 255.074 25.6291 259.436 25.6291ZM223.674 26.0951C228.647 26.0951 228.909 33.4315 228.909 37.0923C228.909 40.753 228.781 48.5555 223.674 48.5555C221.927 48.5555 220.177 47.493 219.236 45.946C218.093 43.9739 218.26 40.9282 218.26 38.6766V35.1351C218.26 33.0252 218.228 30.8816 219.236 28.9842C220.11 27.2246 221.725 26.0951 223.674 26.0951ZM0.132812 28.891V36.9059H5.10236C5.42893 34.11 6.08916 31.4408 7.05468 28.891H0.132812ZM71.7475 28.891C72.713 31.4408 73.3768 34.11 73.6998 36.9059H78.4919V28.891H71.7475ZM0.132812 39.2358V47.1575H5.45732C5.07396 45.1184 4.83613 43.0606 4.83613 40.9133C4.83613 40.3542 4.81128 39.7875 4.83613 39.2358H0.132812ZM73.966 39.2358C73.9909 39.7875 73.966 40.3542 73.966 40.9133C73.966 43.0606 73.7282 45.1184 73.3448 47.1575H78.4919V39.2358H73.966ZM0.132812 49.4874V57.5955H9.27322C7.83205 55.0606 6.7423 52.3728 5.98977 49.4874H0.132812ZM72.9011 49.4874C72.1486 52.3728 70.9701 55.0606 69.5289 57.5955H78.4919V49.4874H72.9011ZM0.132812 59.9255V67.754H17.9699C15.1373 65.5396 12.7093 62.904 10.6931 59.9255H0.132812ZM68.1091 59.9255C66.0928 62.904 63.6684 65.5396 60.8322 67.754H78.4919V59.9255H68.1091ZM151.97 60.0187C148.034 60.0187 146.291 63.5228 146.291 67.1948C146.291 68.932 146.656 70.6953 147.622 72.1342C148.669 73.6776 150.167 74.2777 151.97 74.2777C153.78 74.2777 155.381 73.5322 156.407 71.9478C157.259 70.6319 157.65 68.7717 157.65 67.1948C157.65 65.521 157.181 63.5154 156.23 62.1622C155.165 60.6375 153.741 60.0187 151.97 60.0187ZM195.986 60.0187C194.758 60.0187 193.672 60.2833 192.703 61.137C191.758 61.9683 191.283 63.1091 191.283 64.3989C191.283 67.4334 193.618 68.1827 195.986 68.6859C196.802 68.8686 198.293 69.1184 198.293 70.2703C198.293 71.4222 197.055 71.7614 196.164 71.7614C194.786 71.7614 193.799 71.2582 193.413 69.8043L190.573 70.4567C191.169 73.1743 193.398 74.2777 195.897 74.2777C197.239 74.2777 198.741 74.0317 199.802 73.1594C200.828 72.3243 201.399 71.0643 201.399 69.7111C201.399 68.3355 200.796 67.1985 199.713 66.4492C198.783 65.8043 197.342 65.4576 196.252 65.2377C195.496 65.0736 194.3 64.85 194.3 63.8397C194.3 62.7698 195.326 62.535 196.164 62.535C197.349 62.535 198.08 63.0419 198.471 64.2125L201.044 63.2805C200.231 60.8723 198.318 60.0186 195.986 60.0187ZM85.6799 60.205V74.0913H88.076V64.7717H88.1647L93.3117 74.0913H95.974V60.205H93.578V68.4063H93.4892L89.0521 60.205H85.6799ZM100.766 60.205V74.0913H110.261V71.4818H103.872V68.3131H108.93V65.7036H103.872V62.9077H110.261V60.205H100.766ZM113.367 60.205V63.0009H116.74V74.0913H119.846V63.0009H123.218V60.205H113.367ZM125.969 60.205L129.341 74.0913H132.358L134.488 64.9581L136.706 74.0913H139.724L143.096 60.205H140.522L138.57 68.9655L138.481 69.6179H138.393L136.174 60.205H133.334L131.205 69.6179L131.027 68.8723L129.163 60.205H125.969ZM161.998 60.205V74.0913H165.104V68.5927H167.322L169.363 74.0913H172.824L170.34 67.9404C171.774 67.3886 172.647 65.9721 172.647 64.3989C172.647 63.0494 172.044 61.7036 170.961 60.9506C169.935 60.261 168.767 60.205 167.589 60.205H161.998ZM177.084 60.205V74.0913H180.101V70.9227L181.965 68.1268L184.627 74.0913H187.999L184.006 65.1445L187.201 60.205H184.272L180.101 66.7288V60.205H177.084ZM151.97 62.7214C152.943 62.7214 153.532 63.0979 153.922 64.0261C154.309 64.9581 154.366 66.1845 154.366 67.1948C154.366 68.1044 154.213 69.2339 153.922 70.0839C153.557 71.1128 153.042 71.6682 151.97 71.6682C149.78 71.6682 149.485 68.932 149.485 67.1948C149.485 66.3262 149.617 65.1333 149.929 64.3057C150.298 63.2954 150.905 62.7214 151.97 62.7214ZM165.104 62.7214H166.701C167.283 62.7214 168.217 62.5611 168.742 62.9077C169.186 63.1911 169.452 63.8509 169.452 64.3989C169.452 65.0028 169.154 65.6589 168.654 65.9832C168.089 66.3262 167.429 66.2628 166.79 66.2628H165.104V62.7214Z" fill="#1967BB"/>
</g>
<defs>
<clipPath id="clip0_154_2172">
<rect width="314" height="76" fill="white"/>
</clipPath>
</defs>
</svg>
