<svg width="125" height="125" viewBox="0 0 125 125" fill="none" xmlns="http://www.w3.org/2000/svg">
<g id="icon_phone" clip-path="url(#clip0_82_4105)">
<g id="Group">
<g id="Group_2">
<path id="Vector" d="M71.1475 0.244141C69.7991 0.244141 68.7061 1.33716 68.7061 2.68555C68.7061 4.03394 69.7991 5.12695 71.1475 5.12695C98.1499 5.12695 120.118 27.0947 120.118 54.0972C120.118 55.4448 121.211 56.5386 122.559 56.5386C123.907 56.5386 125 55.4448 125 54.0972C125 24.4026 100.842 0.244141 71.1475 0.244141Z" fill="#33CCCC"/>
<path id="Vector_2" d="M71.1475 14.9316C69.7991 14.9316 68.7061 16.0254 68.7061 17.374C68.7061 18.7217 69.7991 19.8154 71.1475 19.8154C90.0503 19.8154 105.429 35.1934 105.429 54.0972C105.429 55.4448 106.522 56.5386 107.871 56.5386C109.219 56.5386 110.312 55.4448 110.312 54.0972C110.312 32.5012 92.7434 14.9316 71.1475 14.9316Z" fill="#33CCCC"/>
<path id="Vector_3" d="M90.7383 54.0972C90.7383 55.4448 91.8313 56.5386 93.1797 56.5386C94.5283 56.5386 95.6211 55.4448 95.6211 54.0972C95.6211 40.6018 84.6423 29.623 71.147 29.623C69.7986 29.623 68.7056 30.7161 68.7056 32.0645C68.7056 33.4128 69.7986 34.5059 71.147 34.5059C81.9492 34.5059 90.7383 43.2939 90.7383 54.0972ZM68.7056 46.7529C68.7056 48.1006 69.7986 49.1943 71.147 49.1943C73.8506 49.1943 76.0498 51.3936 76.0498 54.0972C76.0498 55.4448 77.1428 56.5386 78.4912 56.5386C79.8396 56.5386 80.9326 55.4448 80.9326 54.0972C80.9326 48.7004 76.543 44.3115 71.147 44.3115C69.7986 44.3115 68.7056 45.4045 68.7056 46.7529ZM46.627 78.95C46.627 80.2983 45.5342 81.3914 44.1855 81.3914C42.8369 81.3914 41.7441 80.2983 41.7441 78.95C41.7441 77.6013 42.8372 76.5076 44.1855 76.5076C45.5339 76.5076 46.627 77.6013 46.627 78.95Z" fill="#33CCCC"/>
<path id="Vector_4" d="M86.6805 81.6371C83.8253 78.7806 79.1781 78.7806 76.3226 81.6371L68.288 89.6718C66.7696 91.1901 63.9183 91.4618 62.0614 90.2667C59.2428 88.4498 56.5267 86.4784 53.9256 84.3617C52.8795 83.5109 51.3422 83.6683 50.4906 84.7145C49.6398 85.7606 49.7972 87.298 50.8434 88.1488C53.5844 90.3794 56.4466 92.4567 59.4169 94.3715C63.1954 96.8053 68.6085 96.257 71.7411 93.1239L79.7757 85.0892C80.7286 84.1376 82.2765 84.1385 83.2281 85.0892L102.218 104.082C103.17 105.034 103.17 106.582 102.218 107.534L95.111 114.641C89.3661 120.386 80.5035 121.952 73.0582 118.537C35.7814 101.452 16.349 72.7545 6.6129 51.6898C3.25792 44.434 4.87145 35.6898 10.6297 29.9325L17.6249 22.9384C17.8512 22.7113 18.1202 22.5311 18.4163 22.4082C18.7125 22.2853 19.0299 22.222 19.3506 22.222C19.6712 22.222 19.9887 22.2853 20.2848 22.4082C20.581 22.5311 20.8499 22.7113 21.0763 22.9384L40.0687 41.9308C41.0206 42.8824 41.0206 44.4303 40.0687 45.3822L32.034 53.4178C28.9012 56.5507 28.3539 61.9637 30.7875 65.7421C32.1724 67.8902 33.6422 69.9823 35.1935 72.0135C36.0128 73.0843 37.5453 73.2894 38.6163 72.4701C39.6874 71.6522 39.8922 70.1195 39.0741 69.0485C37.6014 67.121 36.2063 65.1354 34.8922 63.0966C33.6964 61.2408 33.9691 58.3883 35.4872 56.87L43.5218 48.8353C46.3839 45.9735 46.3849 41.3405 43.5218 38.4774L24.5297 19.485C21.6666 16.6222 17.0345 16.6222 14.1708 19.485L7.17662 26.4794C-0.0228393 33.6786 -2.03016 44.6334 2.17906 53.7382C16.2689 84.2196 39.9542 108.736 71.0231 122.977C80.2804 127.222 91.3563 125.301 98.5633 118.094L105.671 110.987C108.526 108.131 108.526 103.485 105.671 100.63L86.6805 81.6371Z" fill="#020202"/>
</g>
</g>
</g>
<defs>
<clipPath id="clip0_82_4105">
<rect width="125" height="125" fill="white"/>
</clipPath>
</defs>
</svg>
