<svg width="80" height="80" viewBox="0 0 80 80" fill="none" xmlns="http://www.w3.org/2000/svg">
<g id="icon_data transfer">
<path id="Vector" d="M4.68749 49.3748C6.40623 49.3748 7.81248 47.9686 7.81248 46.2498V21.2499C7.81248 19.5312 9.21872 18.125 10.9375 18.125H22.6557M4.68749 49.3748H27.6563M4.68749 49.3748C2.97078 49.3748 1.5625 47.9686 1.5625 46.2498V8.74999C1.5625 7.03124 2.96874 5.625 4.68749 5.625H14.3167C16.3088 5.625 17.5568 6.48593 18.4388 8.21061L20.3127 11.875H42.1873C43.9061 11.875 45.3123 13.2829 45.3123 15V17.3437M36.7181 18.1251H48.4373C50.1561 18.1251 51.5623 19.5332 51.5623 21.2501V36.0939" stroke="black" stroke-width="3" stroke-miterlimit="22.9256" stroke-linecap="round" stroke-linejoin="round"/>
<path id="Vector_2" d="M31.5625 74.3749C33.2813 74.3749 34.6875 72.9687 34.6875 71.2499V46.25C34.6875 44.5313 36.0938 43.125 37.8125 43.125H75.3124C77.0311 43.125 78.4374 44.5332 78.4374 46.25V71.2499C78.4374 72.9669 77.0294 74.3749 75.3124 74.3749H31.5625ZM31.5625 74.3749C29.8457 74.3749 28.4376 72.9687 28.4376 71.2499V33.7501C28.4376 32.0313 29.8438 30.6251 31.5625 30.6251H41.1917C43.1839 30.6251 44.4319 31.486 45.3139 33.2107L47.1878 36.8751H69.0626C70.7813 36.8751 72.1875 38.283 72.1875 40V42.3438M21.8749 66.6099L12.7876 74.3749V70.6202C6.45264 70.6202 1.5625 66.581 1.5625 57.0847C4.39686 61.994 8.29201 62.5996 12.7876 62.5996V58.845L21.8749 66.6099ZM58.1249 19.64L67.2122 11.875V15.6297C73.5472 15.6297 78.4374 19.6689 78.4374 29.1651C75.603 24.2557 71.7078 23.6501 67.2122 23.6501V27.4048L58.1249 19.64Z" stroke="#33CCCC" stroke-width="3" stroke-miterlimit="22.9256" stroke-linecap="round" stroke-linejoin="round"/>
<path id="Vector_3" d="M29.6855 18.125H29.6865" stroke="black" stroke-width="3" stroke-miterlimit="2.6131" stroke-linecap="round" stroke-linejoin="round"/>
</g>
</svg>
