<svg width="80" height="80" viewBox="0 0 80 80" fill="none" xmlns="http://www.w3.org/2000/svg">
<g id="icon_settings" clip-path="url(#clip0_72_259)">
<g id="Group">
<path id="Vector" d="M75.7759 37.9867C75.7756 37.1241 75.076 36.4248 74.2134 36.4248H70.0629C69.3434 33.6285 68.2334 30.9476 66.7656 28.4611L69.7007 25.526C70.3109 24.9158 70.3109 23.9264 69.7007 23.3161L60.9043 14.5197C60.2942 13.9096 59.3048 13.9096 58.6945 14.5197L57.8097 15.4046C57.7267 9.15458 54.3334 3.3485 48.9081 0.210223C48.6706 0.0727404 48.4011 0.000242852 48.1267 2.74267e-05C47.8523 -0.000187999 47.5826 0.0718863 47.3449 0.208996C47.1072 0.346106 46.9098 0.543413 46.7726 0.781059C46.6354 1.01871 46.5632 1.2883 46.5633 1.56272V13.8439L40.0006 17.633L33.438 13.8439V1.56256C33.4381 1.28813 33.366 1.0185 33.2288 0.780827C33.0915 0.543154 32.8941 0.345823 32.6564 0.208704C32.4187 0.0715851 32.149 -0.000482805 31.8746 -0.000243547C31.6002 -4.28881e-06 31.3306 0.0725337 31.0931 0.210067C25.675 3.34444 22.2838 9.13911 22.1921 15.3796L21.3171 14.5046C20.7069 13.8944 19.7175 13.8944 19.1072 14.5046L10.3108 23.301C9.70069 23.9111 9.70069 24.9005 10.3108 25.5108L13.2608 28.4606C11.793 30.9473 10.683 33.6283 9.96335 36.4247H5.78773C4.92508 36.4247 4.22555 37.1239 4.22523 37.9866L4.2207 50.4265C4.22061 50.6318 4.26097 50.835 4.33947 51.0246C4.41797 51.2143 4.53307 51.3866 4.6782 51.5317C4.82326 51.6769 4.99551 51.7921 5.18512 51.8707C5.37472 51.9492 5.57796 51.9897 5.7832 51.9897H9.96304C10.6826 54.7861 11.7926 57.4672 13.2604 59.9539L10.3004 62.9138C9.69022 63.524 9.69022 64.5134 10.3004 65.1237L19.0968 73.9201C19.7069 74.5301 20.6963 74.5301 21.3066 73.9201L24.2666 70.9601C26.7533 72.4279 29.4345 73.538 32.231 74.2576V78.4373C32.231 78.8517 32.3956 79.2491 32.6886 79.5421C32.9816 79.8351 33.3791 79.9997 33.7935 79.9997L46.2341 79.9952C47.0967 79.9949 47.7959 79.2954 47.7959 78.4327V74.2573C50.5924 73.5377 53.2735 72.4276 55.7601 70.9598L58.71 73.9098C59.003 74.2028 59.4004 74.3674 59.8148 74.3674C60.0201 74.3673 60.2238 74.3268 60.4134 74.2482C60.603 74.1696 60.7752 74.0544 60.9203 73.9091L69.7118 65.1079C70.3214 64.4976 70.321 63.5088 69.7112 62.8987L66.766 59.9534C68.2338 57.4668 69.3438 54.7858 70.0634 51.9895H74.2184C74.4236 51.9895 74.6269 51.9491 74.8165 51.8705C75.0061 51.7919 75.1784 51.6768 75.3234 51.5316C75.4685 51.3865 75.5836 51.2142 75.6621 51.0245C75.7406 50.8349 75.781 50.6316 75.7809 50.4264L75.7759 37.9867ZM30.3128 4.60131V14.7458C30.3128 15.0201 30.385 15.2895 30.5222 15.5271C30.6593 15.7646 30.8566 15.9618 31.0941 16.0989L39.2194 20.79C39.4569 20.9271 39.7264 20.9993 40.0006 20.9993C40.2749 20.9993 40.5443 20.9271 40.7819 20.79L48.9072 16.0989C49.1447 15.9618 49.342 15.7646 49.4791 15.5271C49.6162 15.2895 49.6884 15.0201 49.6884 14.7458V4.60131C52.8247 7.3638 54.6886 11.3846 54.6886 15.6386C54.6886 23.7377 48.0997 30.3266 40.0006 30.3266C31.9016 30.3266 25.3127 23.7377 25.3127 15.6386C25.3127 11.3846 27.1766 7.36365 30.3128 4.60131ZM68.827 48.8648C68.4696 48.8648 68.123 48.9872 67.845 49.2118C67.567 49.4364 67.3744 49.7495 67.2993 50.0989C66.5904 53.3986 65.3037 56.5064 63.4746 59.3362C63.2806 59.6364 63.1954 59.9939 63.2331 60.3493C63.2709 60.7047 63.4293 61.0364 63.682 61.2892L66.397 64.0042L59.8142 70.5943L57.0958 67.8759C56.843 67.6232 56.5113 67.4647 56.1558 67.427C55.8004 67.3893 55.4428 67.4745 55.1426 67.6685C52.3128 69.4973 49.205 70.7843 45.905 71.4934C45.5556 71.5685 45.2425 71.7611 45.0179 72.039C44.7933 72.317 44.6708 72.6636 44.6708 73.021V76.8707L35.356 76.874V73.0212C35.356 72.6638 35.2335 72.3172 35.0089 72.0392C34.7843 71.7613 34.4711 71.5687 34.1217 71.4937C30.8217 70.7846 27.7139 69.4977 24.8841 67.6687C24.5839 67.4747 24.2263 67.3895 23.8709 67.4272C23.5155 67.4649 23.1837 67.6233 22.931 67.876L20.2018 70.6052L13.6149 64.0188L16.3441 61.2896C16.5968 61.0369 16.7553 60.7052 16.793 60.3498C16.8307 59.9944 16.7455 59.6368 16.5515 59.3367C14.7227 56.5068 13.4358 53.3989 12.7266 50.099C12.6515 49.7496 12.4589 49.4365 12.1809 49.2119C11.9029 48.9873 11.5564 48.8648 11.199 48.8648H7.34648L7.34976 39.55H11.1994C11.5568 39.55 11.9034 39.4275 12.1814 39.2029C12.4594 38.9783 12.652 38.6652 12.7271 38.3158C13.4362 35.0158 14.7229 31.908 16.5519 29.0783C16.7459 28.7781 16.8311 28.4205 16.7934 28.0651C16.7557 27.7097 16.5973 27.3779 16.3446 27.1252L13.6254 24.4061L20.2119 17.8196L22.8505 20.4582C24.036 24.6714 26.7361 28.2564 30.3233 30.5867V60.6476C30.2819 60.6232 30.24 60.6004 30.1988 60.5757C29.4592 60.1314 28.4991 60.371 28.0549 61.111C27.6107 61.8507 27.8503 62.8107 28.5902 63.2549C32.1372 65.3846 36.0799 66.4234 39.9958 66.4232C45.728 66.4231 51.4023 64.1971 55.6901 59.9095C59.4867 56.115 61.778 51.0722 62.1387 45.7167C62.4951 40.4148 60.9451 35.1645 57.774 30.9331C57.2564 30.2428 56.2773 30.1025 55.5865 30.6199C54.8961 31.1373 54.7558 32.1167 55.2733 32.8073C60.9145 40.3351 60.1437 51.0365 53.4804 57.6998C52.3477 58.8336 51.0773 59.8209 49.6989 60.6385V42.7615C49.6989 41.8987 48.9994 41.199 48.1364 41.199C47.2734 41.199 46.5739 41.8987 46.5739 42.7615V62.1229C44.4674 62.8989 42.2403 63.2963 39.9955 63.2967C37.7615 63.2959 35.5452 62.9006 33.4486 62.1292V32.2028C35.4777 33.0083 37.6886 33.4516 40.0009 33.4516C48.1411 33.4516 55.0231 27.9631 57.1417 20.4925L59.8 17.8342L66.3865 24.4208L63.6821 27.125C63.4294 27.3777 63.271 27.7095 63.2332 28.0649C63.1955 28.4203 63.2808 28.778 63.4748 29.0781C65.3036 31.9078 66.5904 35.0156 67.2995 38.3155C67.3746 38.6649 67.5672 38.978 67.8452 39.2026C68.1232 39.4272 68.4698 39.5497 68.8271 39.5497H72.6518L72.6553 48.8645L68.827 48.8648Z" fill="black"/>
<path id="Vector_2" d="M24.3778 30.6624C23.6859 30.1468 22.7068 30.2899 22.1912 30.9818C17.5481 37.2134 16.5208 45.5526 19.5103 52.7452C19.6288 53.0305 19.8291 53.2742 20.086 53.4457C20.3429 53.6171 20.6449 53.7086 20.9537 53.7085C21.1536 53.7085 21.3568 53.6699 21.5528 53.5884C22.3497 53.2573 22.7272 52.3429 22.3959 51.546C19.8272 45.3659 20.709 38.2016 24.697 32.8491C25.2129 32.1571 25.0698 31.1782 24.3778 30.6624ZM25.0681 56.2415L25.0653 56.2387C24.4553 55.6291 23.4622 55.6241 22.8517 56.2337C22.2412 56.8432 22.2448 57.8363 22.854 58.4473C23 58.5937 23.1734 58.7098 23.3644 58.789C23.5554 58.8681 23.7601 58.9087 23.9668 58.9084C24.3653 58.9084 24.7637 58.7577 25.0675 58.4551C25.6787 57.8463 25.6764 56.8532 25.0681 56.2415ZM49.2422 35.1977C48.9485 34.9058 48.5516 34.7413 48.1375 34.7399C47.725 34.7399 47.3218 34.9071 47.0328 35.1977C46.7402 35.491 46.5756 35.8882 46.575 36.3024C46.575 36.7149 46.7406 37.1165 47.0328 37.4071C47.3234 37.6993 47.725 37.8649 48.1375 37.8649C48.5484 37.8649 48.9515 37.6993 49.2422 37.4071C49.5328 37.1165 49.7 36.7149 49.7 36.3024C49.7 35.8915 49.5328 35.4884 49.2422 35.1977Z" fill="#33CCCC"/>
</g>
</g>
<defs>
<clipPath id="clip0_72_259">
<rect width="80" height="80" fill="white"/>
</clipPath>
</defs>
</svg>
