<svg width="80" height="80" viewBox="0 0 80 80" fill="none" xmlns="http://www.w3.org/2000/svg">
<g clip-path="url(#clip0_72_27)">
<path d="M72.3778 16.201C72.1742 16.1525 51.8929 11.224 41.1654 0.478974C41.1525 0.465977 41.1394 0.453214 41.126 0.440692L41.1257 0.44038L41.1249 0.439599C40.8241 0.157678 40.4275 0.000471835 40.0152 -0.000244141H39.984C39.5717 0.000440609 39.1751 0.157651 38.8743 0.439599L38.8735 0.44038L38.8732 0.440692C38.8599 0.453192 38.8468 0.465849 38.8338 0.478974C28.1198 11.2104 7.82484 16.1524 7.6214 16.201C7.2642 16.2861 6.94613 16.4892 6.71856 16.7774C6.49098 17.0656 6.3672 17.422 6.36719 17.7893V47.0006C6.36719 52.7122 8.08547 57.54 11.6198 61.7601C14.889 65.6632 19.2928 68.5096 23.1697 70.7788C31.1548 75.4532 39.1343 79.7612 39.214 79.8041C39.4521 79.9326 39.7184 79.9999 39.989 79.9999H40.0102C40.2807 79.9999 40.5473 79.9327 40.7852 79.804C40.8649 79.7612 48.8444 75.4532 56.8296 70.7788C60.7064 68.5095 65.1103 65.6632 68.3794 61.7601C71.9139 57.54 73.632 52.7122 73.632 47.0006V17.7893C73.632 17.422 73.5083 17.0656 73.2807 16.7774C73.0531 16.4892 72.735 16.2861 72.3778 16.201ZM70.3667 47.0006C70.3667 58.1382 62.5275 63.6598 55.1799 67.961C48.6782 71.7671 42.1782 75.3296 39.9995 76.5154C37.8209 75.3296 31.3207 71.767 24.819 67.961C17.4712 63.6599 9.63218 58.1384 9.63218 47.0008V19.0553C14.207 17.8252 29.9871 13.086 39.9993 3.88397C50.0115 13.086 65.7918 17.8252 70.3666 19.0553L70.3667 47.0006Z" fill="#121212"/>
<path d="M54.545 25.4539C46.5242 17.433 33.4735 17.433 25.4527 25.4539C18.8108 32.0957 17.5044 42.3761 22.2761 50.4538C22.7346 51.2302 23.7358 51.4875 24.5122 51.0291C25.2885 50.5705 25.5461 49.5694 25.0875 48.793C21.0739 41.9988 22.1735 33.3507 27.7614 27.7628C34.5091 21.015 45.4883 21.015 52.2358 27.7628C58.9836 34.5105 58.9836 45.4897 52.2358 52.2372C46.6478 57.8252 37.9999 58.9247 31.2056 54.9111C30.4297 54.4525 29.4283 54.71 28.9696 55.4864C28.511 56.2627 28.7686 57.2639 29.5449 57.7225C32.7065 59.5932 36.3128 60.5797 39.9864 60.5786C45.3072 60.5786 50.576 58.5147 54.5449 54.5461C62.5658 46.5255 62.5658 33.4747 54.545 25.4539Z" fill="#33CCCC"/>
<path d="M27.7617 52.2373L27.7481 52.2237C27.1105 51.5862 26.0766 51.586 25.4391 52.2237C24.8016 52.8613 24.8016 53.8953 25.4391 54.5328L25.4527 54.5463C25.6041 54.6982 25.784 54.8186 25.9821 54.9006C26.1802 54.9827 26.3926 55.0248 26.607 55.0245C27.0248 55.0245 27.4428 54.8651 27.7617 54.5463C28.3994 53.9087 28.3994 52.8749 27.7617 52.2373ZM52.9927 31.4987C52.3552 30.861 51.3213 30.8612 50.6838 31.4987L37.1448 45.0381L29.3141 37.207C28.6766 36.5695 27.6427 36.5696 27.0052 37.207C26.3677 37.8445 26.3677 38.8784 27.0052 39.5159L35.9905 48.5013C36.2967 48.8074 36.7119 48.9794 37.1448 48.9794C37.5778 48.9794 37.993 48.8074 38.2992 48.5013L52.9927 33.8074C53.6303 33.1701 53.6302 32.1365 52.9927 31.4987Z" fill="#33CCCC"/>
</g>
<defs>
<clipPath id="clip0_72_27">
<rect width="80" height="80" fill="white"/>
</clipPath>
</defs>
</svg>
