<svg width="125" height="126" viewBox="0 0 125 126" fill="none" xmlns="http://www.w3.org/2000/svg">
<g id="icon_24/7" clip-path="url(#clip0_49_297)">
<g id="Group">
<g id="Group_2">
<path id="Vector" fill-rule="evenodd" clip-rule="evenodd" d="M62.5 0.500244C97.0081 0.500244 124.997 28.4834 124.997 62.9995C124.997 97.5156 97.0081 125.5 62.5 125.5C27.9805 125.5 0.00317383 97.5156 0.00317383 62.9995C0.00317383 28.4834 27.9805 0.500244 62.5 0.500244Z" fill="#30A1F4"/>
<path id="Vector_2" fill-rule="evenodd" clip-rule="evenodd" d="M42.8171 45.8151C42.9954 46.1975 43.2791 46.5212 43.6349 46.748C43.9908 46.9749 44.4039 47.0954 44.8259 47.0956H55.6162V50.9071C55.6162 52.1332 56.6108 53.1266 57.8411 53.1266C59.0647 53.1266 60.0593 52.1332 60.0593 50.9071V47.0956H61.0801C61.3717 47.096 61.6604 47.0388 61.9299 46.9273C62.1993 46.8159 62.4441 46.6523 62.6502 46.446C62.8563 46.2398 63.0196 45.9948 63.1308 45.7253C63.2421 45.4558 63.299 45.1669 63.2983 44.8754C63.2988 44.5839 63.2418 44.2952 63.1305 44.0258C63.0192 43.7564 62.8558 43.5116 62.6497 43.3055C62.4437 43.0993 62.1989 42.9359 61.9296 42.8245C61.6602 42.7131 61.3716 42.656 61.0801 42.6564H60.0593V29.3365C60.0599 28.8812 59.9201 28.4367 59.659 28.0637C59.3979 27.6907 59.0281 27.4072 58.6001 27.2518C57.7234 26.9325 56.7351 27.1962 56.1399 27.9122L43.125 43.451C42.8531 43.7744 42.6796 44.169 42.625 44.588C42.5704 45.007 42.6371 45.4328 42.8171 45.8151ZM99.1211 62.8595C99.1211 72.6381 95.3132 81.84 88.3984 88.7548C81.4829 95.6703 72.28 99.4806 62.5 99.4806C52.72 99.4806 43.5171 95.6703 36.6016 88.7548C29.6868 81.8397 25.8789 72.6381 25.8789 62.8595C25.8789 61.0218 27.3689 59.5297 29.2068 59.5297C31.0481 59.5297 32.5347 61.0189 32.5347 62.8595C32.5347 79.379 45.981 92.8221 62.4998 92.8221C79.0186 92.8221 92.4648 79.3793 92.4648 62.8595C92.4648 47.8758 81.2786 35.0892 66.4131 33.1507C64.5942 32.9134 63.3106 31.2379 63.5454 29.4203C63.7805 27.6009 65.4578 26.3107 67.2761 26.5482C76.0413 27.6927 84.0791 31.9852 89.9363 38.6044C95.8633 45.3016 99.1211 53.9166 99.1211 62.8595ZM55.6162 35.4442V42.6564H49.5833L55.6162 35.4442ZM66.8513 82.5907C66.6941 82.8362 66.5868 83.1103 66.5356 83.3973C66.4844 83.6843 66.4903 83.9785 66.5529 84.2632C66.6155 84.548 66.7336 84.8176 66.9005 85.0566C67.0674 85.2956 67.2797 85.4994 67.5254 85.6564C67.8805 85.8851 68.2939 86.0068 68.7163 86.007C69.089 86.0075 69.4558 85.9142 69.7828 85.7356C70.1099 85.557 70.3867 85.2988 70.5877 84.985L84.4075 63.4144C84.6218 63.0788 84.7421 62.6918 84.7559 62.2938C84.7697 61.8958 84.6764 61.5014 84.4858 61.1517C84.2939 60.8024 84.0117 60.511 83.6687 60.308C83.3257 60.105 82.9345 59.9977 82.5359 59.9974H69.9202C68.6899 59.9974 67.7019 60.9908 67.7019 62.2169C67.7019 63.443 68.6899 64.4364 69.9202 64.4364H78.479L66.8513 82.5907ZM78.4724 41.8058C79.3362 42.6727 79.3362 44.0782 78.4724 44.9454L45.7551 77.6627C45.3166 78.0958 44.7539 78.3124 44.1846 78.3124C43.6152 78.3124 43.0461 78.0958 42.6143 77.6627C41.7505 76.7958 41.7505 75.3907 42.6143 74.5238L75.3315 41.8058C76.1956 40.9388 77.6023 40.9388 78.4724 41.8058ZM39.5391 37.1561C40.1018 35.0987 39.7485 33.5482 38.4856 32.5482C37.0657 31.4286 34.7166 31.2316 33.1199 32.0987C31.9094 32.7577 31.3728 33.8961 31.5298 35.4818C31.6411 36.7028 30.751 37.7877 29.5273 37.9042C28.3103 38.0194 27.2241 37.1273 27.1062 35.9078C26.7856 32.5314 28.199 29.7223 30.9995 28.201C34.1338 26.4921 38.4395 26.857 41.24 29.068C43.9097 31.1822 44.8521 34.5565 43.8247 38.3258C43.1311 40.8697 40.7493 42.725 38.001 44.8739C36.509 46.0348 34.906 47.2845 33.5645 48.6881H42.7581C43.9817 48.6881 44.9763 49.6815 44.9763 50.9076C44.9763 52.1337 43.9817 53.1271 42.7581 53.1271H29.2524C28.4934 53.1271 27.7803 52.7333 27.3745 52.0853C26.9687 51.4374 26.9231 50.6261 27.2568 49.9376C29.0627 46.215 32.3608 43.6429 35.2661 41.3749C37.2161 39.8512 39.238 38.277 39.5391 37.1561Z" fill="white"/>
</g>
</g>
</g>
<defs>
<clipPath id="clip0_49_297">
<rect width="125" height="125" fill="white" transform="translate(0 0.5)"/>
</clipPath>
</defs>
</svg>
