<svg width="24" height="25" viewBox="0 0 24 25" fill="none" xmlns="http://www.w3.org/2000/svg">
<g id="icon_language">
<g id="Group">
<path id="Vector" d="M2 12.5C2 18.023 6.477 22.5 12 22.5C17.523 22.5 22 18.023 22 12.5C22 6.977 17.523 2.5 12 2.5C6.477 2.5 2 6.977 2 12.5Z" stroke="black" stroke-width="1.5" stroke-linecap="round" stroke-linejoin="round"/>
<path id="Vector_2" d="M13.0009 2.55005C13.0009 2.55005 16.0009 6.50005 16.0009 12.5C16.0009 18.5 13.0009 22.4501 13.0009 22.4501M11.0009 22.4501C11.0009 22.4501 8.00086 18.5 8.00086 12.5C8.00086 6.50005 11.0009 2.55005 11.0009 2.55005M2.63086 16H21.3709M2.63086 9.00005H21.3709" stroke="black" stroke-width="1.5" stroke-linecap="round" stroke-linejoin="round"/>
</g>
</g>
</svg>
