<svg width="80" height="80" viewBox="0 0 80 80" fill="none" xmlns="http://www.w3.org/2000/svg">
<g id="icon_internet" clip-path="url(#clip0_72_32)">
<g id="Group">
<path id="Vector" d="M68.2766 11.7103C67.7219 11.1553 67.1512 10.6167 66.565 10.0952C65.1439 8.83411 63.6365 7.67394 62.0536 6.62312C55.5756 2.32469 48.077 0.0434375 40.2137 0.00171875L40.1856 0.0009375L40.1727 0.00046875H40.153C40.147 0.0003125 40.1412 0 40.1352 0H40.0223L40.0148 0.0003125H39.983L39.9755 0H39.8627L39.845 0.0003125H39.8248L39.8098 0.00078125L39.7848 0.0015625C36.4481 0.0185937 33.1845 0.4375 30.0389 1.23906C29.9695 1.25672 29.8997 1.27297 29.8305 1.29109C29.8016 1.29859 29.773 1.30703 29.7441 1.31453C29.2386 1.44713 28.7359 1.58987 28.2362 1.74266C28.2034 1.75266 28.1711 1.76359 28.1384 1.77375C23.4248 3.23062 19.0066 5.56969 15.045 8.73578L15.0445 8.73609L15.0442 8.73625L15.0441 8.73641C14.4952 9.17508 13.958 9.6281 13.433 10.095C12.847 10.6164 12.2764 11.1549 11.7219 11.7097C5.67094 17.7556 1.78266 25.3972 0.4775 33.8069C0.159398 35.8555 -0.000242315 37.9257 2.76064e-07 39.9989C2.76064e-07 50.6887 4.16297 60.7356 11.7216 68.2892C12.2766 68.8438 12.8474 69.3825 13.4333 69.9045C13.957 70.3697 14.4992 70.8264 15.0442 71.2614C22.1427 76.9347 30.7061 79.9551 39.8159 79.9964H39.8216C39.8808 79.9989 39.9408 79.9995 39.9992 79.9995C40.0578 79.9995 40.1177 79.9989 40.177 79.9964H40.1894C41.804 79.9897 43.4168 79.8869 45.0192 79.6886C45.5947 79.6167 46.1686 79.5323 46.7405 79.4356C52.9933 78.3814 58.8798 75.8547 64.0312 71.9772L64.0316 71.977C64.0316 71.977 64.0317 71.977 64.0318 71.9769C64.0318 71.9769 64.0319 71.9768 64.0319 71.9767L64.032 71.9766C64.9052 71.3203 65.751 70.6284 66.5673 69.9026C67.1484 69.3847 67.7236 68.8423 68.2783 68.2892C73.9898 62.5794 77.8003 55.3886 79.2978 47.4936C79.7641 45.0226 79.9986 42.5134 79.9984 39.9987C79.9981 29.3089 75.8352 19.2622 68.2766 11.7103ZM46.9034 3.76625C47.2779 3.83715 47.6512 3.91393 48.0233 3.99656C48.3242 4.06297 48.6244 4.13219 48.9231 4.20625C48.9516 4.21328 48.98 4.22094 49.0084 4.22812C49.2873 4.29797 49.5652 4.37156 49.8422 4.44781C49.9061 4.46547 49.97 4.48281 50.0336 4.50062C50.3277 4.58328 50.6208 4.66953 50.9127 4.75953C50.9631 4.77516 51.0131 4.79141 51.0634 4.80719C51.3267 4.88984 51.5891 4.97531 51.8505 5.06391C51.9019 5.08125 51.9536 5.09828 52.005 5.11594C52.2941 5.21531 52.5819 5.31875 52.8684 5.42547C52.9284 5.44781 52.9881 5.47078 53.048 5.49344C53.3169 5.59516 53.5848 5.69969 53.8514 5.80797C53.8791 5.81922 53.907 5.83 53.9348 5.84125C54.2838 5.98431 54.6306 6.13277 54.975 6.28656C55.2606 6.41375 55.5452 6.54359 55.8277 6.67844L55.8461 6.6875C56.1234 6.82 56.3988 6.95703 56.6731 7.09672C56.732 7.12672 56.7908 7.15656 56.8495 7.18687C57.1245 7.32875 57.3983 7.47359 57.67 7.62266C57.7072 7.64312 57.7441 7.66406 57.7811 7.68469C58.0287 7.82156 58.2748 7.96172 58.5197 8.10469C58.5705 8.13437 58.6216 8.16359 58.6722 8.19344C58.9388 8.35076 59.2035 8.5114 59.4661 8.67531C59.5169 8.70703 59.5675 8.73953 59.6181 8.77141C59.8583 8.92297 60.097 9.07719 60.3342 9.23469C60.3698 9.25844 60.4059 9.28156 60.4416 9.30531C60.46 9.31766 60.478 9.33062 60.4963 9.34297C57.9331 11.2771 55.1176 12.8517 52.128 14.0231L52.1227 14.0067C52.0945 13.9187 52.0655 13.8317 52.0361 13.7442L51.9208 13.4017C51.8722 13.2589 51.822 13.1161 51.7675 12.9612C51.6906 12.7411 51.6113 12.5217 51.5298 12.3031C51.4189 11.9998 51.2986 11.6856 51.1375 11.2781C51.0165 10.9739 50.8921 10.671 50.7644 10.3695C50.2648 9.19562 49.7283 8.09641 49.1689 7.10094C48.9093 6.63889 48.6353 6.18508 48.3473 5.74016C48.2092 5.52679 48.0675 5.31572 47.9223 5.10703C47.7608 4.87496 47.5935 4.64693 47.4206 4.42312C47.3172 4.28662 47.2112 4.15216 47.1025 4.01984C47.0328 3.93328 46.9623 3.84797 46.892 3.76453C46.8959 3.76489 46.8997 3.76546 46.9034 3.76625ZM27.7177 48.7734C27.703 48.6044 27.6886 48.4352 27.6747 48.2661C27.6644 48.147 27.6555 48.0281 27.6458 47.9008C27.6327 47.7377 27.6206 47.5728 27.6083 47.4086C27.6006 47.3028 27.5928 47.1969 27.5855 47.0883C27.5796 47.0131 27.5745 46.9379 27.57 46.8627C27.5694 46.8497 27.5685 46.8368 27.5673 46.8239C27.5608 46.7402 27.555 46.6564 27.5498 46.5727L27.5489 46.5575C27.5239 46.1695 27.5013 45.7813 27.4811 45.393C27.386 43.5967 27.3387 41.7982 27.3392 39.9994C27.3392 38.1834 27.387 36.3687 27.4806 34.615L27.4981 34.2884C27.5002 34.2495 27.502 34.2108 27.505 34.1727C27.5061 34.1591 27.507 34.1455 27.5078 34.1317C27.52 33.9056 27.5336 33.6809 27.5495 33.4442C27.5553 33.3472 27.5611 33.2517 27.5692 33.1402C27.5837 32.9194 27.5998 32.6995 27.6167 32.4784H52.3816C52.3983 32.6989 52.4142 32.9206 52.4297 33.1548C52.4369 33.2519 52.4427 33.3473 52.4492 33.4566C52.4644 33.6812 52.4781 33.9058 52.4902 34.1319L52.493 34.1728C52.4961 34.2109 52.4978 34.2497 52.4998 34.2886L52.5167 34.6061C52.6109 36.3691 52.6586 38.1837 52.6586 39.9997C52.6592 42.1871 52.5892 44.374 52.4487 46.5569L52.4478 46.5728C52.4427 46.6566 52.4368 46.7404 52.4303 46.8241C52.4292 46.837 52.4283 46.8499 52.4277 46.8628C52.4234 46.938 52.4178 47.0133 52.4116 47.0976C52.3931 47.3683 52.373 47.6388 52.3512 47.9092C52.3423 48.0283 52.3334 48.1472 52.3225 48.2728C52.3086 48.4411 52.2941 48.607 52.2797 48.7734H27.7177ZM51.9519 51.8981C51.8117 53.0434 51.6486 54.1858 51.4627 55.3245C51.4338 55.5007 51.4039 55.6768 51.373 55.8526C51.1728 57.0297 50.9436 58.2016 50.6858 59.3673C50.6192 59.6701 50.5505 59.9723 50.4797 60.2741C50.3513 60.8205 50.2152 61.3651 50.0714 61.9077L50.0562 61.9645C46.5262 60.9264 42.8606 60.4003 39.1359 60.4003C35.999 60.399 32.8735 60.7784 29.828 61.5302L29.8244 61.5161C29.7184 61.1038 29.6166 60.6905 29.5187 60.2762C29.4483 59.9762 29.3794 59.6733 29.3116 59.3647C29.0533 58.1971 28.8239 57.0233 28.6234 55.8444C28.5928 55.6703 28.5639 55.4962 28.5355 55.3258C28.3494 54.1866 28.1862 53.0438 28.0459 51.8981H51.9519ZM27.902 29.3531C27.984 28.5922 28.0757 27.8323 28.1772 27.0737C28.2047 26.8695 28.2327 26.6666 28.2611 26.4655C28.3466 25.8617 28.4364 25.2733 28.5295 24.7084L28.635 24.0831C28.6609 23.932 28.6869 23.7814 28.715 23.6266L28.7927 23.1933C28.8409 22.9352 28.8891 22.6786 28.9361 22.4319C29.1205 21.4839 29.3248 20.5399 29.5487 19.6005C29.6031 19.3678 29.6591 19.1369 29.7164 18.9089L29.7211 18.89C29.7567 18.7483 29.793 18.6091 29.8289 18.4687C32.8742 19.2201 35.9994 19.5994 39.1361 19.5983C42.8611 19.5983 46.5269 19.0722 50.0566 18.0342C50.0683 18.0783 50.0798 18.1206 50.0916 18.1653C50.1544 18.4044 50.2156 18.6464 50.2742 18.8791L50.2816 18.9089C50.3389 19.1367 50.3948 19.3678 50.4509 19.6083C50.6739 20.5428 50.8771 21.4819 51.0605 22.425C51.1087 22.6786 51.1569 22.9352 51.203 23.1819L51.2838 23.6311C51.3111 23.7816 51.337 23.9322 51.363 24.0833L51.3991 24.2923C51.423 24.4298 51.4453 24.5677 51.4688 24.7109C51.5978 25.4977 51.7152 26.2863 51.8209 27.0766C51.8561 27.3347 51.8897 27.5944 51.9222 27.8594C51.9843 28.3568 52.0422 28.8548 52.0958 29.3533L27.902 29.3531ZM33.8088 8.18844C33.9602 7.93302 34.1166 7.68063 34.278 7.43141C34.3497 7.31891 34.4242 7.20812 34.4986 7.09875C34.5456 7.02969 34.5927 6.96062 34.6381 6.89516C34.776 6.69696 34.919 6.50237 35.0669 6.31156C35.1497 6.20156 35.2353 6.09437 35.328 5.98109C35.4705 5.80404 35.6182 5.63121 35.7709 5.46281C35.8627 5.36091 35.9562 5.26059 36.0514 5.16187C36.0952 5.11687 36.1375 5.07312 36.1803 5.03141L36.2408 4.97234C36.2694 4.94422 36.2978 4.91641 36.3267 4.88906L36.3431 4.87328C36.3866 4.83109 36.4298 4.79016 36.4741 4.74969C36.5227 4.70516 36.5727 4.66078 36.6213 4.61781L36.6395 4.60125C36.7716 4.48607 36.9071 4.37493 37.0459 4.26797C37.0948 4.22984 37.1439 4.19328 37.1927 4.15656C37.2258 4.13172 37.2586 4.1075 37.2917 4.08547L37.3164 4.06859C37.4233 3.99432 37.5321 3.92274 37.6427 3.85391C37.6662 3.83906 37.6906 3.82422 37.715 3.81031C37.7341 3.79937 37.753 3.78797 37.7716 3.77641C37.795 3.76156 37.8197 3.74797 37.8441 3.73406L37.8536 3.72859L37.8636 3.72312L37.8742 3.7175L37.9014 3.7025C37.9695 3.66406 38.0464 3.62406 38.1423 3.57719C38.2325 3.5338 38.3239 3.49284 38.4162 3.45437C38.5867 3.38256 38.7615 3.32161 38.9397 3.27187L38.9456 3.27016C38.9555 3.26734 38.9664 3.26484 38.9766 3.26219C39.036 3.24559 39.096 3.2311 39.1564 3.21875C39.1712 3.21547 39.1847 3.21219 39.2 3.20891L39.2302 3.20234C39.2529 3.19683 39.2758 3.19214 39.2989 3.18828L39.322 3.18453C39.411 3.16946 39.5004 3.1566 39.59 3.14594C39.6619 3.13828 39.7336 3.13437 39.8053 3.13109L39.8244 3.13016H39.8258C39.8753 3.12719 39.925 3.125 39.9745 3.125C39.9825 3.125 39.9902 3.12391 39.998 3.12375C40.0059 3.12391 40.0136 3.125 40.0214 3.125C40.0709 3.125 40.1206 3.12719 40.1702 3.13016H40.1716L40.1906 3.13109C40.2623 3.13437 40.3341 3.13828 40.3903 3.14422C40.4929 3.15602 40.5952 3.17072 40.697 3.18828C40.7202 3.19172 40.7439 3.19687 40.767 3.20219C40.8663 3.22309 40.965 3.24696 41.0628 3.27375C41.0983 3.28375 41.132 3.29375 41.1642 3.30359L41.1827 3.30922C41.3247 3.35453 41.4584 3.40344 41.5867 3.45719C41.6672 3.49047 41.7519 3.52844 41.8452 3.57297C41.9106 3.60578 41.9769 3.64109 42.0434 3.67641C42.0698 3.69047 42.095 3.70281 42.122 3.7175L42.1423 3.72828L42.1522 3.73391C42.1766 3.74781 42.2011 3.76141 42.2247 3.77625C42.2433 3.78797 42.2622 3.79937 42.2812 3.81016C42.3039 3.82312 42.3266 3.83703 42.3486 3.85078L42.3614 3.85875C42.4667 3.92422 42.5739 3.99484 42.6798 4.06844L42.7045 4.08531C42.7377 4.10734 42.7705 4.13156 42.8036 4.15641C42.8505 4.19156 42.8973 4.22672 42.9442 4.26312L42.9573 4.27312C43.0936 4.37822 43.2265 4.48744 43.3561 4.60062L43.375 4.61766C43.4236 4.66062 43.4736 4.705 43.5231 4.75047C43.5664 4.79 43.6097 4.83094 43.6531 4.87312L43.6695 4.88891C43.6986 4.91625 43.7269 4.94422 43.7555 4.97219L43.8152 5.03062C43.8589 5.07297 43.9012 5.11687 43.9389 5.15562C44.0348 5.25578 44.1308 5.35719 44.2323 5.47062C44.3851 5.63936 44.5328 5.81251 44.6755 5.98984C44.7668 6.10083 44.8558 6.21377 44.9423 6.32859C45.1359 6.57896 45.321 6.83577 45.4973 7.09859C45.5744 7.21187 45.65 7.32656 45.7247 7.44172C45.9768 7.83128 46.2167 8.22861 46.4441 8.63312C46.6042 8.91896 46.759 9.20776 46.9084 9.49937C47.2596 10.1845 47.5858 10.8821 47.8866 11.5908C48.0043 11.8703 48.1195 12.1508 48.2323 12.4323C48.3582 12.7487 48.4799 13.0667 48.5975 13.3862C48.6722 13.5862 48.7453 13.7894 48.817 13.9941L48.8223 14.0094C48.8692 14.1425 48.9159 14.2756 48.9581 14.3992L49.0711 14.7347C49.0975 14.8139 49.1239 14.8927 49.1494 14.9723C49.1527 14.9827 49.1559 14.9928 49.1595 15.0031C49.1633 15.0141 49.1667 15.0252 49.1703 15.0361C45.9275 15.9894 42.5588 16.4725 39.1345 16.4725C36.2744 16.4725 33.4405 16.1319 30.6877 15.4612C30.703 15.4159 30.7167 15.3714 30.7314 15.3256L30.7675 15.2133C30.79 15.1428 30.8125 15.0727 30.8362 15.0031C30.8398 14.993 30.8431 14.9827 30.8464 14.9723C30.8719 14.8927 30.8981 14.8141 30.9247 14.7347L31.0344 14.4087C31.0797 14.2756 31.1264 14.1425 31.1733 14.0094L31.1786 13.9941C31.2503 13.7894 31.3234 13.5864 31.4014 13.3773C31.503 13.0998 31.6147 12.8084 31.7608 12.4384C31.874 12.1556 31.9897 11.8737 32.108 11.593C32.563 10.5237 33.0486 9.52797 33.5506 8.63453C33.637 8.4825 33.7242 8.33172 33.8088 8.18844ZM18.7453 9.86109C18.8034 9.81984 18.8619 9.77937 18.9203 9.73844C19.1756 9.55948 19.433 9.38369 19.6927 9.21109C19.7172 9.19484 19.7414 9.17797 19.7659 9.16187C20.0411 8.98086 20.3187 8.8035 20.5986 8.62984C20.9407 8.4164 21.2864 8.20867 21.6355 8.00672C21.6719 7.98562 21.7087 7.96547 21.7453 7.94453C22.0032 7.79697 22.2628 7.65253 22.5242 7.51125C22.5875 7.47703 22.6508 7.44234 22.7142 7.40844C22.9967 7.25777 23.2812 7.11078 23.5675 6.9675C23.6295 6.93641 23.692 6.90625 23.7542 6.87562C24.0139 6.74766 24.2748 6.6225 24.5372 6.50094C24.5842 6.47906 24.6311 6.45656 24.6781 6.43484C24.9694 6.30141 25.2625 6.17266 25.5567 6.04719C25.6295 6.01609 25.7027 5.98547 25.7756 5.95484C26.0742 5.82923 26.3745 5.7076 26.6764 5.59C26.6969 5.58203 26.7175 5.57469 26.738 5.56687C27.0265 5.45593 27.3165 5.34874 27.6078 5.24531C27.6803 5.21953 27.7528 5.19344 27.8255 5.16812C28.1263 5.06297 28.4285 4.96171 28.732 4.86437C28.7905 4.84578 28.8491 4.82812 28.9077 4.80969C29.1805 4.72402 29.4543 4.64157 29.7291 4.56234C29.7894 4.545 29.8495 4.52687 29.91 4.50984C30.29 4.40275 30.6718 4.30191 31.0552 4.20734C31.3556 4.13297 31.6569 4.06141 31.9595 3.99469C31.9823 3.98969 32.0052 3.98406 32.028 3.97906C32.3865 3.90122 32.7463 3.82877 33.107 3.76172C33.0372 3.84453 32.9684 3.92781 32.9014 4.01094C32.7904 4.146 32.6821 4.28322 32.5764 4.4225C32.4939 4.52922 32.4103 4.64 32.3262 4.75469C32.1847 4.94785 32.047 5.14378 31.9131 5.34234C31.8216 5.47703 31.7302 5.61344 31.6488 5.74141C31.3606 6.18643 31.0865 6.64041 30.8269 7.10266C30.2683 8.09656 29.7317 9.19578 29.2325 10.3691C28.9627 11.0046 28.7084 11.6465 28.4698 12.2944C28.3858 12.5199 28.304 12.7462 28.2247 12.9734C28.1745 13.1162 28.1242 13.2591 28.0725 13.4114L27.9605 13.7442C27.9311 13.8317 27.902 13.9189 27.8739 14.0067C27.8455 14.0909 27.8178 14.1754 27.7909 14.2602L27.7566 14.367C27.7325 14.442 27.7098 14.515 27.6864 14.5891C24.4536 13.4931 21.3975 11.9323 18.6144 9.95578C18.6588 9.92453 18.7017 9.89203 18.7453 9.86109ZM13.9308 13.9203C14.4419 13.4087 14.9679 12.9123 15.5081 12.4316C15.6892 12.2711 15.8718 12.1124 16.0558 11.9553C19.3436 14.4077 22.9559 16.2987 26.8266 17.5948C26.7809 17.7717 26.7353 17.9483 26.6903 18.1273L28.2056 18.5086L26.6856 18.1459C26.6241 18.3905 26.5647 18.6356 26.5073 18.8812C26.2733 19.8631 26.0599 20.8497 25.8672 21.8405C25.8171 22.1039 25.7675 22.3675 25.7184 22.6311L25.6394 23.0714C25.6104 23.2319 25.5822 23.3925 25.5548 23.5533L25.5197 23.7567L25.5183 23.7648L25.5169 23.7728L25.4452 24.2027C25.3114 25.0182 25.1897 25.8356 25.08 26.6547C25.0431 26.926 25.008 27.1975 24.9745 27.4692C24.8959 28.0963 24.8238 28.7241 24.7581 29.3527H4.68016C6.41656 23.5517 9.56203 18.2855 13.9308 13.9203ZM15.5105 67.5703C14.9698 67.0885 14.4431 66.5913 13.9309 66.0794C6.96234 59.1158 3.12484 49.8537 3.12484 39.9992C3.12484 38.0837 3.27297 36.1623 3.56531 34.2875C3.65969 33.6797 3.77031 33.0769 3.89375 32.4781H24.4827C24.4717 32.6283 24.4614 32.7769 24.452 32.9211C24.4436 33.0339 24.4369 33.1452 24.4308 33.2458L24.4286 33.2806C24.4137 33.506 24.3995 33.7315 24.3859 33.957L24.3847 33.9775C24.38 34.0573 24.3755 34.1361 24.3722 34.2161L24.3603 34.4391C24.2631 36.2572 24.2139 38.128 24.2139 39.9992C24.2139 41.8705 24.2631 43.7412 24.3602 45.5566C24.3809 45.9575 24.4047 46.3586 24.4302 46.7573L24.4312 46.7731C24.4373 46.8672 24.4434 46.9622 24.4508 47.0564L24.4527 47.0866L24.4652 47.2894C24.4858 47.5738 24.5073 47.8581 24.5297 48.1423C24.5395 48.2739 24.5495 48.4055 24.5605 48.5305C24.5672 48.6117 24.5744 48.692 24.5812 48.7731H15.1784C14.3155 48.7731 13.6159 49.4727 13.6159 50.3356C13.6159 51.1986 14.3155 51.8981 15.1784 51.8981H24.8973L24.9066 51.9781C25.0605 53.2679 25.2425 54.5542 25.4523 55.8361C25.4828 56.0191 25.5134 56.202 25.5441 56.377C25.7526 57.6032 25.9913 58.8241 26.26 60.0386C26.3305 60.3589 26.4027 60.6761 26.4769 60.9923C26.5881 61.464 26.7045 61.9345 26.8262 62.4036C22.9561 63.6995 19.3441 65.5908 16.0566 68.0425C15.8733 67.8861 15.6894 67.7294 15.5105 67.5703ZM32.993 76.2142C32.67 76.1533 32.3488 76.0891 32.0292 76.0192C32.0061 76.0142 31.9833 76.0086 31.9603 76.0034C31.6566 75.9364 31.3541 75.8647 31.0525 75.79C30.9817 75.7725 30.9109 75.7551 30.8405 75.7373C30.5284 75.6582 30.2175 75.5749 29.9077 75.4875C29.8505 75.4714 29.7936 75.4542 29.7366 75.4378C29.4562 75.3571 29.1768 75.273 28.8984 75.1855C28.8447 75.1686 28.7908 75.1523 28.7372 75.1353C28.4302 75.037 28.1246 74.9346 27.8203 74.8281C27.7522 74.8044 27.6841 74.78 27.6161 74.7558C27.3154 74.6491 27.0161 74.5385 26.7183 74.4239C26.7061 74.4192 26.6937 74.4148 26.6816 74.41C26.3753 74.2908 26.0707 74.1675 25.7678 74.04C25.6997 74.0114 25.6317 73.983 25.5638 73.9539C25.2652 73.8269 24.9683 73.6959 24.6733 73.5609C24.632 73.542 24.5911 73.5222 24.5498 73.5031C24.2795 73.3778 24.0108 73.2492 23.7436 73.1173C23.6869 73.0894 23.6298 73.0619 23.5731 73.0334C23.283 72.8884 22.9949 72.7395 22.7089 72.5867C22.6498 72.5551 22.5912 72.523 22.5325 72.4912C22.2638 72.3461 21.9969 72.1976 21.7319 72.0458C21.7013 72.0283 21.6703 72.0112 21.6398 71.9936C21.2911 71.7918 20.9457 71.5843 20.6038 71.3711C20.3213 71.1959 20.0413 71.017 19.7638 70.8342C19.7427 70.8203 19.7217 70.8058 19.7006 70.7917C19.4373 70.6168 19.1763 70.4386 18.9175 70.257C18.8609 70.2173 18.8042 70.1781 18.7478 70.1381C18.7038 70.1069 18.6605 70.0739 18.6164 70.0425C21.3993 68.0659 24.4552 66.5051 27.688 65.4092C27.7183 65.5045 27.7478 65.5969 27.7772 65.6869C27.8266 65.8433 27.8777 65.9981 27.9287 66.1528C27.9466 66.2092 27.9658 66.2658 27.9852 66.3222C28.0244 66.4411 28.0652 66.5587 28.107 66.6794C28.1486 66.8009 28.1903 66.9225 28.2309 67.037C28.3082 67.2581 28.3878 67.4784 28.4695 67.6978C28.7121 68.3569 28.9713 69.0098 29.247 69.6558C29.6116 70.5114 29.9902 71.3161 30.365 72.0345C30.4147 72.132 30.4658 72.2276 30.5142 72.3181C30.6121 72.5042 30.7129 72.6886 30.8167 72.8714C30.9093 73.0367 31.0035 73.201 31.0995 73.3644C31.1144 73.3919 31.1298 73.4187 31.1459 73.4448C31.2781 73.6681 31.4143 73.8889 31.5545 74.1072C31.5652 74.1244 31.5761 74.1416 31.587 74.1587L31.5978 74.1758C31.6039 74.1856 31.61 74.1953 31.6162 74.2048L31.617 74.2061L31.6203 74.2114C31.6759 74.2969 31.7298 74.3786 31.7831 74.4587C31.813 74.5036 31.8433 74.5492 31.8742 74.595C31.9433 74.6975 32.0112 74.7967 32.0788 74.8936C32.1872 75.049 32.2983 75.2027 32.4119 75.3544C32.4952 75.4677 32.5802 75.5798 32.667 75.6905C32.7528 75.8003 32.8389 75.9084 32.9309 76.0208L32.983 76.0839C33.0222 76.1317 33.0612 76.1792 33.0939 76.2175L33.1095 76.2361L32.993 76.2142ZM46.7197 70.8619C46.6341 71.0245 46.5459 71.1857 46.4552 71.3455C46.3669 71.503 46.2769 71.6595 46.1852 71.815C46.1766 71.8294 46.1682 71.844 46.1602 71.8587C46.0424 72.0551 45.9221 72.2498 45.7992 72.443L45.7958 72.4484L45.7887 72.4598L45.7552 72.5133C45.6261 72.7123 45.4938 72.9092 45.3584 73.1039C45.2685 73.2328 45.1764 73.3602 45.0822 73.4859C45.0775 73.492 45.073 73.4984 45.0684 73.5047C45.0011 73.5975 44.9317 73.6888 44.8603 73.7786C44.7941 73.8652 44.7248 73.9505 44.6634 74.0255L44.6003 74.1022C44.479 74.2505 44.354 74.3956 44.2253 74.5375C44.0891 74.6897 43.9514 74.8344 43.8097 74.9747C43.7394 75.0437 43.6691 75.1128 43.5863 75.1895C43.5124 75.259 43.4374 75.3272 43.3614 75.3942L43.3205 75.4295C43.292 75.4541 43.2641 75.4786 43.2264 75.5097C43.0892 75.6248 42.9484 75.7354 42.8041 75.8414C42.7629 75.872 42.7211 75.9018 42.6787 75.9308L42.6727 75.9352L42.6666 75.9394C42.5338 76.0329 42.3972 76.121 42.2572 76.2034C42.2483 76.2087 42.2395 76.2141 42.2308 76.2195C42.2098 76.2325 42.1889 76.2445 42.168 76.2551C42.1433 76.2678 42.1189 76.2812 42.0948 76.2952C42.0585 76.3161 42.0216 76.3361 41.9842 76.355C41.7711 76.4676 41.5497 76.5639 41.322 76.6431C41.2283 76.6751 41.1445 76.7014 41.0662 76.7234L40.9041 76.7656C40.8664 76.7744 40.8294 76.783 40.7923 76.7908L40.7619 76.7975C40.7398 76.8025 40.7175 76.8066 40.6952 76.81L40.6719 76.8137C40.5797 76.8294 40.4872 76.8425 40.3961 76.8531C40.323 76.8605 40.2566 76.8655 40.193 76.8687C40.177 76.8695 40.1633 76.8706 40.1464 76.8712L40.1431 76.8714C40.1327 76.8718 40.1223 76.8721 40.1119 76.8722C40.0892 76.8724 40.0665 76.8732 40.0439 76.8748L39.9686 76.8756C39.9548 76.8747 39.9412 76.8748 39.9275 76.8742C39.9135 76.8735 39.8995 76.873 39.8855 76.8727L39.8803 76.8723L39.8484 76.8712C39.8356 76.8708 39.8253 76.87 39.8133 76.8694C39.7428 76.8658 39.6724 76.8605 39.6022 76.8534C39.51 76.8427 39.4178 76.8295 39.3258 76.8139L39.3025 76.8102C39.2801 76.8069 39.2578 76.8027 39.2358 76.7977C39.1882 76.7877 39.1408 76.777 39.0936 76.7658L38.9317 76.7236C38.8458 76.6993 38.7606 76.6726 38.6763 76.6434C38.4445 76.5625 38.2191 76.4642 38.0022 76.3492C37.9686 76.3321 37.9356 76.3142 37.903 76.2953C37.879 76.2813 37.8546 76.2679 37.8298 76.2553C37.8084 76.2443 37.7875 76.2324 37.767 76.2197C37.6137 76.1299 37.4642 76.0335 37.3192 75.9308C37.2752 75.9005 37.2317 75.8695 37.1888 75.8376C37.1419 75.8028 37.0947 75.768 37.047 75.7311C36.9506 75.6569 36.8558 75.5806 36.7627 75.5023C36.7339 75.4786 36.7058 75.4541 36.6775 75.4295L36.6523 75.408L36.6378 75.3953L36.6356 75.3934C36.6352 75.3932 36.6348 75.3928 36.6345 75.3923L36.6241 75.3828C36.5485 75.3161 36.474 75.2481 36.4006 75.1791C36.3289 75.1128 36.2586 75.0436 36.1933 74.9797C36.0465 74.8342 35.9041 74.6844 35.7664 74.5303C35.64 74.3906 35.5171 74.2478 35.3978 74.102L35.3409 74.033C35.2668 73.9422 35.1938 73.8506 35.1219 73.7581C35.0548 73.6736 34.9892 73.5848 34.9192 73.4906C34.6852 73.171 34.4596 72.8452 34.2428 72.5136L34.2317 72.4959L34.2098 72.4611L34.1991 72.4439L34.1956 72.4384C34.0739 72.2469 33.9546 72.0537 33.8378 71.8591C33.8297 71.8443 33.8214 71.8298 33.8128 71.8153C33.7192 71.6567 33.6274 71.4971 33.5375 71.3364C33.4461 71.1755 33.3573 71.0131 33.2712 70.8492C33.23 70.7722 33.1886 70.695 33.1416 70.6028C32.7972 69.943 32.4537 69.2123 32.1209 68.4311C31.865 67.8309 31.6242 67.2244 31.3989 66.612C31.3242 66.412 31.2511 66.2089 31.1769 65.9972C31.1378 65.8876 31.1005 65.7781 31.063 65.6684L31.057 65.6511C31.0208 65.5466 30.9842 65.4417 30.9494 65.3355L30.9427 65.3156C30.9303 65.2797 30.9178 65.2441 30.9066 65.2081L30.8988 65.1839C30.8506 65.0383 30.8027 64.8925 30.752 64.7328C30.7312 64.6691 30.7103 64.6033 30.6892 64.5375C33.4544 63.8645 36.2902 63.525 39.1361 63.5261C42.56 63.5261 45.9283 64.0091 49.1712 64.9625C49.1472 65.0362 49.1234 65.1105 49.0992 65.1841C49.097 65.1917 49.0945 65.1998 49.0919 65.2078C49.0806 65.2437 49.0681 65.2794 49.0558 65.3153L49.0491 65.3352C49.0142 65.4412 48.9777 65.5461 48.9414 65.6508L48.9355 65.6681C48.898 65.7778 48.8606 65.8873 48.8191 66.0041C48.7473 66.2087 48.6742 66.4117 48.5973 66.618C48.3728 67.2283 48.1327 67.8328 47.8775 68.4309C47.6381 68.9945 47.3828 69.5512 47.1119 70.1003C47.0263 70.2731 46.939 70.4451 46.8498 70.6161C46.8092 70.6947 46.768 70.7719 46.7197 70.8619ZM60.4456 70.6914C60.4055 70.7183 60.365 70.7442 60.3248 70.7709C60.0937 70.9242 59.8608 71.0748 59.6263 71.2228C59.5713 71.2575 59.5166 71.2926 59.4616 71.327C59.2022 71.489 58.9408 71.6477 58.6773 71.803C58.6217 71.8358 58.5656 71.868 58.5098 71.9006C58.2717 72.0395 58.0323 72.1756 57.7916 72.3089C57.7492 72.3323 57.7072 72.3564 57.6648 72.3795C57.3968 72.5262 57.1268 72.6696 56.8552 72.8095C56.7914 72.8425 56.7273 72.8748 56.6634 72.9075C56.3967 73.0431 56.1291 73.1764 55.8595 73.3052L55.8222 73.3233C55.4776 73.487 55.1306 73.6453 54.7811 73.7983C54.5014 73.9213 54.2202 74.0408 53.9375 74.1567C53.9031 74.1708 53.8686 74.1841 53.8342 74.198C53.5751 74.3028 53.3147 74.4047 53.0533 74.5036C52.9894 74.5278 52.9255 74.5523 52.8614 74.5761C52.578 74.6817 52.2933 74.7839 52.0072 74.8823C51.9513 74.9016 51.8948 74.92 51.8388 74.9391C51.5833 75.0255 51.3269 75.1092 51.0695 75.19C51.0152 75.207 50.9609 75.2247 50.9066 75.2416C50.6175 75.3306 50.3273 75.4161 50.0361 75.498C49.9686 75.517 49.9009 75.5353 49.8334 75.5539C49.5611 75.6289 49.2881 75.7012 49.0139 75.7698C48.982 75.7778 48.9505 75.7864 48.9186 75.7942C48.5496 75.8851 48.1792 75.9703 47.8075 76.0497C47.5077 76.1141 47.2072 76.1758 46.9055 76.2327L46.8903 76.2353L46.898 76.2261C46.9377 76.1792 46.9769 76.1319 47.0161 76.0839L47.0742 76.0133C47.1621 75.9066 47.2484 75.7985 47.333 75.6892C47.4205 75.5783 47.506 75.4657 47.5892 75.3516C47.7006 75.2027 47.8105 75.0506 47.9212 74.892C47.9881 74.7961 48.0558 74.6972 48.1247 74.595C48.1556 74.5492 48.1859 74.5036 48.2158 74.4587C48.2691 74.3786 48.323 74.2969 48.3786 74.2114C48.3847 74.202 48.3948 74.1859 48.4006 74.1764L48.4119 74.1587C48.4228 74.1416 48.4338 74.1244 48.4444 74.1072C48.5928 73.8756 48.7267 73.6584 48.853 73.4448C48.8689 73.4187 48.8844 73.392 48.8991 73.3645C48.9933 73.2043 49.0859 73.0431 49.1767 72.8809C49.2814 72.6968 49.3831 72.5109 49.4817 72.3234C49.531 72.2322 49.5793 72.1405 49.6266 72.0483C50.0084 71.3164 50.387 70.5116 50.7514 69.6561C51.0263 69.012 51.2848 68.3611 51.5266 67.7039C51.6083 67.4848 51.6878 67.2648 51.7648 67.0441C51.8081 66.9225 51.8497 66.8009 51.8925 66.6758C51.9333 66.5584 51.9741 66.4409 52.0131 66.322C52.0325 66.2656 52.0517 66.2091 52.0695 66.1526C52.0889 66.0934 52.1084 66.0343 52.128 65.9752C55.1178 67.1468 57.9336 68.7214 60.4972 70.6553C60.4802 70.6673 60.4631 70.6797 60.4456 70.6914ZM66.07 66.0781C65.5568 66.5898 65.0295 67.0871 64.4886 67.5694C64.0399 67.9677 63.5814 68.3548 63.1134 68.7303C60.0427 66.2991 56.6581 64.3675 53.0217 62.9706C53.0355 62.9192 53.0497 62.8684 53.0636 62.8167L53.0916 62.7123C53.2425 62.1402 53.386 61.5661 53.522 60.9902C53.5956 60.6761 53.6678 60.3589 53.7377 60.0411C54.0057 58.8293 54.244 57.611 54.4523 56.3875C54.4847 56.2045 54.5155 56.0202 54.5464 55.8327C54.7562 54.5509 54.938 53.2647 55.0919 51.975L55.1008 51.8981H74.9133C73.1075 57.2109 70.1038 62.0456 66.07 66.0781ZM76.2269 46.9123C76.1082 47.536 75.9735 48.1564 75.8228 48.7731H55.4163C55.4228 48.6945 55.43 48.6148 55.4364 48.537C55.4478 48.4055 55.4578 48.2739 55.467 48.1508C55.4809 47.9781 55.4939 47.8055 55.5064 47.6337C55.5142 47.5286 55.5227 47.4242 55.5305 47.3184C55.5312 47.3087 55.5319 47.2991 55.5323 47.2892L55.5461 47.068L55.5469 47.0562C55.5542 46.9622 55.5605 46.867 55.5664 46.773L55.5675 46.7562C55.593 46.3584 55.6167 45.9573 55.6373 45.5591C55.7345 43.7409 55.7837 41.8702 55.7837 39.9989C55.7837 38.1277 55.7345 36.2569 55.6369 34.4295L55.6256 34.2156C55.6222 34.1361 55.618 34.0565 55.6131 33.977L55.6117 33.9533C55.5979 33.7214 55.5833 33.4895 55.568 33.2577C55.5613 33.1448 55.5544 33.0336 55.547 32.9353C55.537 32.7828 55.5265 32.6303 55.5153 32.4778H64.8194C65.6823 32.4778 66.3819 31.7783 66.3819 30.9153C66.3819 30.0523 65.6823 29.3528 64.8194 29.3528H55.2394C55.1738 28.7256 55.1018 28.099 55.0234 27.4733C54.99 27.2011 54.9548 26.9291 54.9178 26.6573C54.788 25.688 54.6413 24.721 54.4778 23.7567L54.4427 23.5533C54.4155 23.394 54.3876 23.2348 54.3589 23.0758L54.2769 22.6195C54.228 22.3578 54.1792 22.0975 54.1289 21.8336C53.9371 20.8477 53.7247 19.866 53.4919 18.8891C53.4334 18.6391 53.3734 18.3909 53.3145 18.157L53.3072 18.1273C53.244 17.8744 53.1793 17.6218 53.1133 17.3695C53.0825 17.253 53.0522 17.1403 53.0219 17.0275C56.6594 15.6302 60.0428 13.6987 63.1112 11.2684C63.5798 11.645 64.0392 12.0329 64.4891 12.4316C65.0295 12.9124 65.5557 13.409 66.067 13.9208C73.0355 20.8831 76.873 30.1445 76.873 39.9995C76.873 42.3209 76.6555 44.6472 76.2269 46.9123Z" fill="black"/>
<path id="Vector_2" d="M72.7727 30.6101C72.7539 30.5101 72.7227 30.4116 72.6836 30.3179C72.6445 30.2241 72.5961 30.1335 72.5398 30.0476C72.4836 29.9632 72.418 29.8835 72.3461 29.8101C72.2738 29.7375 72.1942 29.6726 72.1086 29.6163C72.0235 29.5595 71.9329 29.5114 71.8383 29.4726C71.7445 29.4335 71.6461 29.4038 71.5461 29.3835C71.345 29.3429 71.1378 29.3429 70.9367 29.3835C70.8367 29.4038 70.7383 29.4335 70.6445 29.4726C70.5492 29.5116 70.4586 29.5601 70.3742 29.6163C70.2883 29.6726 70.2086 29.7382 70.1367 29.8101C70.0648 29.8835 69.9992 29.9632 69.943 30.0476C69.8867 30.1335 69.8383 30.2241 69.7992 30.3179C69.7602 30.4116 69.7289 30.5101 69.7102 30.6101C69.6898 30.7116 69.6789 30.8132 69.6789 30.9163C69.6789 31.0179 69.6898 31.1194 69.7102 31.221C69.7289 31.321 69.7602 31.4194 69.7992 31.5132C69.8383 31.6069 69.8867 31.6976 69.943 31.7819C69.9992 31.8679 70.0648 31.9476 70.1367 32.021C70.2088 32.0929 70.2883 32.1569 70.3742 32.2147C70.4586 32.271 70.5492 32.3194 70.6445 32.3585C70.8336 32.4375 71.0365 32.4778 71.2414 32.4772C71.4463 32.4778 71.6492 32.4375 71.8383 32.3585C71.9329 32.3197 72.0235 32.2715 72.1086 32.2147C72.1945 32.1569 72.2742 32.0929 72.3461 32.021C72.418 31.9476 72.4836 31.8679 72.5398 31.7819C72.5961 31.6976 72.6445 31.6069 72.6836 31.5132C72.7227 31.4194 72.7539 31.321 72.7727 31.221C72.793 31.1194 72.8039 31.0179 72.8039 30.9163C72.8039 30.8132 72.793 30.7118 72.7727 30.6101ZM10.2891 50.0312C10.2703 49.9312 10.2391 49.8327 10.2 49.739C10.1612 49.6443 10.113 49.5538 10.0563 49.4687C9.99997 49.3831 9.93505 49.3035 9.8625 49.2312C9.79018 49.1586 9.71059 49.0937 9.625 49.0374C9.53989 48.9806 9.44934 48.9325 9.35469 48.8937C9.26094 48.8546 9.1625 48.8249 9.0625 48.8046C8.86141 48.764 8.65422 48.764 8.45312 48.8046C8.35312 48.8249 8.25469 48.8546 8.16094 48.8937C8.06563 48.9327 7.975 48.9812 7.89063 49.0374C7.80469 49.0937 7.725 49.1593 7.65313 49.2312C7.58125 49.303 7.51563 49.3827 7.45938 49.4687C7.40313 49.5529 7.35469 49.6437 7.31563 49.739C7.27656 49.8327 7.24531 49.9312 7.22656 50.0312C7.20625 50.1312 7.19531 50.2343 7.19531 50.3358C7.19531 50.4374 7.20625 50.5405 7.22656 50.6405C7.24531 50.7405 7.27656 50.839 7.31563 50.9343C7.35469 51.028 7.40297 51.1187 7.45938 51.203C7.51563 51.289 7.58125 51.3687 7.65313 51.4405C7.725 51.5124 7.80469 51.578 7.89063 51.6343C7.975 51.6905 8.06563 51.739 8.16094 51.778C8.25469 51.8171 8.35312 51.8483 8.45312 51.8687C8.55312 51.8874 8.65625 51.8983 8.75781 51.8983C9.16875 51.8983 9.57187 51.7312 9.8625 51.4405C9.93438 51.3687 10 51.289 10.0563 51.203C10.1125 51.1187 10.1609 51.028 10.2 50.9343C10.2391 50.839 10.2703 50.7405 10.2891 50.6405C10.3094 50.5405 10.3203 50.4374 10.3203 50.3358C10.3203 50.2343 10.3094 50.1312 10.2891 50.0312Z" fill="black"/>
</g>
<circle id="Ellipse 2" cx="57.5" cy="62.5" r="17.5" fill="white"/>
<g id="Group 3">
<path id="Vector_3" d="M66.1983 53.8018C61.1293 48.7327 52.8815 48.7327 47.8126 53.8018C43.6151 57.9992 42.7894 64.4962 45.8051 69.6011C46.0948 70.0918 46.7275 70.2545 47.2182 69.9647C47.7088 69.6749 47.8716 69.0422 47.5818 68.5516C45.0453 64.2578 45.7402 58.7923 49.2716 55.261C53.536 50.9965 60.4746 50.9965 64.7389 55.261C69.0034 59.5253 69.0034 66.464 64.7389 70.7282C61.2074 74.2597 55.7421 74.9546 51.4483 72.4181C50.9579 72.1283 50.3251 72.291 50.0352 72.7817C49.7453 73.2722 49.9082 73.905 50.3987 74.1948C52.3968 75.3771 54.6759 76.0005 56.9976 75.9998C60.3602 75.9998 63.6899 74.6955 66.1982 72.1874C71.2673 67.1186 71.2673 58.8708 66.1983 53.8018Z" fill="#33CCCC"/>
<path id="Vector_4" d="M49.272 70.7284L49.2634 70.7198C48.8604 70.3169 48.207 70.3168 47.8041 70.7198C47.4012 71.1228 47.4012 71.7762 47.8041 72.179L47.8127 72.1876C47.9084 72.2836 48.0221 72.3597 48.1473 72.4115C48.2725 72.4634 48.4067 72.49 48.5422 72.4898C48.8063 72.4898 49.0704 72.3891 49.272 72.1876C49.675 71.7847 49.675 71.1313 49.272 70.7284ZM65.2174 57.622C64.8145 57.219 64.1611 57.2191 63.7582 57.622L55.2019 66.1786L50.253 61.2295C49.8501 60.8266 49.1967 60.8267 48.7939 61.2295C48.391 61.6324 48.391 62.2858 48.7939 62.6887L54.4724 68.3673C54.6659 68.5608 54.9283 68.6694 55.2019 68.6694C55.4755 68.6694 55.7379 68.5608 55.9315 68.3673L65.2174 59.0811C65.6204 58.6783 65.6203 58.0251 65.2174 57.622Z" fill="#33CCCC"/>
</g>
</g>
<defs>
<clipPath id="clip0_72_32">
<rect width="80" height="80" fill="white"/>
</clipPath>
</defs>
</svg>
