<svg width="80" height="80" viewBox="0 0 80 80" fill="none" xmlns="http://www.w3.org/2000/svg">
<g id="Frame" clip-path="url(#clip0_72_85)">
<g id="Group">
<g id="Vector">
<path fill-rule="evenodd" clip-rule="evenodd" d="M69.3147 4.47641L79.3028 11.1178C79.5173 11.2604 79.6933 11.4538 79.815 11.6808C79.9367 11.9078 80.0004 12.1614 80.0004 12.419C80.0005 12.6766 79.9368 12.9302 79.8151 13.1572C79.6934 13.3843 79.5175 13.5777 79.303 13.7203L69.3148 20.3617C69.0795 20.5184 68.806 20.6082 68.5236 20.6216C68.2411 20.6351 67.9604 20.5717 67.7112 20.4381C67.462 20.3046 67.2537 20.1059 67.1085 19.8633C66.9633 19.6207 66.8866 19.3432 66.8867 19.0605V17.7322H51.2469C50.3841 17.7322 49.6842 17.0325 49.6842 16.1695C49.6842 15.3066 50.3839 14.6069 51.2469 14.6069H68.4494C69.3042 14.6069 69.9988 15.2933 70.0119 16.145L75.6152 12.4191L70.0119 8.69312C69.9988 9.54484 69.3044 10.2312 68.4494 10.2312H44.4231C43.5602 10.2312 42.8605 9.53172 42.8605 8.66859C42.8605 7.80547 43.5602 7.10594 44.4231 7.10594H66.8867V5.77766C66.8868 5.49499 66.9635 5.21762 67.1087 4.9751C67.2539 4.73257 67.4622 4.53397 67.7113 4.40044C67.9604 4.26692 68.2411 4.20346 68.5235 4.21684C68.8058 4.23022 69.0793 4.31992 69.3147 4.47641ZM44.4227 14.6069C44.8336 14.6069 45.2369 14.7741 45.5273 15.0647C45.8195 15.3553 45.9853 15.7586 45.9853 16.1695C45.9853 16.5805 45.8195 16.9837 45.5273 17.2744C45.2369 17.5648 44.8337 17.7322 44.4227 17.7322C44.0116 17.7322 43.61 17.565 43.3178 17.2744C43.0272 16.9837 42.86 16.5806 42.86 16.1695C42.86 15.7584 43.027 15.3553 43.3178 15.0647C43.6084 14.7741 44.0117 14.6069 44.4227 14.6069ZM54.4114 34.2184H78.4375C79.3005 34.2184 80.0002 34.918 80.0005 35.7811C80.0005 36.6442 79.3008 37.3437 78.4378 37.3437H55.9742V38.672C55.9742 38.9547 55.8975 39.2321 55.7523 39.4747C55.6071 39.7172 55.3989 39.9158 55.1497 40.0494C54.9005 40.183 54.6198 40.2465 54.3374 40.2331C54.055 40.2197 53.7815 40.1299 53.5461 39.9733L43.558 33.3319C43.3434 33.1893 43.1675 32.9959 43.0458 32.7688C42.9241 32.5418 42.8604 32.2882 42.8604 32.0306C42.8604 31.773 42.9241 31.5194 43.0458 31.2924C43.1675 31.0654 43.3434 30.872 43.558 30.7294L53.5461 24.088C53.7815 23.9314 54.0549 23.8416 54.3373 23.8281C54.6197 23.8147 54.9005 23.8782 55.1497 24.0117C55.3988 24.1452 55.6071 24.3439 55.7523 24.5865C55.8975 24.8291 55.9741 25.1065 55.9741 25.3892V26.7175H78.4377C79.3005 26.7175 80.0003 27.4172 80.0003 28.2802C80.0003 29.1431 79.3006 29.8428 78.4377 29.8428H54.4114C53.5566 29.8428 52.862 29.1564 52.8489 28.3047L47.2456 32.0306L52.8489 35.7566C52.862 34.9048 53.5564 34.2184 54.4114 34.2184Z" fill="#33CCCC"/>
<path d="M26.183 52.7845C25.8925 52.4939 25.4892 52.3267 25.0783 52.3267C24.6673 52.3267 24.2641 52.4939 23.9734 52.7845C23.6811 53.0787 23.5166 53.4762 23.5156 53.8909C23.5156 54.3019 23.6828 54.7036 23.9734 54.9958C24.2641 55.2864 24.6673 55.452 25.0783 55.452C25.4892 55.452 25.8909 55.2864 26.183 54.9958C26.4748 54.7019 26.6393 54.3051 26.6409 53.8909C26.6409 53.4783 26.4736 53.0752 26.183 52.7845Z" fill="black"/>
</g>
<path id="Vector_2" d="M69.3694 56.856L58.5273 46.0141C57.1136 44.6004 55.2339 43.8216 53.2344 43.8216C51.2348 43.8216 49.3552 44.6004 47.9414 46.0141L45.4689 48.4866C44.2947 49.6608 42.3845 49.6608 41.2103 48.4866L27.2902 34.5665C26.7212 33.9977 26.4078 33.2415 26.4078 32.4371C26.4078 31.6327 26.7211 30.8766 27.2902 30.3077L29.7627 27.8352C32.6811 24.9168 32.6811 20.1679 29.7627 17.2493L18.9206 6.4071C17.5067 4.99335 15.627 4.2146 13.6277 4.2146C11.6283 4.2146 9.74844 4.99335 8.33469 6.4071L5.74031 9.00132C-1.91344 16.6552 -1.91344 29.1087 5.74031 36.7624L20.2286 51.2505C20.8389 51.8607 21.8281 51.8607 22.4387 51.2505C23.0489 50.6404 23.0489 49.6508 22.4387 49.0405L7.95047 34.5524C1.85922 28.4615 1.53469 18.7555 6.97437 12.2779L18.4694 23.7726C18.6143 23.9179 18.7866 24.0331 18.9762 24.1117C19.1658 24.1902 19.3691 24.2305 19.5744 24.2302C19.7796 24.2305 19.9829 24.1902 20.1725 24.1117C20.3622 24.0331 20.5344 23.9179 20.6794 23.7726C21.2895 23.1624 21.2895 22.1729 20.6794 21.5624L9.13906 10.0226L10.5445 8.6171C11.3681 7.79351 12.4627 7.34007 13.6275 7.34007C14.792 7.34007 15.887 7.79351 16.7105 8.6171L27.5525 19.459C29.2523 21.159 29.2523 23.9251 27.5525 25.6251L25.0802 28.0976C23.9209 29.2566 23.2825 30.7977 23.2825 32.4369C23.2825 34.0762 23.9209 35.6173 25.08 36.7763L39.0002 50.6965C40.1592 51.8555 41.7003 52.4938 43.3395 52.4938C44.4248 52.4938 45.4664 52.2124 46.3833 51.6868L57.8537 63.1572C58.1589 63.4624 58.5589 63.6149 58.9587 63.6149C59.3586 63.6149 59.7586 63.4624 60.0637 63.1572C60.6739 62.5471 60.6739 61.5576 60.0637 60.9471L48.7458 49.6291L50.1512 48.2237C50.9748 47.4001 52.0695 46.9466 53.2342 46.9466C54.3989 46.9466 55.4937 47.4001 56.3172 48.2237L67.1592 59.0657C68.8592 60.7655 68.8592 63.5316 67.1592 65.2316L64.5648 67.8258C61.4477 70.943 57.303 72.6601 52.8942 72.6601C48.4856 72.6601 44.3411 70.9433 41.2236 67.8258L30.4078 57.0101C29.7975 56.3999 28.8083 56.3999 28.1977 57.0101C27.5875 57.6202 27.5875 58.6098 28.1977 59.2202L39.0134 70.036C42.7212 73.7437 47.6505 75.7854 52.8939 75.7854C58.1373 75.7854 63.0669 73.7435 66.7744 70.036L69.3687 67.4418C72.2878 64.5232 72.2878 59.7746 69.3694 56.856Z" fill="black"/>
</g>
</g>
<defs>
<clipPath id="clip0_72_85">
<rect width="80" height="80" fill="white"/>
</clipPath>
</defs>
</svg>
