<svg width="40" height="40" viewBox="0 0 40 40" fill="none" xmlns="http://www.w3.org/2000/svg">
<g id="basil:skype-outline">
<path id="Vector" d="M22.0073 18.7884C22.6307 18.9718 23.224 19.2451 23.769 19.5968C24.3273 19.9634 24.794 20.4568 25.129 21.0334C25.4773 21.6734 25.654 22.3918 25.6407 23.1201C25.6699 24.0593 25.39 24.9821 24.844 25.7468C24.27 26.5318 23.4819 27.1348 22.574 27.4834C21.5968 27.8733 20.5507 28.0609 19.499 28.0351C18.2618 28.0698 17.0346 27.8045 15.9223 27.2618C15.1913 26.877 14.5636 26.3219 14.0923 25.6434C13.6207 24.9909 13.3565 24.2115 13.334 23.4068C13.334 23.045 13.4777 22.698 13.7335 22.4422C13.9894 22.1863 14.3364 22.0426 14.6982 22.0426C15.0599 22.0426 15.4069 22.1863 15.6628 22.4422C15.9186 22.698 16.0623 23.045 16.0623 23.4068C16.089 23.6568 16.184 23.8934 16.3373 24.0934C16.554 24.4051 16.8423 24.6601 17.1773 24.8384C17.9023 25.1784 18.699 25.3384 19.499 25.3084C20.1914 25.3306 20.8812 25.2132 21.5273 24.9634C21.9607 24.8084 22.3406 24.5301 22.6207 24.1668C22.8294 23.8766 22.9329 23.5238 22.914 23.1668C22.9279 22.8918 22.8723 22.6179 22.7523 22.3701C22.6284 22.1668 22.4589 21.9951 22.2573 21.8684C21.9341 21.6643 21.5841 21.5061 21.2173 21.3984C20.9173 21.3084 20.5923 21.2201 20.254 21.1318L20.229 21.1284C20.2049 21.1211 20.1804 21.115 20.1557 21.1101C19.9305 21.0516 19.7044 20.9971 19.4773 20.9468C18.8757 20.8168 18.4573 20.7134 18.1957 20.6334L18.179 20.6234C18.1748 20.6207 18.1703 20.6185 18.1657 20.6168C17.5607 20.4701 16.9657 20.2834 16.3823 20.0601C15.6132 19.7512 14.9377 19.2475 14.4223 18.5984C13.8877 17.8973 13.6085 17.0348 13.6307 16.1534C13.6307 15.2701 13.9207 14.4084 14.4557 13.7034C15.0123 12.9934 15.7573 12.4534 16.6057 12.1468C17.543 11.8089 18.5345 11.6462 19.5307 11.6668C20.314 11.6584 21.0957 11.7668 21.8473 11.9884C22.4973 12.1784 23.1073 12.4884 23.6457 12.9018C24.1123 13.2551 24.499 13.6984 24.7873 14.2084C24.9586 14.5269 24.9964 14.9004 24.8923 15.2467C24.7882 15.593 24.5508 15.8838 24.2323 16.0551C24.0746 16.1399 23.9018 16.1928 23.7236 16.2108C23.5455 16.2288 23.3655 16.2116 23.194 16.1601C22.8477 16.056 22.5569 15.8186 22.3857 15.5001C22.2696 15.3172 22.119 15.1587 21.9423 15.0334C21.6692 14.8341 21.3628 14.6851 21.0373 14.5934C20.5472 14.4527 20.0389 14.3853 19.529 14.3934C18.8704 14.3743 18.2137 14.4742 17.5907 14.6884C17.219 14.8151 16.8907 15.0384 16.6357 15.3384C16.454 15.5706 16.3554 15.857 16.3557 16.1518C16.3335 16.4269 16.411 16.7007 16.574 16.9234C16.7973 17.1951 17.0857 17.4068 17.414 17.5334C18.0503 17.7778 18.7051 17.9707 19.3723 18.1101C19.9323 18.2334 20.384 18.3434 20.7673 18.4484C21.2023 18.5568 21.6257 18.6718 22.0073 18.7884Z" fill="#043D7A"/>
<path id="Vector_2" fill-rule="evenodd" clip-rule="evenodd" d="M13.3342 4.58301C11.8422 4.58264 10.3749 4.96379 9.07167 5.69025C7.76845 6.41671 6.67265 7.46435 5.88837 8.73361C5.1041 10.0029 4.65742 11.4516 4.59077 12.9421C4.52412 14.4327 4.83971 15.9155 5.50757 17.2497C5.05896 19.6115 5.19445 22.0472 5.90226 24.3448C6.61006 26.6423 7.86872 28.732 9.56866 30.4319C11.2686 32.1319 13.3583 33.3905 15.6558 34.0983C17.9533 34.8061 20.389 34.9416 22.7509 34.493C24.3938 35.3157 26.254 35.6003 28.0677 35.3065C29.8814 35.0127 31.5566 34.1555 32.8558 32.8563C34.155 31.5571 35.0123 29.8818 35.3061 28.0681C35.5998 26.2544 35.3152 24.3942 34.4926 22.7513C34.9414 20.3895 34.8062 17.9538 34.0986 15.6562C33.391 13.3586 32.1325 11.2688 30.4328 9.56871C28.733 7.86861 26.6434 6.60975 24.3459 5.90172C22.0485 5.19369 19.6128 5.05796 17.2509 5.50635C16.0354 4.89678 14.6941 4.58168 13.3342 4.58301ZM7.08424 13.333C7.08413 12.2381 7.37164 11.1624 7.91799 10.2136C8.46434 9.26481 9.25035 8.47616 10.1973 7.92664C11.1443 7.37712 12.219 7.086 13.3139 7.08244C14.4088 7.07888 15.4854 7.363 16.4359 7.90635C16.7064 8.06115 17.025 8.1093 17.3292 8.04135C19.3434 7.5905 21.4388 7.65588 23.4209 8.23142C25.4031 8.80696 27.2076 9.874 28.6671 11.3335C30.1266 12.7929 31.1936 14.5975 31.7692 16.5796C32.3447 18.5618 32.4101 20.6572 31.9592 22.6713C31.8913 22.9755 31.9394 23.2941 32.0942 23.5647C32.7764 24.7554 33.0478 26.1375 32.8664 27.4977C32.685 28.858 32.061 30.1207 31.0906 31.0911C30.1203 32.0614 28.8575 32.6854 27.4973 32.8668C26.1371 33.0482 24.7549 32.7769 23.5642 32.0947C23.2944 31.9397 22.9764 31.891 22.6726 31.958C20.6584 32.4089 18.563 32.3435 16.5809 31.7679C14.5987 31.1924 12.7942 30.1254 11.3347 28.6659C9.87523 27.2064 8.80819 25.4018 8.23265 23.4197C7.6571 21.4376 7.59172 19.3422 8.04257 17.328C8.11052 17.0238 8.06237 16.7052 7.90757 16.4347C7.36641 15.4907 7.0825 14.4211 7.08424 13.333Z" fill="#043D7A"/>
</g>
</svg>
