<svg width="81" height="80" viewBox="0 0 81 80" fill="none" xmlns="http://www.w3.org/2000/svg">
<g id="icon_internet" clip-path="url(#clip0_82_1221)">
<g id="Group">
<path id="Vector" d="M68.7775 11.7103C68.2229 11.1553 67.6522 10.6167 67.066 10.0952C65.6449 8.83411 64.1374 7.67394 62.5546 6.62312C56.0766 2.32469 48.578 0.0434375 40.7147 0.00171875L40.6866 0.0009375L40.6736 0.00046875H40.6539C40.648 0.0003125 40.6422 0 40.6361 0H40.5233L40.5158 0.0003125H40.4839L40.4764 0H40.3636L40.346 0.0003125H40.3258L40.3108 0.00078125L40.2858 0.0015625C36.9491 0.0185937 33.6855 0.4375 30.5399 1.23906C30.4705 1.25672 30.4007 1.27297 30.3314 1.29109C30.3025 1.29859 30.2739 1.30703 30.245 1.31453C29.7396 1.44713 29.2369 1.58987 28.7372 1.74266C28.7044 1.75266 28.6721 1.76359 28.6394 1.77375C23.9258 3.23062 19.5075 5.56969 15.546 8.73578L15.5455 8.73609L15.5452 8.73625L15.545 8.73641C14.9962 9.17508 14.459 9.6281 13.9339 10.095C13.348 10.6164 12.7774 11.1549 12.2229 11.7097C6.17191 17.7556 2.28363 25.3972 0.978477 33.8069C0.660374 35.8555 0.500734 37.9257 0.500977 39.9989C0.500977 50.6887 4.66395 60.7356 12.2225 68.2892C12.7776 68.8438 13.3484 69.3825 13.9343 69.9045C14.458 70.3697 15.0002 70.8264 15.5452 71.2614C22.6436 76.9347 31.2071 79.9551 40.3169 79.9964H40.3225C40.3818 79.9989 40.4418 79.9995 40.5002 79.9995C40.5588 79.9995 40.6186 79.9989 40.678 79.9964H40.6904C42.305 79.9897 43.9178 79.8869 45.5202 79.6886C46.0957 79.6167 46.6696 79.5323 47.2414 79.4356C53.4943 78.3814 59.3808 75.8547 64.5322 71.9772L64.5325 71.977C64.5326 71.977 64.5327 71.977 64.5328 71.9769C64.5328 71.9769 64.5329 71.9768 64.5329 71.9767L64.533 71.9766C65.4062 71.3203 66.252 70.6284 67.0683 69.9026C67.6494 69.3847 68.2246 68.8423 68.7793 68.2892C74.4908 62.5794 78.3013 55.3886 79.7988 47.4936C80.2651 45.0226 80.4996 42.5134 80.4994 39.9987C80.4991 29.3089 76.3361 19.2622 68.7775 11.7103ZM47.4044 3.76625C47.7789 3.83715 48.1522 3.91393 48.5243 3.99656C48.8252 4.06297 49.1254 4.13219 49.4241 4.20625C49.4525 4.21328 49.481 4.22094 49.5094 4.22812C49.7883 4.29797 50.0661 4.37156 50.3432 4.44781C50.4071 4.46547 50.471 4.48281 50.5346 4.50062C50.8286 4.58328 51.1218 4.66953 51.4136 4.75953C51.4641 4.77516 51.5141 4.79141 51.5644 4.80719C51.8277 4.88984 52.09 4.97531 52.3514 5.06391C52.4029 5.08125 52.4546 5.09828 52.506 5.11594C52.795 5.21531 53.0829 5.31875 53.3694 5.42547C53.4294 5.44781 53.4891 5.47078 53.5489 5.49344C53.8178 5.59516 54.0858 5.69969 54.3524 5.80797C54.38 5.81922 54.408 5.83 54.4358 5.84125C54.7848 5.98431 55.1316 6.13277 55.476 6.28656C55.7616 6.41375 56.0461 6.54359 56.3286 6.67844L56.3471 6.6875C56.6244 6.82 56.8997 6.95703 57.1741 7.09672C57.233 7.12672 57.2918 7.15656 57.3505 7.18687C57.6255 7.32875 57.8993 7.47359 58.171 7.62266C58.2082 7.64312 58.245 7.66406 58.2821 7.68469C58.5297 7.82156 58.7758 7.96172 59.0207 8.10469C59.0714 8.13437 59.1225 8.16359 59.1732 8.19344C59.4398 8.35076 59.7044 8.5114 59.9671 8.67531C60.0179 8.70703 60.0685 8.73953 60.1191 8.77141C60.3593 8.92297 60.598 9.07719 60.8352 9.23469C60.8708 9.25844 60.9069 9.28156 60.9425 9.30531C60.961 9.31766 60.9789 9.33062 60.9972 9.34297C58.4341 11.2771 55.6186 12.8517 52.6289 14.0231L52.6236 14.0067C52.5955 13.9187 52.5664 13.8317 52.5371 13.7442L52.4218 13.4017C52.3732 13.2589 52.323 13.1161 52.2685 12.9612C52.1915 12.7411 52.1123 12.5217 52.0308 12.3031C51.9199 11.9998 51.7996 11.6856 51.6385 11.2781C51.5175 10.9739 51.3931 10.671 51.2654 10.3695C50.7658 9.19562 50.2293 8.09641 49.6699 7.10094C49.4103 6.63889 49.1363 6.18508 48.8483 5.74016C48.7101 5.52679 48.5685 5.31572 48.4233 5.10703C48.2617 4.87496 48.0944 4.64693 47.9216 4.42312C47.8182 4.28662 47.7122 4.15216 47.6035 4.01984C47.5338 3.93328 47.4633 3.84797 47.393 3.76453C47.3968 3.76489 47.4007 3.76546 47.4044 3.76625ZM28.2186 48.7734C28.2039 48.6044 28.1896 48.4352 28.1757 48.2661C28.1654 48.147 28.1564 48.0281 28.1468 47.9008C28.1336 47.7377 28.1216 47.5728 28.1093 47.4086C28.1016 47.3028 28.0938 47.1969 28.0864 47.0883C28.0806 47.0131 28.0754 46.9379 28.071 46.8627C28.0703 46.8497 28.0694 46.8368 28.0683 46.8239C28.0618 46.7402 28.0559 46.6564 28.0508 46.5727L28.0499 46.5575C28.0249 46.1695 28.0022 45.7813 27.9821 45.393C27.887 43.5967 27.8397 41.7982 27.8402 39.9994C27.8402 38.1834 27.888 36.3687 27.9816 34.615L27.9991 34.2884C28.0011 34.2495 28.003 34.2108 28.006 34.1727C28.0071 34.1591 28.008 34.1455 28.0088 34.1317C28.021 33.9056 28.0346 33.6809 28.0505 33.4442C28.0563 33.3472 28.0621 33.2517 28.0702 33.1402C28.0847 32.9194 28.1008 32.6995 28.1177 32.4784H52.8825C52.8993 32.6989 52.9152 32.9206 52.9307 33.1548C52.9379 33.2519 52.9436 33.3473 52.9502 33.4566C52.9654 33.6812 52.9791 33.9058 52.9911 34.1319L52.9939 34.1728C52.9971 34.2109 52.9988 34.2497 53.0008 34.2886L53.0177 34.6061C53.1119 36.3691 53.1596 38.1837 53.1596 39.9997C53.1601 42.1871 53.0902 44.374 52.9497 46.5569L52.9488 46.5728C52.9437 46.6566 52.9378 46.7404 52.9313 46.8241C52.9302 46.837 52.9293 46.8499 52.9286 46.8628C52.9244 46.938 52.9188 47.0133 52.9125 47.0976C52.8941 47.3683 52.874 47.6388 52.8522 47.9092C52.8433 48.0283 52.8344 48.1472 52.8235 48.2728C52.8096 48.4411 52.795 48.607 52.7807 48.7734H28.2186ZM52.4529 51.8981C52.3127 53.0434 52.1496 54.1858 51.9636 55.3245C51.9348 55.5007 51.9049 55.6768 51.8739 55.8526C51.6737 57.0297 51.4446 58.2016 51.1868 59.3673C51.1202 59.6701 51.0515 59.9723 50.9807 60.2741C50.8522 60.8205 50.7161 61.3651 50.5724 61.9077L50.5572 61.9645C47.0272 60.9264 43.3616 60.4003 39.6369 60.4003C36.5 60.399 33.3745 60.7784 30.3289 61.5302L30.3253 61.5161C30.2194 61.1038 30.1175 60.6905 30.0197 60.2762C29.9493 59.9762 29.8804 59.6733 29.8125 59.3647C29.5543 58.1971 29.3248 57.0233 29.1244 55.8444C29.0938 55.6703 29.0649 55.4962 29.0364 55.3258C28.8503 54.1866 28.6871 53.0438 28.5469 51.8981H52.4529ZM28.403 29.3531C28.485 28.5922 28.5767 27.8323 28.6782 27.0737C28.7057 26.8695 28.7336 26.6666 28.7621 26.4655C28.8475 25.8617 28.9374 25.2733 29.0305 24.7084L29.136 24.0831C29.1619 23.932 29.1879 23.7814 29.216 23.6266L29.2936 23.1933C29.3419 22.9352 29.39 22.6786 29.4371 22.4319C29.6215 21.4839 29.8257 20.5399 30.0497 19.6005C30.1041 19.3678 30.16 19.1369 30.2174 18.9089L30.2221 18.89C30.2577 18.7483 30.2939 18.6091 30.3299 18.4687C33.3752 19.2201 36.5004 19.5994 39.6371 19.5983C43.3621 19.5983 47.0279 19.0722 50.5575 18.0342C50.5693 18.0783 50.5808 18.1206 50.5925 18.1653C50.6553 18.4044 50.7166 18.6464 50.7752 18.8791L50.7825 18.9089C50.8399 19.1367 50.8958 19.3678 50.9519 19.6083C51.1748 20.5428 51.3781 21.4819 51.5614 22.425C51.6097 22.6786 51.6579 22.9352 51.7039 23.1819L51.7847 23.6311C51.8121 23.7816 51.838 23.9322 51.8639 24.0833L51.9 24.2923C51.9239 24.4298 51.9463 24.5677 51.9697 24.7109C52.0988 25.4977 52.2162 26.2863 52.3219 27.0766C52.3571 27.3347 52.3907 27.5944 52.4232 27.8594C52.4853 28.3568 52.5432 28.8548 52.5968 29.3533L28.403 29.3531ZM34.3097 8.18844C34.4611 7.93302 34.6176 7.68063 34.7789 7.43141C34.8507 7.31891 34.9252 7.20812 34.9996 7.09875C35.0466 7.02969 35.0936 6.96062 35.1391 6.89516C35.277 6.69696 35.4199 6.50237 35.5679 6.31156C35.6507 6.20156 35.7363 6.09437 35.8289 5.98109C35.9715 5.80404 36.1192 5.63121 36.2719 5.46281C36.3637 5.36091 36.4572 5.26059 36.5524 5.16187C36.5961 5.11687 36.6385 5.07312 36.6813 5.03141L36.7418 4.97234C36.7704 4.94422 36.7988 4.91641 36.8277 4.88906L36.8441 4.87328C36.8875 4.83109 36.9308 4.79016 36.975 4.74969C37.0236 4.70516 37.0736 4.66078 37.1222 4.61781L37.1405 4.60125C37.2726 4.48607 37.4081 4.37493 37.5469 4.26797C37.5958 4.22984 37.6449 4.19328 37.6936 4.15656C37.7268 4.13172 37.7596 4.1075 37.7927 4.08547L37.8174 4.06859C37.9243 3.99432 38.0331 3.92274 38.1436 3.85391C38.1672 3.83906 38.1916 3.82422 38.216 3.81031C38.235 3.79937 38.2539 3.78797 38.2725 3.77641C38.296 3.76156 38.3207 3.74797 38.345 3.73406L38.3546 3.72859L38.3646 3.72312L38.3752 3.7175L38.4024 3.7025C38.4705 3.66406 38.5474 3.62406 38.6433 3.57719C38.7335 3.5338 38.8248 3.49284 38.9172 3.45437C39.0877 3.38256 39.2625 3.32161 39.4407 3.27187L39.4466 3.27016C39.4564 3.26734 39.4674 3.26484 39.4775 3.26219C39.537 3.24559 39.5969 3.2311 39.6574 3.21875C39.6722 3.21547 39.6857 3.21219 39.701 3.20891L39.7311 3.20234C39.7539 3.19683 39.7768 3.19214 39.7999 3.18828L39.823 3.18453C39.912 3.16946 40.0014 3.1566 40.091 3.14594C40.1628 3.13828 40.2346 3.13437 40.3063 3.13109L40.3254 3.13016H40.3268C40.3763 3.12719 40.426 3.125 40.4755 3.125C40.4835 3.125 40.4911 3.12391 40.4989 3.12375C40.5069 3.12391 40.5146 3.125 40.5224 3.125C40.5719 3.125 40.6216 3.12719 40.6711 3.13016H40.6725L40.6916 3.13109C40.7633 3.13437 40.835 3.13828 40.8913 3.14422C40.9939 3.15602 41.0962 3.17072 41.198 3.18828C41.2211 3.19172 41.2449 3.19687 41.268 3.20219C41.3673 3.22309 41.4659 3.24696 41.5638 3.27375C41.5993 3.28375 41.633 3.29375 41.6652 3.30359L41.6836 3.30922C41.8257 3.35453 41.9594 3.40344 42.0877 3.45719C42.1682 3.49047 42.2528 3.52844 42.3461 3.57297C42.4116 3.60578 42.4779 3.64109 42.5444 3.67641C42.5708 3.69047 42.596 3.70281 42.623 3.7175L42.6433 3.72828L42.6532 3.73391C42.6775 3.74781 42.7021 3.76141 42.7257 3.77625C42.7443 3.78797 42.7632 3.79937 42.7822 3.81016C42.8049 3.82312 42.8275 3.83703 42.8496 3.85078L42.8624 3.85875C42.9677 3.92422 43.0749 3.99484 43.1808 4.06844L43.2055 4.08531C43.2386 4.10734 43.2714 4.13156 43.3046 4.15641C43.3514 4.19156 43.3983 4.22672 43.4452 4.26312L43.4583 4.27312C43.5945 4.37822 43.7275 4.48744 43.8571 4.60062L43.876 4.61766C43.9246 4.66062 43.9746 4.705 44.0241 4.75047C44.0674 4.79 44.1107 4.83094 44.1541 4.87312L44.1705 4.88891C44.1996 4.91625 44.2279 4.94422 44.2564 4.97219L44.3161 5.03062C44.3599 5.07297 44.4022 5.11687 44.4399 5.15562C44.5358 5.25578 44.6318 5.35719 44.7333 5.47062C44.886 5.63936 45.0338 5.81251 45.1764 5.98984C45.2678 6.10083 45.3568 6.21377 45.4433 6.32859C45.6369 6.57896 45.822 6.83577 45.9983 7.09859C46.0753 7.21187 46.151 7.32656 46.2257 7.44172C46.4778 7.83128 46.7177 8.22861 46.945 8.63312C47.1052 8.91896 47.26 9.20776 47.4094 9.49937C47.7605 10.1845 48.0868 10.8821 48.3875 11.5908C48.5053 11.8703 48.6205 12.1508 48.7333 12.4323C48.8592 12.7487 48.9809 13.0667 49.0985 13.3862C49.1732 13.5862 49.2463 13.7894 49.318 13.9941L49.3233 14.0094C49.3702 14.1425 49.4169 14.2756 49.4591 14.3992L49.5721 14.7347C49.5985 14.8139 49.6249 14.8927 49.6504 14.9723C49.6536 14.9827 49.6569 14.9928 49.6605 15.0031C49.6643 15.0141 49.6677 15.0252 49.6713 15.0361C46.4285 15.9894 43.0597 16.4725 39.6355 16.4725C36.7754 16.4725 33.9414 16.1319 31.1886 15.4612C31.2039 15.4159 31.2177 15.3714 31.2324 15.3256L31.2685 15.2133C31.291 15.1428 31.3135 15.0727 31.3372 15.0031C31.3408 14.993 31.3441 14.9827 31.3474 14.9723C31.3729 14.8927 31.3991 14.8141 31.4257 14.7347L31.5354 14.4087C31.5807 14.2756 31.6274 14.1425 31.6743 14.0094L31.6796 13.9941C31.7513 13.7894 31.8244 13.5864 31.9024 13.3773C32.0039 13.0998 32.1157 12.8084 32.2618 12.4384C32.3749 12.1556 32.4907 11.8737 32.6089 11.593C33.0639 10.5237 33.5496 9.52797 34.0516 8.63453C34.138 8.4825 34.2252 8.33172 34.3097 8.18844ZM19.2463 9.86109C19.3044 9.81984 19.3629 9.77937 19.4213 9.73844C19.6766 9.55948 19.934 9.38369 20.1936 9.21109C20.2182 9.19484 20.2424 9.17797 20.2669 9.16187C20.5421 8.98086 20.8197 8.8035 21.0996 8.62984C21.4417 8.4164 21.7874 8.20867 22.1364 8.00672C22.1729 7.98562 22.2097 7.96547 22.2463 7.94453C22.5042 7.79697 22.7638 7.65253 23.0252 7.51125C23.0885 7.47703 23.1518 7.44234 23.2152 7.40844C23.4977 7.25777 23.7822 7.11078 24.0685 6.9675C24.1305 6.93641 24.193 6.90625 24.2552 6.87562C24.5149 6.74766 24.7758 6.6225 25.0382 6.50094C25.0852 6.47906 25.1321 6.45656 25.1791 6.43484C25.4704 6.30141 25.7635 6.17266 26.0577 6.04719C26.1305 6.01609 26.2036 5.98547 26.2766 5.95484C26.5752 5.82923 26.8755 5.7076 27.1774 5.59C27.1978 5.58203 27.2185 5.57469 27.2389 5.56687C27.5275 5.45593 27.8175 5.34874 28.1088 5.24531C28.1813 5.21953 28.2538 5.19344 28.3264 5.16812C28.6273 5.06297 28.9295 4.96171 29.233 4.86437C29.2914 4.84578 29.35 4.82812 29.4086 4.80969C29.6815 4.72402 29.9553 4.64157 30.23 4.56234C30.2903 4.545 30.3505 4.52687 30.411 4.50984C30.791 4.40275 31.1728 4.30191 31.5561 4.20734C31.8566 4.13297 32.1579 4.06141 32.4605 3.99469C32.4833 3.98969 32.5061 3.98406 32.5289 3.97906C32.8875 3.90122 33.2473 3.82877 33.608 3.76172C33.5382 3.84453 33.4694 3.92781 33.4024 4.01094C33.2914 4.146 33.183 4.28322 33.0774 4.4225C32.9949 4.52922 32.9113 4.64 32.8272 4.75469C32.6857 4.94785 32.548 5.14378 32.4141 5.34234C32.3225 5.47703 32.2311 5.61344 32.1497 5.74141C31.8616 6.18643 31.5875 6.64041 31.3279 7.10266C30.7693 8.09656 30.2327 9.19578 29.7335 10.3691C29.4637 11.0046 29.2094 11.6465 28.9708 12.2944C28.8867 12.5199 28.805 12.7462 28.7257 12.9734C28.6755 13.1162 28.6252 13.2591 28.5735 13.4114L28.4614 13.7442C28.4321 13.8317 28.403 13.9189 28.3749 14.0067C28.3465 14.0909 28.3188 14.1754 28.2919 14.2602L28.2575 14.367C28.2335 14.442 28.2108 14.515 28.1874 14.5891C24.9545 13.4931 21.8985 11.9323 19.1154 9.95578C19.1597 9.92453 19.2027 9.89203 19.2463 9.86109ZM14.4318 13.9203C14.9428 13.4087 15.4689 12.9123 16.0091 12.4316C16.1902 12.2711 16.3727 12.1124 16.5568 11.9553C19.8446 14.4077 23.4569 16.2987 27.3275 17.5948C27.2819 17.7717 27.2363 17.9483 27.1913 18.1273L28.7066 18.5086L27.1866 18.1459C27.1251 18.3905 27.0656 18.6356 27.0083 18.8812C26.7743 19.8631 26.5608 20.8497 26.3682 21.8405C26.3181 22.1039 26.2685 22.3675 26.2194 22.6311L26.1404 23.0714C26.1114 23.2319 26.0832 23.3925 26.0558 23.5533L26.0207 23.7567L26.0193 23.7648L26.0179 23.7728L25.9461 24.2027C25.8124 25.0182 25.6907 25.8356 25.581 26.6547C25.5441 26.926 25.5089 27.1975 25.4755 27.4692C25.3969 28.0963 25.3248 28.7241 25.2591 29.3527H5.18113C6.91754 23.5517 10.063 18.2855 14.4318 13.9203ZM16.0114 67.5703C15.4708 67.0885 14.9441 66.5913 14.4319 66.0794C7.46332 59.1158 3.62582 49.8537 3.62582 39.9992C3.62582 38.0837 3.77395 36.1623 4.06629 34.2875C4.16066 33.6797 4.27129 33.0769 4.39473 32.4781H24.9836C24.9727 32.6283 24.9624 32.7769 24.953 32.9211C24.9446 33.0339 24.9379 33.1452 24.9318 33.2458L24.9296 33.2806C24.9147 33.506 24.9004 33.7315 24.8869 33.957L24.8857 33.9775C24.881 34.0573 24.8764 34.1361 24.8732 34.2161L24.8613 34.4391C24.7641 36.2572 24.7149 38.128 24.7149 39.9992C24.7149 41.8705 24.7641 43.7412 24.8611 45.5566C24.8819 45.9575 24.9057 46.3586 24.9311 46.7573L24.9322 46.7731C24.9383 46.8672 24.9444 46.9622 24.9518 47.0564L24.9536 47.0866L24.9661 47.2894C24.9868 47.5738 25.0083 47.8581 25.0307 48.1423C25.0405 48.2739 25.0505 48.4055 25.0614 48.5305C25.0682 48.6117 25.0753 48.692 25.0822 48.7731H15.6794C14.8164 48.7731 14.1169 49.4727 14.1169 50.3356C14.1169 51.1986 14.8164 51.8981 15.6794 51.8981H25.3983L25.4075 51.9781C25.5615 53.2679 25.7435 54.5542 25.9533 55.8361C25.9838 56.0191 26.0144 56.202 26.045 56.377C26.2536 57.6032 26.4923 58.8241 26.761 60.0386C26.8314 60.3589 26.9036 60.6761 26.9779 60.9923C27.089 61.464 27.2055 61.9345 27.3272 62.4036C23.4571 63.6995 19.845 65.5908 16.5575 68.0425C16.3743 67.8861 16.1904 67.7294 16.0114 67.5703ZM33.4939 76.2142C33.171 76.1533 32.8497 76.0891 32.5302 76.0192C32.5071 76.0142 32.4843 76.0086 32.4613 76.0034C32.1575 75.9364 31.855 75.8647 31.5535 75.79C31.4827 75.7725 31.4119 75.7551 31.3414 75.7373C31.0294 75.6582 30.7185 75.5749 30.4086 75.4875C30.3514 75.4714 30.2946 75.4542 30.2375 75.4378C29.9572 75.3571 29.6778 75.273 29.3994 75.1855C29.3457 75.1686 29.2918 75.1523 29.2382 75.1353C28.9312 75.037 28.6255 74.9346 28.3213 74.8281C28.2532 74.8044 28.185 74.78 28.1171 74.7558C27.8163 74.6491 27.517 74.5385 27.2193 74.4239C27.2071 74.4192 27.1947 74.4148 27.1825 74.41C26.8763 74.2908 26.5717 74.1675 26.2688 74.04C26.2007 74.0114 26.1327 73.983 26.0647 73.9539C25.7661 73.8269 25.4693 73.6959 25.1743 73.5609C25.133 73.542 25.0921 73.5222 25.0508 73.5031C24.7805 73.3778 24.5117 73.2492 24.2446 73.1173C24.1879 73.0894 24.1308 73.0619 24.0741 73.0334C23.784 72.8884 23.4959 72.7395 23.2099 72.5867C23.1508 72.5551 23.0922 72.523 23.0335 72.4912C22.7647 72.3461 22.4978 72.1976 22.2329 72.0458C22.2022 72.0283 22.1713 72.0112 22.1408 71.9936C21.7921 71.7918 21.4466 71.5843 21.1047 71.3711C20.8223 71.1959 20.5423 71.017 20.2647 70.8342C20.2436 70.8203 20.2227 70.8058 20.2016 70.7917C19.9383 70.6168 19.6772 70.4386 19.4185 70.257C19.3619 70.2173 19.3052 70.1781 19.2488 70.1381C19.2047 70.1069 19.1614 70.0739 19.1174 70.0425C21.9003 68.0659 24.9562 66.5051 28.1889 65.4092C28.2193 65.5045 28.2488 65.5969 28.2782 65.6869C28.3275 65.8433 28.3786 65.9981 28.4297 66.1528C28.4475 66.2092 28.4668 66.2658 28.4861 66.3222C28.5254 66.4411 28.5661 66.5587 28.608 66.6794C28.6496 66.8009 28.6913 66.9225 28.7319 67.037C28.8092 67.2581 28.8887 67.4784 28.9705 67.6978C29.213 68.3569 29.4723 69.0098 29.748 69.6558C30.1125 70.5114 30.4911 71.3161 30.866 72.0345C30.9157 72.132 30.9668 72.2276 31.0152 72.3181C31.1131 72.5042 31.2139 72.6886 31.3177 72.8714C31.4102 73.0367 31.5045 73.201 31.6005 73.3644C31.6154 73.3919 31.6308 73.4187 31.6469 73.4448C31.779 73.6681 31.9153 73.8889 32.0555 74.1072C32.0661 74.1244 32.0771 74.1416 32.088 74.1587L32.0988 74.1758C32.1049 74.1856 32.111 74.1953 32.1172 74.2048L32.118 74.2061L32.1213 74.2114C32.1769 74.2969 32.2308 74.3786 32.2841 74.4587C32.3139 74.5036 32.3443 74.5492 32.3752 74.595C32.4443 74.6975 32.5122 74.7967 32.5797 74.8936C32.6882 75.049 32.7992 75.2027 32.9128 75.3544C32.9961 75.4677 33.0812 75.5798 33.168 75.6905C33.2538 75.8003 33.3399 75.9084 33.4319 76.0208L33.4839 76.0839C33.5232 76.1317 33.5622 76.1792 33.5949 76.2175L33.6105 76.2361L33.4939 76.2142ZM47.2207 70.8619C47.1351 71.0245 47.0469 71.1857 46.9561 71.3455C46.8679 71.503 46.7779 71.6595 46.6861 71.815C46.6776 71.8294 46.6692 71.844 46.6611 71.8587C46.5434 72.0551 46.4231 72.2498 46.3002 72.443L46.2968 72.4484L46.2897 72.4598L46.2561 72.5133C46.1271 72.7123 45.9948 72.9092 45.8594 73.1039C45.7695 73.2328 45.6774 73.3602 45.5832 73.4859C45.5785 73.492 45.5739 73.4984 45.5694 73.5047C45.502 73.5975 45.4326 73.6888 45.3613 73.7786C45.295 73.8652 45.2258 73.9505 45.1644 74.0255L45.1013 74.1022C44.98 74.2505 44.855 74.3956 44.7263 74.5375C44.59 74.6897 44.4524 74.8344 44.3107 74.9747C44.2403 75.0437 44.17 75.1128 44.0872 75.1895C44.0134 75.259 43.9384 75.3272 43.8624 75.3942L43.8214 75.4295C43.793 75.4541 43.765 75.4786 43.7274 75.5097C43.5902 75.6248 43.4494 75.7354 43.305 75.8414C43.2638 75.872 43.2221 75.9018 43.1797 75.9308L43.1736 75.9352L43.1675 75.9394C43.0347 76.0329 42.8982 76.121 42.7582 76.2034C42.7493 76.2087 42.7405 76.2141 42.7318 76.2195C42.7108 76.2325 42.6899 76.2445 42.6689 76.2551C42.6443 76.2678 42.6199 76.2812 42.5958 76.2952C42.5595 76.3161 42.5226 76.3361 42.4852 76.355C42.272 76.4676 42.0507 76.5639 41.823 76.6431C41.7293 76.6751 41.6455 76.7014 41.5672 76.7234L41.405 76.7656C41.3674 76.7744 41.3303 76.783 41.2933 76.7908L41.2629 76.7975C41.2408 76.8025 41.2185 76.8066 41.1961 76.81L41.1729 76.8137C41.0807 76.8294 40.9882 76.8425 40.8971 76.8531C40.8239 76.8605 40.7575 76.8655 40.6939 76.8687C40.678 76.8695 40.6643 76.8706 40.6474 76.8712L40.6441 76.8714C40.6337 76.8718 40.6233 76.8721 40.6129 76.8722C40.5902 76.8724 40.5675 76.8732 40.5449 76.8748L40.4696 76.8756C40.4558 76.8747 40.4422 76.8748 40.4285 76.8742C40.4145 76.8735 40.4005 76.873 40.3864 76.8727L40.3813 76.8723L40.3494 76.8712C40.3366 76.8708 40.3263 76.87 40.3143 76.8694C40.2438 76.8658 40.1734 76.8605 40.1032 76.8534C40.011 76.8427 39.9188 76.8295 39.8268 76.8139L39.8035 76.8102C39.7811 76.8069 39.7588 76.8027 39.7368 76.7977C39.6892 76.7877 39.6418 76.777 39.5946 76.7658L39.4327 76.7236C39.3468 76.6993 39.2616 76.6726 39.1772 76.6434C38.9454 76.5625 38.7201 76.4642 38.5032 76.3492C38.4696 76.3321 38.4365 76.3142 38.4039 76.2953C38.38 76.2813 38.3556 76.2679 38.3308 76.2553C38.3094 76.2443 38.2885 76.2324 38.268 76.2197C38.1146 76.1299 37.9652 76.0335 37.8202 75.9308C37.7761 75.9005 37.7327 75.8695 37.6897 75.8376C37.6428 75.8028 37.5957 75.768 37.548 75.7311C37.4516 75.6569 37.3568 75.5806 37.2636 75.5023C37.2349 75.4786 37.2068 75.4541 37.1785 75.4295L37.1533 75.408L37.1388 75.3953L37.1366 75.3934C37.1362 75.3932 37.1358 75.3928 37.1355 75.3923L37.125 75.3828C37.0495 75.3161 36.975 75.2481 36.9016 75.1791C36.8299 75.1128 36.7596 75.0436 36.6943 74.9797C36.5475 74.8342 36.4051 74.6844 36.2674 74.5303C36.141 74.3906 36.0181 74.2478 35.8988 74.102L35.8419 74.033C35.7678 73.9422 35.6948 73.8506 35.6229 73.7581C35.5558 73.6736 35.4902 73.5848 35.4202 73.4906C35.1861 73.171 34.9606 72.8452 34.7438 72.5136L34.7327 72.4959L34.7108 72.4611L34.7 72.4439L34.6966 72.4384C34.5748 72.2469 34.4556 72.0537 34.3388 71.8591C34.3307 71.8443 34.3224 71.8298 34.3138 71.8153C34.2202 71.6567 34.1284 71.4971 34.0385 71.3364C33.9471 71.1755 33.8583 71.0131 33.7722 70.8492C33.731 70.7722 33.6896 70.695 33.6425 70.6028C33.2982 69.943 32.9547 69.2123 32.6219 68.4311C32.366 67.8309 32.1252 67.2244 31.8999 66.612C31.8252 66.412 31.7521 66.2089 31.6779 65.9972C31.6388 65.8876 31.6014 65.7781 31.5639 65.6684L31.558 65.6511C31.5218 65.5466 31.4852 65.4417 31.4503 65.3355L31.4436 65.3156C31.4313 65.2797 31.4188 65.2441 31.4075 65.2081L31.3997 65.1839C31.3516 65.0383 31.3036 64.8925 31.253 64.7328C31.2322 64.6691 31.2113 64.6033 31.1902 64.5375C33.9554 63.8645 36.7912 63.525 39.6371 63.5261C43.061 63.5261 46.4293 64.0091 49.6722 64.9625C49.6482 65.0362 49.6244 65.1105 49.6002 65.1841C49.598 65.1917 49.5955 65.1998 49.5928 65.2078C49.5816 65.2437 49.5691 65.2794 49.5568 65.3153L49.55 65.3352C49.5152 65.4412 49.4786 65.5461 49.4424 65.6508L49.4364 65.6681C49.3989 65.7778 49.3616 65.8873 49.32 66.0041C49.2483 66.2087 49.1752 66.4117 49.0983 66.618C48.8737 67.2283 48.6337 67.8328 48.3785 68.4309C48.1391 68.9945 47.8838 69.5512 47.6129 70.1003C47.5273 70.2731 47.44 70.4451 47.3508 70.6161C47.3102 70.6947 47.2689 70.7719 47.2207 70.8619ZM60.9466 70.6914C60.9064 70.7183 60.866 70.7442 60.8258 70.7709C60.5947 70.9242 60.3618 71.0748 60.1272 71.2228C60.0722 71.2575 60.0175 71.2926 59.9625 71.327C59.7032 71.489 59.4417 71.6477 59.1783 71.803C59.1227 71.8358 59.0666 71.868 59.0108 71.9006C58.7727 72.0395 58.5333 72.1756 58.2925 72.3089C58.2502 72.3323 58.2082 72.3564 58.1658 72.3795C57.8977 72.5262 57.6278 72.6696 57.3561 72.8095C57.2924 72.8425 57.2283 72.8748 57.1644 72.9075C56.8977 73.0431 56.63 73.1764 56.3605 73.3052L56.3232 73.3233C55.9786 73.487 55.6315 73.6453 55.2821 73.7983C55.0024 73.9213 54.7212 74.0408 54.4385 74.1567C54.4041 74.1708 54.3696 74.1841 54.3352 74.198C54.0761 74.3028 53.8157 74.4047 53.5543 74.5036C53.4903 74.5278 53.4264 74.5523 53.3624 74.5761C53.0789 74.6817 52.7943 74.7839 52.5082 74.8823C52.4522 74.9016 52.3958 74.92 52.3397 74.9391C52.0842 75.0255 51.8278 75.1092 51.5705 75.19C51.5161 75.207 51.4619 75.2247 51.4075 75.2416C51.1185 75.3306 50.8283 75.4161 50.5371 75.498C50.4696 75.517 50.4019 75.5353 50.3344 75.5539C50.0621 75.6289 49.7891 75.7012 49.5149 75.7698C49.483 75.7778 49.4514 75.7864 49.4196 75.7942C49.0506 75.8851 48.6801 75.9703 48.3085 76.0497C48.0086 76.1141 47.7082 76.1758 47.4064 76.2327L47.3913 76.2353L47.3989 76.2261C47.4386 76.1792 47.4778 76.1319 47.5171 76.0839L47.5752 76.0133C47.6631 75.9066 47.7493 75.7985 47.8339 75.6892C47.9215 75.5783 48.0069 75.4657 48.0902 75.3516C48.2016 75.2027 48.3114 75.0506 48.4222 74.892C48.4891 74.7961 48.5568 74.6972 48.6257 74.595C48.6566 74.5492 48.6869 74.5036 48.7168 74.4587C48.77 74.3786 48.8239 74.2969 48.8796 74.2114C48.8857 74.202 48.8958 74.1859 48.9016 74.1764L48.9128 74.1587C48.9238 74.1416 48.9347 74.1244 48.9454 74.1072C49.0938 73.8756 49.2277 73.6584 49.3539 73.4448C49.3699 73.4187 49.3854 73.392 49.4 73.3645C49.4943 73.2043 49.5869 73.0431 49.6777 72.8809C49.7824 72.6968 49.8841 72.5109 49.9827 72.3234C50.032 72.2322 50.0802 72.1405 50.1275 72.0483C50.5094 71.3164 50.888 70.5116 51.2524 69.6561C51.5273 69.012 51.7857 68.3611 52.0275 67.7039C52.1093 67.4848 52.1887 67.2648 52.2658 67.0441C52.3091 66.9225 52.3507 66.8009 52.3935 66.6758C52.4343 66.5584 52.475 66.4409 52.5141 66.322C52.5335 66.2656 52.5527 66.2091 52.5705 66.1526C52.5899 66.0934 52.6093 66.0343 52.6289 65.9752C55.6188 67.1468 58.4346 68.7214 60.9982 70.6553C60.9811 70.6673 60.9641 70.6797 60.9466 70.6914ZM66.571 66.0781C66.0578 66.5898 65.5304 67.0871 64.9896 67.5694C64.5409 67.9677 64.0823 68.3548 63.6144 68.7303C60.5436 66.2991 57.1591 64.3675 53.5227 62.9706C53.5364 62.9192 53.5507 62.8684 53.5646 62.8167L53.5925 62.7123C53.7435 62.1402 53.887 61.5661 54.023 60.9902C54.0966 60.6761 54.1688 60.3589 54.2386 60.0411C54.5067 58.8293 54.745 57.611 54.9533 56.3875C54.9857 56.2045 55.0164 56.0202 55.0474 55.8327C55.2571 54.5509 55.439 53.2647 55.5928 51.975L55.6018 51.8981H75.4143C73.6085 57.2109 70.6047 62.0456 66.571 66.0781ZM76.7279 46.9123C76.6092 47.536 76.4745 48.1564 76.3238 48.7731H55.9172C55.9238 48.6945 55.931 48.6148 55.9374 48.537C55.9488 48.4055 55.9588 48.2739 55.968 48.1508C55.9819 47.9781 55.9949 47.8055 56.0074 47.6337C56.0152 47.5286 56.0236 47.4242 56.0314 47.3184C56.0322 47.3087 56.0328 47.2991 56.0333 47.2892L56.0471 47.068L56.0479 47.0562C56.0552 46.9622 56.0614 46.867 56.0674 46.773L56.0685 46.7562C56.0939 46.3584 56.1177 45.9573 56.1383 45.5591C56.2355 43.7409 56.2847 41.8702 56.2847 39.9989C56.2847 38.1277 56.2355 36.2569 56.1378 34.4295L56.1266 34.2156C56.1231 34.1361 56.119 34.0565 56.1141 33.977L56.1127 33.9533C56.0989 33.7214 56.0843 33.4895 56.0689 33.2577C56.0622 33.1448 56.0554 33.0336 56.048 32.9353C56.038 32.7828 56.0274 32.6303 56.0163 32.4778H65.3204C66.1833 32.4778 66.8829 31.7783 66.8829 30.9153C66.8829 30.0523 66.1833 29.3528 65.3204 29.3528H55.7403C55.6748 28.7256 55.6028 28.099 55.5244 27.4733C55.4909 27.2011 55.4557 26.9291 55.4188 26.6573C55.289 25.688 55.1423 24.721 54.9788 23.7567L54.9436 23.5533C54.9165 23.394 54.8886 23.2348 54.8599 23.0758L54.7779 22.6195C54.7289 22.3578 54.6802 22.0975 54.6299 21.8336C54.4381 20.8477 54.2257 19.866 53.9929 18.8891C53.9344 18.6391 53.8744 18.3909 53.8155 18.157L53.8082 18.1273C53.7449 17.8744 53.6803 17.6218 53.6143 17.3695C53.5835 17.253 53.5532 17.1403 53.5229 17.0275C57.1604 15.6302 60.5438 13.6987 63.6122 11.2684C64.0807 11.645 64.5402 12.0329 64.99 12.4316C65.5305 12.9124 66.0567 13.409 66.568 13.9208C73.5364 20.8831 77.3739 30.1445 77.3739 39.9995C77.3739 42.3209 77.1564 44.6472 76.7279 46.9123Z" fill="black"/>
<path id="Vector_2" d="M73.2727 30.6096C73.2539 30.5096 73.2227 30.4111 73.1836 30.3174C73.1445 30.2236 73.0961 30.133 73.0398 30.0471C72.9836 29.9627 72.918 29.883 72.8461 29.8096C72.7738 29.737 72.6942 29.6721 72.6086 29.6158C72.5235 29.5591 72.4329 29.5109 72.3383 29.4721C72.2445 29.433 72.1461 29.4033 72.0461 29.383C71.845 29.3424 71.6378 29.3424 71.4367 29.383C71.3367 29.4033 71.2383 29.433 71.1445 29.4721C71.0492 29.5111 70.9586 29.5596 70.8742 29.6158C70.7883 29.6721 70.7086 29.7377 70.6367 29.8096C70.5648 29.883 70.4992 29.9627 70.443 30.0471C70.3867 30.133 70.3383 30.2236 70.2992 30.3174C70.2602 30.4111 70.2289 30.5096 70.2102 30.6096C70.1898 30.7111 70.1789 30.8127 70.1789 30.9158C70.1789 31.0174 70.1898 31.1189 70.2102 31.2205C70.2289 31.3205 70.2602 31.4189 70.2992 31.5127C70.3383 31.6064 70.3867 31.6971 70.443 31.7814C70.4992 31.8674 70.5648 31.9471 70.6367 32.0205C70.7088 32.0924 70.7883 32.1564 70.8742 32.2143C70.9586 32.2705 71.0492 32.3189 71.1445 32.358C71.3336 32.437 71.5365 32.4773 71.7414 32.4768C71.9463 32.4773 72.1492 32.437 72.3383 32.358C72.4329 32.3192 72.5235 32.271 72.6086 32.2143C72.6945 32.1564 72.7742 32.0924 72.8461 32.0205C72.918 31.9471 72.9836 31.8674 73.0398 31.7814C73.0961 31.6971 73.1445 31.6064 73.1836 31.5127C73.2227 31.4189 73.2539 31.3205 73.2727 31.2205C73.293 31.1189 73.3039 31.0174 73.3039 30.9158C73.3039 30.8127 73.293 30.7113 73.2727 30.6096ZM10.7891 50.0307C10.7703 49.9307 10.7391 49.8322 10.7 49.7385C10.6612 49.6438 10.613 49.5533 10.5563 49.4682C10.5 49.3826 10.435 49.303 10.3625 49.2307C10.2902 49.1581 10.2106 49.0932 10.125 49.0369C10.0399 48.9802 9.94934 48.932 9.85469 48.8932C9.76094 48.8541 9.6625 48.8244 9.5625 48.8041C9.36141 48.7635 9.15422 48.7635 8.95312 48.8041C8.85312 48.8244 8.75469 48.8541 8.66094 48.8932C8.56563 48.9322 8.475 48.9807 8.39063 49.0369C8.30469 49.0932 8.225 49.1588 8.15313 49.2307C8.08125 49.3025 8.01563 49.3822 7.95938 49.4682C7.90313 49.5524 7.85469 49.6432 7.81563 49.7385C7.77656 49.8322 7.74531 49.9307 7.72656 50.0307C7.70625 50.1307 7.69531 50.2338 7.69531 50.3354C7.69531 50.4369 7.70625 50.54 7.72656 50.64C7.74531 50.74 7.77656 50.8385 7.81563 50.9338C7.85469 51.0275 7.90297 51.1182 7.95938 51.2025C8.01563 51.2885 8.08125 51.3682 8.15313 51.44C8.225 51.5119 8.30469 51.5775 8.39063 51.6338C8.475 51.69 8.56563 51.7385 8.66094 51.7775C8.75469 51.8166 8.85312 51.8479 8.95312 51.8682C9.05312 51.8869 9.15625 51.8979 9.25781 51.8979C9.66875 51.8979 10.0719 51.7307 10.3625 51.44C10.4344 51.3682 10.5 51.2885 10.5563 51.2025C10.6125 51.1182 10.6609 51.0275 10.7 50.9338C10.7391 50.8385 10.7703 50.74 10.7891 50.64C10.8094 50.54 10.8203 50.4369 10.8203 50.3354C10.8203 50.2338 10.8094 50.1307 10.7891 50.0307Z" fill="black"/>
</g>
<circle id="Ellipse 2" cx="58" cy="62.5" r="17.5" fill="white"/>
<g id="Group 3">
<path id="Vector_3" d="M66.6983 53.8018C61.6293 48.7327 53.3815 48.7327 48.3126 53.8018C44.1151 57.9992 43.2894 64.4962 46.3051 69.6011C46.5948 70.0918 47.2275 70.2545 47.7182 69.9647C48.2088 69.6749 48.3716 69.0422 48.0818 68.5516C45.5453 64.2578 46.2402 58.7923 49.7716 55.261C54.036 50.9965 60.9746 50.9965 65.2389 55.261C69.5034 59.5253 69.5034 66.464 65.2389 70.7282C61.7074 74.2597 56.2421 74.9546 51.9483 72.4181C51.4579 72.1283 50.8251 72.291 50.5352 72.7817C50.2453 73.2722 50.4082 73.905 50.8987 74.1948C52.8968 75.3771 55.1759 76.0005 57.4976 75.9998C60.8602 75.9998 64.1899 74.6955 66.6982 72.1874C71.7673 67.1186 71.7673 58.8708 66.6983 53.8018Z" fill="#33CCCC"/>
<path id="Vector_4" d="M49.772 70.7279L49.7634 70.7193C49.3604 70.3164 48.707 70.3163 48.3041 70.7193C47.9012 71.1223 47.9012 71.7757 48.3041 72.1786L48.3127 72.1871C48.4084 72.2831 48.5221 72.3592 48.6473 72.4111C48.7725 72.4629 48.9067 72.4895 49.0422 72.4893C49.3063 72.4893 49.5704 72.3886 49.772 72.1871C50.175 71.7842 50.175 71.1309 49.772 70.7279ZM65.7174 57.6215C65.3145 57.2186 64.6611 57.2187 64.2582 57.6215L55.7019 66.1781L50.753 61.229C50.3501 60.8262 49.6967 60.8263 49.2939 61.229C48.891 61.6319 48.891 62.2853 49.2939 62.6882L54.9724 68.3668C55.1659 68.5603 55.4283 68.669 55.7019 68.669C55.9755 68.669 56.2379 68.5603 56.4315 68.3668L65.7174 59.0806C66.1204 58.6778 66.1203 58.0246 65.7174 57.6215Z" fill="#33CCCC"/>
</g>
</g>
<defs>
<clipPath id="clip0_82_1221">
<rect width="80" height="80" fill="white" transform="translate(0.5)"/>
</clipPath>
</defs>
</svg>
