<svg width="81" height="80" viewBox="0 0 81 80" fill="none" xmlns="http://www.w3.org/2000/svg">
<g id="icon_consultation" clip-path="url(#clip0_82_1204)">
<g id="Group">
<path id="Vector" d="M9.875 42.5C12.0324 42.5 13.7812 40.7511 13.7812 38.5938C13.7812 36.4364 12.0324 34.6875 9.875 34.6875C7.71764 34.6875 5.96875 36.4364 5.96875 38.5938C5.96875 40.7511 7.71764 42.5 9.875 42.5Z" stroke="black" stroke-width="3" stroke-miterlimit="22.9256" stroke-linecap="round" stroke-linejoin="round"/>
<path id="Vector_2" d="M8.3125 66.5889C4.875 66.5889 2.0625 63.7764 2.0625 60.3389V50.9639C2.0625 46.6492 5.56031 43.1514 9.875 43.1514C14.1897 43.1514 17.6875 46.649 17.6875 50.9639V57.2139H21.5938C23.3123 57.2139 24.7188 58.6206 24.7188 60.3389V78.4378H17.6875V66.5889H8.3125ZM8.3125 66.5889V78.4378" stroke="black" stroke-width="3" stroke-miterlimit="22.9256" stroke-linecap="round" stroke-linejoin="round"/>
<path id="Vector_3" d="M74.9829 39.2191C75.3285 37.0896 73.8824 35.0831 71.7529 34.7375C69.6234 34.3918 67.617 35.838 67.2713 37.9674C66.9257 40.0969 68.3718 42.1034 70.5013 42.4491C72.6308 42.7947 74.6373 41.3486 74.9829 39.2191Z" stroke="#33CCCC" stroke-width="3" stroke-miterlimit="22.9256" stroke-linecap="round" stroke-linejoin="round"/>
<path id="Vector_4" d="M72.6875 66.5885C76.1249 66.5885 78.9374 63.776 78.9374 60.3385V50.9636C78.9374 46.6489 75.4396 43.1511 71.125 43.1511C66.8103 43.1511 63.3125 46.6487 63.3125 50.9636V57.2135H59.4063C57.6877 57.2135 56.2813 58.6202 56.2813 60.3385V78.4374H63.3125V66.5885H72.6875ZM72.6875 66.5885V78.4374M56.1249 50.1823H24.875M47.5311 78.4374H33.4687M43.6249 77.6561V50.9636M37.3749 77.6561V50.9636M49.5529 40.0583C46.7405 41.4586 43.6416 42.1874 40.4999 42.1873C29.2817 42.1873 20.1875 33.0932 20.1875 21.8749C20.1875 18.7982 20.8727 15.8817 22.0972 13.2685M31.8925 3.47265C34.506 2.24812 37.4227 1.5625 40.4999 1.5625C51.7182 1.5625 60.8123 10.6567 60.8123 21.8749C60.8123 26.6404 59.1368 31.2541 56.0789 34.9091" stroke="#33CCCC" stroke-width="3" stroke-miterlimit="22.9256" stroke-linecap="round" stroke-linejoin="round"/>
<path id="Vector_5" d="M31.9062 18.3069C33.3409 12.8073 40.8534 16.7987 37.0147 21.0644C35.372 22.8895 32.4763 25.9992 31.9062 28.125H38.1562M48.3136 22.6558H42.8439L43.6244 15.625M49.0941 15.625V28.125M59.5058 35.5912L54.8631 36.2381L54.2162 31.5955" stroke="black" stroke-width="3" stroke-miterlimit="22.9256" stroke-linecap="round" stroke-linejoin="round"/>
<path id="Vector_6" d="M26.1357 7.51278L26.1368 7.51172" stroke="black" stroke-width="3" stroke-miterlimit="2.6131" stroke-linecap="round" stroke-linejoin="round"/>
</g>
</g>
<defs>
<clipPath id="clip0_82_1204">
<rect width="80" height="80" fill="white" transform="translate(0.5)"/>
</clipPath>
</defs>
</svg>
