<svg width="81" height="80" viewBox="0 0 81 80" fill="none" xmlns="http://www.w3.org/2000/svg">
<g id="icon_data transfer" clip-path="url(#clip0_82_1229)">
<path id="Vector" d="M5.18749 49.3748C6.90623 49.3748 8.31248 47.9686 8.31248 46.2498V21.2499C8.31248 19.5312 9.71872 18.125 11.4375 18.125H23.1557M5.18749 49.3748H28.1563M5.18749 49.3748C3.47078 49.3748 2.0625 47.9686 2.0625 46.2498V8.74999C2.0625 7.03124 3.46874 5.625 5.18749 5.625H14.8167C16.8088 5.625 18.0568 6.48593 18.9388 8.21061L20.8127 11.875H42.6873C44.4061 11.875 45.8123 13.2829 45.8123 15V17.3437M37.2181 18.1251H48.9373C50.6561 18.1251 52.0623 19.5332 52.0623 21.2501V36.0939" stroke="black" stroke-width="3" stroke-miterlimit="22.9256" stroke-linecap="round" stroke-linejoin="round"/>
<path id="Vector_2" d="M32.0625 74.3749C33.7813 74.3749 35.1875 72.9687 35.1875 71.2499V46.25C35.1875 44.5313 36.5938 43.125 38.3125 43.125H75.8124C77.5311 43.125 78.9374 44.5332 78.9374 46.25V71.2499C78.9374 72.9669 77.5294 74.3749 75.8124 74.3749H32.0625ZM32.0625 74.3749C30.3457 74.3749 28.9376 72.9687 28.9376 71.2499V33.7501C28.9376 32.0313 30.3438 30.6251 32.0625 30.6251H41.6917C43.6839 30.6251 44.9319 31.486 45.8139 33.2107L47.6878 36.8751H69.5626C71.2813 36.8751 72.6875 38.283 72.6875 40V42.3438M22.3749 66.6099L13.2876 74.3749V70.6202C6.95264 70.6202 2.0625 66.581 2.0625 57.0847C4.89686 61.994 8.79201 62.5996 13.2876 62.5996V58.845L22.3749 66.6099ZM58.6249 19.64L67.7122 11.875V15.6297C74.0472 15.6297 78.9374 19.6689 78.9374 29.1651C76.103 24.2557 72.2078 23.6501 67.7122 23.6501V27.4048L58.6249 19.64Z" stroke="#33CCCC" stroke-width="3" stroke-miterlimit="22.9256" stroke-linecap="round" stroke-linejoin="round"/>
<path id="Vector_3" d="M30.1865 18.125H30.1875" stroke="black" stroke-width="3" stroke-miterlimit="2.6131" stroke-linecap="round" stroke-linejoin="round"/>
</g>
<defs>
<clipPath id="clip0_82_1229">
<rect width="80" height="80" fill="white" transform="translate(0.5)"/>
</clipPath>
</defs>
</svg>
