<svg width="81" height="80" viewBox="0 0 81 80" fill="none" xmlns="http://www.w3.org/2000/svg">
<g id="icon_homenet" clip-path="url(#clip0_82_1233)">
<g id="Group">
<path id="Vector" d="M35.1978 8.90625H70.5C71.363 8.90625 72.0625 8.20672 72.0625 7.34375C72.0625 6.48078 71.363 5.78125 70.5 5.78125H35.1978C34.3348 5.78125 33.6353 6.48078 33.6353 7.34375C33.6353 8.20672 34.3348 8.90625 35.1978 8.90625ZM16.75 8.90625C17.1608 8.90625 17.5641 8.73906 17.8547 8.44844C18.1466 8.15471 18.3111 7.75784 18.3125 7.34375C18.3125 6.93234 18.1453 6.52969 17.8547 6.23906C17.5641 5.94844 17.1608 5.78125 16.75 5.78125C16.3392 5.78125 15.9359 5.94844 15.6453 6.23906C15.3533 6.53272 15.1888 6.92963 15.1875 7.34375C15.1875 7.75453 15.3547 8.15781 15.6453 8.44844C15.939 8.74033 16.3359 8.9048 16.75 8.90625ZM10.5 8.90625C10.9108 8.90625 11.3141 8.73906 11.6047 8.44844C11.8966 8.15471 12.0611 7.75784 12.0625 7.34375C12.0625 6.93234 11.8953 6.52969 11.6047 6.23906C11.3141 5.94844 10.9108 5.78125 10.5 5.78125C10.0892 5.78125 9.68594 5.94844 9.39531 6.23906C9.10332 6.53272 8.93883 6.92963 8.9375 7.34375C8.9375 7.75453 9.10469 8.15781 9.39531 8.44844C9.68904 8.74033 10.0859 8.9048 10.5 8.90625ZM23 8.90625C23.4108 8.90625 23.8141 8.73906 24.1047 8.44844C24.3966 8.15471 24.5611 7.75784 24.5625 7.34375C24.5625 6.93234 24.3953 6.52969 24.1047 6.23906C23.8141 5.94844 23.4108 5.78125 23 5.78125C22.5892 5.78125 22.1859 5.94844 21.8953 6.23906C21.6033 6.53272 21.4388 6.92963 21.4375 7.34375C21.4375 7.75453 21.6047 8.15781 21.8953 8.44844C22.189 8.74033 22.5859 8.9048 23 8.90625Z" fill="#33CCCC"/>
<path id="Vector_2" d="M75.8125 0.15625H5.1875C2.60266 0.15625 0.5 2.25891 0.5 4.84375V69.2091C0.5 71.7937 2.60266 73.8966 5.1875 73.8966H75.8125C78.3973 73.8966 80.5 71.7937 80.5 69.2091V4.84375C80.5 2.25891 78.3973 0.15625 75.8125 0.15625ZM5.1875 3.28125H75.8125C76.6744 3.28125 77.375 3.98187 77.375 4.84375V11.4062H3.78187C3.72875 11.4062 3.67625 11.4094 3.625 11.4141V4.84375C3.625 3.98187 4.32562 3.28125 5.1875 3.28125ZM45.8125 70.7716H35.1875V53.8966H45.8125V70.7716ZM48.9375 70.7716V52.3341C48.9375 51.4709 48.238 50.7716 47.375 50.7716H33.625C32.762 50.7716 32.0625 51.4709 32.0625 52.3341V70.7716H22.6875V45.2531H58.3125V70.7712L48.9375 70.7716ZM20.1625 42.1281L23.8997 38.9989H32.0625C32.9255 38.9989 33.625 38.2994 33.625 37.4364C33.625 36.5734 32.9255 35.8739 32.0625 35.8739H27.6313L40.5 25.0983L60.8375 42.1281H20.1625ZM56.6286 34.5281L52.8786 31.3878V27.5628H56.6286V34.5281ZM75.8125 70.7712H61.4375V45.2533H63.7594C64.637 45.2533 65.3981 44.7205 65.6984 43.8953C65.9981 43.07 65.757 42.1722 65.0837 41.6083L59.7536 37.1453V26.0003C59.7536 25.1378 59.0541 24.4378 58.1911 24.4378H51.3161C50.453 24.4378 49.7536 25.1378 49.7536 26.0003V28.7714L41.5034 21.8622C41.2221 21.6268 40.8669 21.4978 40.5 21.4978C40.1331 21.4978 39.7779 21.6268 39.4966 21.8622L15.9163 41.6083C15.243 42.1723 15.0019 43.0695 15.3016 43.8953C15.6013 44.7203 16.363 45.2533 17.2406 45.2533H19.5625V70.7714H5.1875C4.32562 70.7714 3.625 70.0702 3.625 69.2089V14.5234C3.67625 14.5289 3.72875 14.5314 3.78187 14.5314H77.375V69.2092C77.375 70.0709 76.6744 70.7717 75.8125 70.7717V70.7712Z" fill="black"/>
<path id="Vector_3" d="M38.3125 35.875C37.9017 35.875 37.4984 36.0409 37.2078 36.3316C36.9162 36.6255 36.7518 37.0222 36.75 37.4362C36.75 37.8487 36.9172 38.2517 37.2078 38.5422C37.4984 38.8328 37.9017 38.9987 38.3125 38.9987C38.7233 38.9987 39.1266 38.8327 39.4172 38.5422C39.7094 38.2482 39.8739 37.8508 39.875 37.4362C39.8732 37.0222 39.7088 36.6255 39.4172 36.3316C39.1233 36.04 38.7264 35.876 38.3125 35.875Z" fill="#33CCCC"/>
</g>
</g>
<defs>
<clipPath id="clip0_82_1233">
<rect width="80" height="80" fill="white" transform="translate(0.5)"/>
</clipPath>
</defs>
</svg>
