<svg width="81" height="80" viewBox="0 0 81 80" fill="none" xmlns="http://www.w3.org/2000/svg">
<g id="icon_email" clip-path="url(#clip0_82_1212)">
<g id="Group">
<path id="Vector" d="M58.7772 30.4486V30.448L59.8247 26.5385C60.095 25.5308 59.9139 24.5149 59.3288 23.7516C58.7569 23.0068 57.8561 22.5791 56.8567 22.5791H12.0839C10.2972 22.5791 8.52687 23.9607 8.05391 25.725L0.622186 53.4608C0.414061 54.2377 0.474843 55.0185 0.781405 55.6855C0.786405 55.6971 0.792343 55.7088 0.797811 55.7205C0.886025 55.907 0.99365 56.0837 1.11891 56.2477C1.69062 56.9925 2.59156 57.4199 3.59078 57.4199H48.3638C49.5122 57.4199 50.6517 56.8474 51.4464 55.9708C51.5292 55.8918 51.603 55.8038 51.6666 55.7086C51.9991 55.28 52.2538 54.7946 52.3934 54.2739L58.7772 30.4496C58.7769 30.4493 58.777 30.4489 58.7772 30.4486ZM8.72953 35.3464C8.7964 35.3974 8.86203 35.4493 8.93187 35.4975L17.1956 41.1418C17.2459 41.1761 17.2977 41.2071 17.3505 41.235L18.1583 41.7866L12.0312 46.1544C11.97 46.1866 11.9103 46.2236 11.8528 46.2643L4.37594 51.5943L8.72953 35.3464ZM6.02734 54.2768L13.4983 48.9511C13.5655 48.9158 13.6305 48.8754 13.6928 48.8299L20.9236 43.6752L25.4209 46.7468C26.3202 47.3763 27.4195 47.6929 28.5845 47.6929C29.6512 47.6929 30.7728 47.4274 31.8447 46.8939L38.4888 43.5716L42.5844 48.2961C42.6172 48.3338 42.6519 48.3705 42.6881 48.4047C42.7441 48.4585 42.7977 48.5148 42.8486 48.5735L47.7927 54.2771H6.02734V54.2768ZM49.8031 51.7975L45.2211 46.5114C45.1232 46.3989 45.021 46.2902 44.9147 46.1855L41.3909 42.1208L42.8164 41.4082C42.9294 41.3578 43.0414 41.3051 43.1522 41.25L54.0442 35.8035C54.0614 35.7958 54.078 35.7869 54.0953 35.7793L49.8031 51.7975ZM56.7889 25.725L55.7414 29.6352L55.7411 29.6358C55.37 31.0213 54.1998 32.3163 52.7602 32.9341C52.732 32.9463 52.7044 32.9589 52.677 32.9727L41.7481 38.4377C41.6709 38.476 41.593 38.5127 41.5155 38.5463C41.4916 38.5569 41.4675 38.5682 41.4442 38.5797L30.4416 44.0813C29.2325 44.6832 27.998 44.7172 27.2202 44.1697C27.2142 44.1655 27.2083 44.1611 27.202 44.1572L19.013 38.5643C18.9514 38.5196 18.8866 38.4796 18.8191 38.4446L10.7069 32.9033C10.0144 32.4288 9.77031 31.5108 10.0542 30.4472C10.0702 30.388 10.0822 30.3282 10.0906 30.2679L11.0897 26.5388C11.2056 26.1068 11.7422 25.7222 12.0841 25.7222H56.7897L56.7889 25.725ZM71.4966 52.2958H57.623C56.7552 52.2958 56.0514 52.9996 56.0514 53.8674C56.0514 54.7354 56.7552 55.4389 57.623 55.4389H71.4966C72.3645 55.4389 73.0681 54.7354 73.0681 53.8674C73.068 52.9997 72.3645 52.2958 71.4966 52.2958ZM62.5775 36.9483H70.1897C71.0577 36.9483 71.7612 36.2447 71.7612 35.3768C71.7612 34.5091 71.0577 33.8052 70.1897 33.8052H62.5775C61.7095 33.8052 61.0059 34.5091 61.0059 35.3768C61.0059 35.5831 61.0466 35.7875 61.1255 35.9782C61.2045 36.1689 61.3203 36.3421 61.4662 36.4881C61.6121 36.634 61.7854 36.7498 61.9761 36.8287C62.1667 36.9077 62.3711 36.9483 62.5775 36.9483ZM78.9284 24.56H65.0548C64.1869 24.56 63.4833 25.2639 63.4833 26.1316C63.4833 26.9996 64.1869 27.7032 65.0548 27.7032H78.9284C79.7964 27.7032 80.5 26.9996 80.5 26.1316C80.4998 25.2639 79.7964 24.56 78.9284 24.56Z" fill="black"/>
<path id="Vector_2" d="M14.8889 32.008H14.9263C15.7943 32.008 16.4979 31.3044 16.4979 30.4364C16.4979 29.5688 15.7943 28.8649 14.9263 28.8649H14.8889C14.021 28.8649 13.3174 29.5688 13.3174 30.4364C13.3174 31.3044 14.0208 32.008 14.8889 32.008ZM19.441 32.0074H27.4614C28.3293 32.0074 29.033 31.3038 29.033 30.4358C29.033 29.5682 28.3293 28.8643 27.4614 28.8643H19.441C18.5732 28.8643 17.8694 29.5682 17.8694 30.4358C17.8696 31.3038 18.5732 32.0074 19.441 32.0074ZM73.9741 43.0511H73.9368C73.0689 43.0511 72.3652 43.7549 72.3652 44.6227C72.3652 45.4907 73.0689 46.1943 73.9368 46.1943H73.9741C74.8421 46.1943 75.5457 45.4907 75.5457 44.6227C75.5455 43.755 74.8422 43.0511 73.9741 43.0511ZM58.5289 44.6221C58.5289 45.49 59.2324 46.1936 60.1005 46.1936H69.4218C70.2897 46.1936 70.9933 45.49 70.9933 44.6221C70.9933 43.7544 70.2897 43.0505 69.4218 43.0505H60.1005C59.2325 43.0505 58.5289 43.7544 58.5289 44.6221Z" fill="#33CCCC"/>
</g>
</g>
<defs>
<clipPath id="clip0_82_1212">
<rect width="80" height="80" fill="white" transform="translate(0.5)"/>
</clipPath>
</defs>
</svg>
