<svg width="81" height="80" viewBox="0 0 81 80" fill="none" xmlns="http://www.w3.org/2000/svg">
<g id="icon_domen" clip-path="url(#clip0_82_1216)">
<g id="Group">
<path id="Vector" d="M52.7091 7.25905C53.5737 7.25905 54.2747 6.55812 54.2747 5.69349C54.2747 4.82885 53.5737 4.12793 52.7091 4.12793C51.8445 4.12793 51.1436 4.82885 51.1436 5.69349C51.1436 6.55812 51.8445 7.25905 52.7091 7.25905Z" fill="black"/>
<path id="Vector_2" d="M72.4118 17.4481H61.6884C61.1538 14.6362 60.0546 11.9339 58.4621 9.55037C57.9816 8.83131 57.0096 8.63812 56.2905 9.11843C55.5716 9.59875 55.3783 10.571 55.8586 11.2899C57.1076 13.1591 58.001 15.2581 58.492 17.4481H48.3004C45.2762 17.4481 42.8158 19.9086 42.8158 22.9328V40.2456C42.7336 40.2414 42.6512 40.2436 42.5693 40.2522C41.8739 40.3303 41.1639 40.3699 40.4591 40.3699C37.9401 40.3698 35.4471 39.8606 33.1298 38.873C33.866 38.1322 34.5354 37.3278 35.13 36.4692C37.1644 33.5288 38.2398 30.0783 38.2398 26.4905C38.2398 18.8094 33.2843 12.2647 26.4029 9.88305C29.8713 5.62975 35.0739 3.13112 40.6096 3.13112C42.6216 3.13112 44.5985 3.45472 46.4854 4.09315C47.3042 4.3701 48.1931 3.9308 48.4701 3.1117C48.7472 2.29276 48.3077 1.40415 47.4888 1.12705C45.2781 0.379178 42.9636 0 40.6096 0C33.6297 0 27.1029 3.39241 23.0791 9.08775C22.2814 8.97768 21.4771 8.92234 20.6719 8.92211C10.9845 8.92211 3.10352 16.8033 3.10352 26.4905C3.10352 30.0783 4.1789 33.5288 6.21334 36.4692C7.99369 39.0424 10.3953 41.0735 13.2036 42.3919V73.0552C13.2036 73.273 13.249 73.4884 13.337 73.6876C13.425 73.8869 13.5536 74.0656 13.7146 74.2123L19.6172 79.5917C19.916 79.864 20.2938 80 20.6717 80C21.0497 80 21.4274 79.864 21.7263 79.5917L27.6289 74.2123C27.7899 74.0656 27.9185 73.8869 28.0065 73.6876C28.0945 73.4884 28.1399 73.273 28.1399 73.0552V66.4974C28.1399 66.1031 27.9911 65.7233 27.7232 65.4339L25.168 62.6737L27.7404 59.8026C27.9933 59.5203 28.1353 59.1558 28.1399 58.7768C28.1445 58.3978 28.0114 58.03 27.7654 57.7417L25.1693 54.699L27.6947 52.1121C27.9802 51.8197 28.1401 51.4272 28.1401 51.0186V42.3919C28.9467 42.0125 29.7233 41.5722 30.463 41.0749C33.5378 42.6632 36.9714 43.5011 40.4596 43.5011C41.2461 43.5011 42.038 43.4575 42.8161 43.3739V58.6348C42.8161 61.659 45.2765 64.1195 48.3007 64.1195H72.412C75.4362 64.1195 77.8966 61.659 77.8966 58.6348V22.9328C77.8965 19.9086 75.436 17.4481 72.4118 17.4481ZM25.9964 39.9094C25.705 40.0251 25.4551 40.2257 25.279 40.4851C25.1029 40.7445 25.0088 41.0508 25.0088 41.3644V50.3811L21.9303 53.5346C21.6574 53.814 21.4989 54.1854 21.4858 54.5758C21.4727 54.9662 21.606 55.3473 21.8595 55.6445L24.4948 58.733L21.8846 61.6465C21.6244 61.9369 21.4819 62.314 21.4851 62.7039C21.4882 63.0938 21.6368 63.4685 21.9016 63.7547L25.0088 67.1109V72.364L20.6717 76.3166L16.3347 72.364V41.3644C16.3347 41.0508 16.2406 40.7445 16.0645 40.4851C15.8884 40.2257 15.6385 40.0251 15.3471 39.9094C9.81146 37.7105 6.23463 32.4434 6.23463 26.4905C6.23463 18.5298 12.7112 12.0532 20.6717 12.0532C20.8859 12.0532 21.099 12.0589 21.3109 12.0681C20.6597 13.4032 20.1501 14.8028 19.7905 16.2441C19.769 16.332 19.7552 16.4215 19.7492 16.5118C16.6093 16.9611 14.1874 19.6672 14.1874 22.9295C14.1874 26.505 17.0963 29.414 20.6717 29.414C24.2473 29.414 27.1561 26.505 27.1561 22.9295C27.1561 20.1273 25.3692 17.735 22.8751 16.8312C23.2588 15.3511 23.8283 13.9255 24.57 12.5885C30.6431 14.2937 35.109 19.8802 35.109 26.4905C35.109 31.0268 33.0301 35.1634 29.5918 37.8489C29.4525 37.9242 29.3255 38.0203 29.2151 38.1339C28.2213 38.859 27.1398 39.4555 25.9964 39.9094ZM20.6717 19.5762C22.5208 19.5762 24.025 21.0804 24.025 22.9295C24.025 24.7786 22.5207 26.2829 20.6717 26.2829C18.8228 26.2829 17.3185 24.7786 17.3185 22.9295C17.3185 21.0804 18.8228 19.5762 20.6717 19.5762ZM74.7653 58.6348C74.7653 59.9325 73.7095 60.9883 72.4118 60.9883H48.3005C47.0028 60.9883 45.947 59.9325 45.947 58.6348V22.9328C45.947 21.6351 47.0028 20.5793 48.3005 20.5793H58.9134C58.9275 20.873 58.9358 21.1663 58.9358 21.4574C58.9358 22.3219 59.6367 23.0229 60.5014 23.0229C61.3661 23.0229 62.067 22.3219 62.067 21.4574C62.067 21.166 62.059 20.8728 62.0469 20.5793H72.412C73.7097 20.5793 74.7655 21.6351 74.7655 22.9328L74.7653 58.6348Z" fill="black"/>
<path id="Vector_3" d="M69.8735 39.977L61.3683 32.7687C61.0855 32.529 60.7268 32.3975 60.3561 32.3975C59.9854 32.3975 59.6267 32.529 59.3439 32.7687L50.8385 39.977C50.179 40.5361 50.0974 41.5239 50.6563 42.1837C50.8032 42.3573 50.9863 42.4968 51.1927 42.5924C51.3992 42.688 51.624 42.7373 51.8515 42.7369C52.222 42.7373 52.5805 42.6057 52.8628 42.3657L53.704 41.6529V47.6047C53.704 48.4692 54.4049 49.1703 55.2695 49.1703H65.2634C66.1281 49.1703 66.829 48.4692 66.829 47.6047V41.5012L67.8491 42.3657C68.5087 42.9246 69.4965 42.8429 70.0556 42.1837C70.6147 41.5238 70.5331 40.5361 69.8735 39.977ZM63.6979 46.039H56.8351V38.9991L60.356 36.0152L63.6979 38.8474V46.039Z" fill="#33CCCC"/>
</g>
</g>
<defs>
<clipPath id="clip0_82_1216">
<rect width="80" height="80" fill="white" transform="translate(0.5)"/>
</clipPath>
</defs>
</svg>
