<svg width="81" height="80" viewBox="0 0 81 80" fill="none" xmlns="http://www.w3.org/2000/svg">
<g id="icon_server" clip-path="url(#clip0_82_1247)">
<g id="Group">
<path id="Vector" d="M75.8125 24.375C78.3972 24.375 80.5 22.2722 80.5 19.6875V7.1875C80.5 4.60281 78.3972 2.5 75.8125 2.5H67.7395C66.8766 2.5 66.177 3.19969 66.177 4.0625C66.177 4.92531 66.8766 5.625 67.7395 5.625H75.8125C76.6741 5.625 77.375 6.32594 77.375 7.1875V19.6875C77.375 20.5491 76.6741 21.25 75.8125 21.25H5.1875C4.32594 21.25 3.625 20.5491 3.625 19.6875V7.1875C3.625 6.32594 4.32594 5.625 5.1875 5.625H55.2395C56.1023 5.625 56.802 4.92531 56.802 4.0625C56.802 3.19969 56.1023 2.5 55.2395 2.5H5.1875C2.60281 2.5 0.5 4.60281 0.5 7.1875V19.6875C0.5 22.2722 2.60281 24.375 5.1875 24.375H6.75V29.0625H5.1875C2.60281 29.0625 0.5 31.1653 0.5 33.75V46.25C0.5 48.8347 2.60281 50.9375 5.1875 50.9375H6.75V55.625H5.1875C2.60281 55.625 0.5 57.7278 0.5 60.3125V72.8125C0.5 75.3972 2.60281 77.5 5.1875 77.5H75.8125C78.3972 77.5 80.5 75.3972 80.5 72.8125V60.3125C80.5 57.7278 78.3972 55.625 75.8125 55.625H74.25V50.9375H75.8125C78.3972 50.9375 80.5 48.8347 80.5 46.25V33.75C80.5 31.1653 78.3972 29.0625 75.8125 29.0625H74.25V24.375H75.8125ZM77.375 60.3125V72.8125C77.375 73.6741 76.6741 74.375 75.8125 74.375H5.1875C4.32594 74.375 3.625 73.6741 3.625 72.8125V60.3125C3.625 59.4509 4.32594 58.75 5.1875 58.75H75.8125C76.6741 58.75 77.375 59.4509 77.375 60.3125ZM71.125 55.625H9.875V50.9375H71.125V55.625ZM77.375 33.75V46.25C77.375 47.1116 76.6741 47.8125 75.8125 47.8125H5.1875C4.32594 47.8125 3.625 47.1116 3.625 46.25V33.75C3.625 32.8884 4.32594 32.1875 5.1875 32.1875H75.8125C76.6741 32.1875 77.375 32.8884 77.375 33.75ZM71.125 29.0625H9.875V24.375H71.125V29.0625Z" fill="black"/>
<path id="Vector_2" d="M68 35.3125C65.4153 35.3125 63.3125 37.4153 63.3125 40C63.3125 42.5847 65.4153 44.6875 68 44.6875C70.5847 44.6875 72.6875 42.5847 72.6875 40C72.6875 37.4153 70.5847 35.3125 68 35.3125ZM68 41.5625C67.1384 41.5625 66.4375 40.8616 66.4375 40C66.4375 39.1384 67.1384 38.4375 68 38.4375C68.8616 38.4375 69.5625 39.1384 69.5625 40C69.5625 40.8616 68.8616 41.5625 68 41.5625ZM19.25 35.3125H13C10.4153 35.3125 8.3125 37.4153 8.3125 40C8.3125 42.5847 10.4153 44.6875 13 44.6875H19.25C21.8347 44.6875 23.9375 42.5847 23.9375 40C23.9375 37.4153 21.8347 35.3125 19.25 35.3125ZM19.25 41.5625H13C12.1384 41.5625 11.4375 40.8616 11.4375 40C11.4375 39.1384 12.1384 38.4375 13 38.4375H19.25C20.1116 38.4375 20.8125 39.1384 20.8125 40C20.8125 40.8616 20.1116 41.5625 19.25 41.5625ZM38 35.3125H31.75C29.1653 35.3125 27.0625 37.4153 27.0625 40C27.0625 42.5847 29.1653 44.6875 31.75 44.6875H38C40.5847 44.6875 42.6875 42.5847 42.6875 40C42.6875 37.4153 40.5847 35.3125 38 35.3125ZM38 41.5625H31.75C30.8884 41.5625 30.1875 40.8616 30.1875 40C30.1875 39.1384 30.8884 38.4375 31.75 38.4375H38C38.8616 38.4375 39.5625 39.1384 39.5625 40C39.5625 40.8616 38.8616 41.5625 38 41.5625ZM68 18.125C70.5847 18.125 72.6875 16.0222 72.6875 13.4375C72.6875 10.8528 70.5847 8.75 68 8.75C65.4153 8.75 63.3125 10.8528 63.3125 13.4375C63.3125 16.0222 65.4153 18.125 68 18.125ZM68 11.875C68.8616 11.875 69.5625 12.5759 69.5625 13.4375C69.5625 14.2991 68.8616 15 68 15C67.1384 15 66.4375 14.2991 66.4375 13.4375C66.4375 12.5759 67.1384 11.875 68 11.875ZM13 8.75C10.4153 8.75 8.3125 10.8528 8.3125 13.4375C8.3125 16.0222 10.4153 18.125 13 18.125H19.25C21.8347 18.125 23.9375 16.0222 23.9375 13.4375C23.9375 10.8528 21.8347 8.75 19.25 8.75H13ZM20.8125 13.4375C20.8125 14.2991 20.1116 15 19.25 15H13C12.1384 15 11.4375 14.2991 11.4375 13.4375C11.4375 12.5759 12.1384 11.875 13 11.875H19.25C20.1116 11.875 20.8125 12.5759 20.8125 13.4375ZM31.75 8.75C29.1653 8.75 27.0625 10.8528 27.0625 13.4375C27.0625 16.0222 29.1653 18.125 31.75 18.125H38C40.5847 18.125 42.6875 16.0222 42.6875 13.4375C42.6875 10.8528 40.5847 8.75 38 8.75H31.75ZM39.5625 13.4375C39.5625 14.2991 38.8616 15 38 15H31.75C30.8884 15 30.1875 14.2991 30.1875 13.4375C30.1875 12.5759 30.8884 11.875 31.75 11.875H38C38.8616 11.875 39.5625 12.5759 39.5625 13.4375ZM68 61.875C65.4153 61.875 63.3125 63.9778 63.3125 66.5625C63.3125 69.1472 65.4153 71.25 68 71.25C70.5847 71.25 72.6875 69.1472 72.6875 66.5625C72.6875 63.9778 70.5847 61.875 68 61.875ZM68 68.125C67.1384 68.125 66.4375 67.4241 66.4375 66.5625C66.4375 65.7009 67.1384 65 68 65C68.8616 65 69.5625 65.7009 69.5625 66.5625C69.5625 67.4241 68.8616 68.125 68 68.125ZM19.25 61.875H13C10.4153 61.875 8.3125 63.9778 8.3125 66.5625C8.3125 69.1472 10.4153 71.25 13 71.25H19.25C21.8347 71.25 23.9375 69.1472 23.9375 66.5625C23.9375 63.9778 21.8347 61.875 19.25 61.875ZM19.25 68.125H13C12.1384 68.125 11.4375 67.4241 11.4375 66.5625C11.4375 65.7009 12.1384 65 13 65H19.25C20.1116 65 20.8125 65.7009 20.8125 66.5625C20.8125 67.4241 20.1116 68.125 19.25 68.125ZM38 61.875H31.75C29.1653 61.875 27.0625 63.9778 27.0625 66.5625C27.0625 69.1472 29.1653 71.25 31.75 71.25H38C40.5847 71.25 42.6875 69.1472 42.6875 66.5625C42.6875 63.9778 40.5847 61.875 38 61.875ZM38 68.125H31.75C30.8884 68.125 30.1875 67.4241 30.1875 66.5625C30.1875 65.7009 30.8884 65 31.75 65H38C38.8616 65 39.5625 65.7009 39.5625 66.5625C39.5625 67.4241 38.8616 68.125 38 68.125Z" fill="#33CCCC"/>
<path id="Vector_3" d="M61.4893 5.625C62.3522 5.625 63.0518 4.92544 63.0518 4.0625C63.0518 3.19956 62.3522 2.5 61.4893 2.5C60.6263 2.5 59.9268 3.19956 59.9268 4.0625C59.9268 4.92544 60.6263 5.625 61.4893 5.625Z" fill="black"/>
</g>
</g>
<defs>
<clipPath id="clip0_82_1247">
<rect width="80" height="80" fill="white" transform="translate(0.5)"/>
</clipPath>
</defs>
</svg>
