<svg width="81" height="80" viewBox="0 0 81 80" fill="none" xmlns="http://www.w3.org/2000/svg">
<g id="icon_settings" clip-path="url(#clip0_82_1238)">
<g id="Group">
<path id="Vector" d="M76.2749 37.987C76.2746 37.1243 75.5751 36.4251 74.7124 36.4251H70.5619C69.8424 33.6288 68.7324 30.9478 67.2646 28.4613L70.1998 25.5262C70.8099 24.916 70.8099 23.9267 70.1998 23.3164L61.4034 14.52C60.7932 13.9098 59.8038 13.9098 59.1935 14.52L58.3087 15.4048C58.2257 9.15482 54.8324 3.34874 49.4071 0.210467C49.1696 0.0729845 48.9001 0.000486993 48.6257 0.000271567C48.3513 5.61421e-05 48.0817 0.0721304 47.844 0.20924C47.6062 0.34635 47.4088 0.543657 47.2716 0.781303C47.1344 1.01895 47.0622 1.28855 47.0623 1.56296V13.8442L40.4997 17.6332L33.937 13.8442V1.56281C33.9371 1.28837 33.865 1.01875 33.7278 0.781072C33.5906 0.543398 33.3932 0.346067 33.1554 0.208948C32.9177 0.0718292 32.6481 -0.000238664 32.3736 5.93796e-07C32.0992 0.000239852 31.8297 0.0727778 31.5922 0.210311C26.1741 3.34468 22.7828 9.13935 22.6911 15.3798L21.8161 14.5048C21.2059 13.8947 20.2166 13.8947 19.6063 14.5048L10.8099 23.3012C10.1997 23.9114 10.1997 24.9007 10.8099 25.511L13.7599 28.4609C12.2921 30.9475 11.182 33.6285 10.4624 36.4249H6.28675C5.4241 36.4249 4.72457 37.1241 4.72426 37.9868L4.71973 50.4268C4.71963 50.632 4.75999 50.8353 4.83849 51.0249C4.91699 51.2145 5.0321 51.3868 5.17723 51.5319C5.32228 51.6771 5.49454 51.7923 5.68414 51.8709C5.87375 51.9495 6.07698 51.9899 6.28222 51.9899H10.4621C11.1816 54.7863 12.2916 57.4674 13.7594 59.9541L10.7994 62.9141C10.1892 63.5242 10.1892 64.5136 10.7994 65.1239L19.5958 73.9203C20.2059 74.5303 21.1953 74.5303 21.8056 73.9203L24.7656 70.9603C27.2523 72.4281 29.9335 73.5382 32.73 74.2578V78.4375C32.73 78.8519 32.8946 79.2493 33.1876 79.5424C33.4807 79.8354 33.8781 80 34.2925 80L46.7331 79.9955C47.5957 79.9952 48.295 79.2956 48.295 78.433V74.2575C51.0914 73.538 53.7725 72.4279 56.2592 70.96L59.209 73.91C59.502 74.203 59.8994 74.3676 60.3138 74.3677C60.5191 74.3676 60.7228 74.3271 60.9124 74.2485C61.102 74.1698 61.2742 74.0546 61.4193 73.9094L70.2108 65.1081C70.8204 64.4978 70.8201 63.5091 70.2102 62.8989L67.2651 59.9536C68.7328 57.4671 69.8428 54.7861 70.5624 51.9897H74.7174C74.9226 51.9897 75.1259 51.9493 75.3155 51.8707C75.5051 51.7922 75.6774 51.677 75.8225 51.5319C75.9676 51.3867 76.0827 51.2144 76.1611 51.0248C76.2396 50.8351 76.28 50.6319 76.2799 50.4266L76.2749 37.987ZM30.8119 4.60155V14.7461C30.8119 15.0203 30.884 15.2898 31.0212 15.5273C31.1583 15.7648 31.3556 15.9621 31.5931 16.0992L39.7184 20.7903C39.9559 20.9274 40.2254 20.9996 40.4997 20.9996C40.7739 20.9996 41.0434 20.9274 41.2809 20.7903L49.4062 16.0992C49.6437 15.9621 49.841 15.7648 49.9781 15.5273C50.1153 15.2898 50.1875 15.0203 50.1875 14.7461V4.60155C53.3237 7.36405 55.1876 11.3848 55.1876 15.6389C55.1876 23.7379 48.5987 30.3268 40.4997 30.3268C32.4006 30.3268 25.8117 23.7379 25.8117 15.6389C25.8117 11.3848 27.6756 7.36389 30.8119 4.60155ZM69.326 48.8651C68.9686 48.8651 68.622 48.9874 68.344 49.212C68.066 49.4366 67.8734 49.7497 67.7984 50.0991C67.0894 53.3988 65.8027 56.5066 63.9737 59.3364C63.7797 59.6366 63.6944 59.9942 63.7322 60.3496C63.7699 60.705 63.9283 61.0367 64.181 61.2894L66.896 64.0044L60.3132 70.5945L57.5948 67.8761C57.342 67.6234 57.0103 67.465 56.6549 67.4272C56.2994 67.3895 55.9418 67.4748 55.6417 67.6688C52.8118 69.4975 49.704 70.7845 46.404 71.4936C46.0546 71.5687 45.7415 71.7613 45.5169 72.0393C45.2923 72.3173 45.1698 72.6639 45.1698 73.0213V76.8709L35.855 76.8742V73.0214C35.855 72.664 35.7325 72.3175 35.5079 72.0395C35.2833 71.7615 34.9702 71.5689 34.6208 71.4939C31.3208 70.7849 28.213 69.498 25.3831 67.6689C25.0829 67.4749 24.7253 67.3897 24.3699 67.4274C24.0145 67.4652 23.6828 67.6236 23.43 67.8763L20.7008 70.6055L14.1139 64.0191L16.8431 61.2899C17.0959 61.0372 17.2543 60.7054 17.292 60.35C17.3298 59.9946 17.2445 59.6371 17.0505 59.3369C15.2217 56.5071 13.9349 53.3991 13.2256 50.0993C13.1506 49.7499 12.958 49.4368 12.68 49.2122C12.402 48.9876 12.0554 48.8651 11.698 48.8651H7.8455L7.84878 39.5502H11.6985C12.0558 39.5502 12.4024 39.4277 12.6804 39.2031C12.9584 38.9785 13.151 38.6654 13.2261 38.316C13.9352 35.016 15.2219 31.9082 17.051 29.0785C17.2449 28.7784 17.3302 28.4207 17.2924 28.0653C17.2547 27.7099 17.0963 27.3782 16.8436 27.1254L14.1244 24.4064L20.7109 17.8198L23.3495 20.4584C24.535 24.6717 27.2351 28.2567 30.8223 30.587V60.6478C30.7809 60.6235 30.739 60.6007 30.6978 60.576C29.9583 60.1316 28.9981 60.3713 28.5539 61.1113C28.1097 61.851 28.3494 62.811 29.0892 63.2552C32.6362 65.3849 36.5789 66.4236 40.4948 66.4235C46.227 66.4233 51.9014 64.1974 56.1892 59.9097C59.9857 56.1153 62.277 51.0725 62.6377 45.7169C62.9941 40.4151 61.4441 35.1648 58.2731 30.9334C57.7554 30.2431 56.7763 30.1028 56.0856 30.6201C55.3951 31.1376 55.2548 32.117 55.7723 32.8076C61.4135 40.3354 60.6427 51.0368 53.9795 57.7C52.8468 58.8339 51.5763 59.8211 50.1979 60.6388V42.7618C50.1979 41.899 49.4984 41.1993 48.6354 41.1993C47.7725 41.1993 47.0729 41.899 47.0729 42.7618V62.1232C44.9665 62.8992 42.7394 63.2965 40.4945 63.2969C38.2605 63.2961 36.0442 62.9009 33.9476 62.1294V32.2031C35.9767 33.0085 38.1876 33.4518 40.5 33.4518C48.6401 33.4518 55.5221 27.9634 57.6407 20.4928L60.299 17.8345L66.8855 24.421L64.1812 27.1253C63.9284 27.378 63.77 27.7097 63.7323 28.0652C63.6945 28.4206 63.7798 28.7782 63.9738 29.0784C65.8026 31.9081 67.0894 35.0159 67.7985 38.3157C67.8736 38.6651 68.0662 38.9782 68.3442 39.2028C68.6222 39.4274 68.9688 39.5499 69.3262 39.5499H73.1508L73.1543 48.8647L69.326 48.8651Z" fill="black"/>
<path id="Vector_2" d="M24.8758 30.6622C24.184 30.1466 23.2049 30.2897 22.6893 30.9816C18.0461 37.2131 17.0188 45.5523 20.0083 52.745C20.1268 53.0302 20.3271 53.274 20.584 53.4454C20.8409 53.6169 21.1429 53.7083 21.4518 53.7083C21.6516 53.7083 21.8549 53.6697 22.0508 53.5881C22.8477 53.257 23.2252 52.3426 22.894 51.5458C20.3252 45.3656 21.2071 38.2014 25.195 32.8489C25.711 32.1569 25.5679 31.178 24.8758 30.6622ZM25.5661 56.2412L25.5633 56.2384C24.9533 55.6289 23.9602 55.6239 23.3497 56.2334C22.7393 56.843 22.7429 57.8361 23.3521 58.447C23.498 58.5935 23.6714 58.7096 23.8624 58.7887C24.0534 58.8678 24.2582 58.9084 24.4649 58.9081C24.8633 58.9081 25.2618 58.7575 25.5655 58.4548C26.1768 57.8461 26.1744 56.853 25.5661 56.2412ZM49.7402 35.1975C49.4465 34.9055 49.0496 34.7411 48.6355 34.7397C48.223 34.7397 47.8199 34.9069 47.5308 35.1975C47.2383 35.4908 47.0737 35.8879 47.073 36.3022C47.073 36.7147 47.2386 37.1162 47.5308 37.4069C47.8215 37.6991 48.223 37.8647 48.6355 37.8647C49.0465 37.8647 49.4496 37.6991 49.7402 37.4069C50.0308 37.1162 50.198 36.7147 50.198 36.3022C50.198 35.8912 50.0308 35.4881 49.7402 35.1975Z" fill="#33CCCC"/>
</g>
</g>
<defs>
<clipPath id="clip0_82_1238">
<rect width="80" height="80" fill="white" transform="translate(0.5)"/>
</clipPath>
</defs>
</svg>
