<svg width="216" height="216" viewBox="0 0 216 216" fill="none" xmlns="http://www.w3.org/2000/svg">
<rect width="216" height="216" fill="#ADADAD"/>
<path d="M-1163 -3423C-1163 -3424.1 -1162.1 -3425 -1161 -3425H6502C6503.1 -3425 6504 -3424.1 6504 -3423V2287C6504 2288.1 6503.1 2289 6502 2289H-1161C-1162.1 2289 -1163 2288.1 -1163 2287V-3423Z" fill="#858585"/>
<path d="M-1161 -3424H6502V-3426H-1161V-3424ZM6503 -3423V2287H6505V-3423H6503ZM6502 2288H-1161V2290H6502V2288ZM-1162 2287V-3423H-1164V2287H-1162ZM-1161 2288C-1161.55 2288 -1162 2287.55 -1162 2287H-1164C-1164 2288.66 -1162.66 2290 -1161 2290V2288ZM6503 2287C6503 2287.55 6502.55 2288 6502 2288V2290C6503.66 2290 6505 2288.66 6505 2287H6503ZM6502 -3424C6502.55 -3424 6503 -3423.55 6503 -3423H6505C6505 -3424.66 6503.66 -3426 6502 -3426V-3424ZM-1161 -3426C-1162.66 -3426 -1164 -3424.66 -1164 -3423H-1162C-1162 -3423.55 -1161.55 -3424 -1161 -3424V-3426Z" fill="white" fill-opacity="0.1"/>
<rect width="1920" height="3249" transform="translate(-920 -2185)" fill="white"/>
<g opacity="0.2">
<path d="M133.615 115.144C131.584 107.538 127.585 100.349 121.619 94.3818C103.528 76.2914 74.1981 76.2914 56.1081 94.3818L17.7862 132.703C-0.303751 150.793 -0.303751 180.123 17.7862 198.213C35.8767 216.304 65.2067 216.304 83.2967 198.213L90.3749 191.135" stroke="#043D7A" stroke-width="4" stroke-miterlimit="10" stroke-linecap="round" stroke-linejoin="round"/>
<path d="M115.144 133.613C114.01 138.251 111.624 142.65 108.001 146.274L69.6796 184.595C59.1104 195.164 41.9747 195.164 31.4054 184.595C20.8362 174.026 20.8362 156.89 31.4054 146.321L69.7265 108C73.3495 104.376 77.745 101.995 82.3831 100.856M114.241 167.271L121.619 159.893C128.763 152.748 133.086 143.851 134.587 134.585" stroke="#043D7A" stroke-width="4" stroke-miterlimit="10" stroke-linecap="round" stroke-linejoin="round"/>
<path d="M81.4127 81.4148C82.9141 72.1491 87.2371 63.2518 94.3811 56.1078L132.702 17.7867C150.793 -0.303262 180.123 -0.303262 198.213 17.7867C216.303 35.8772 216.303 65.2072 198.213 83.2972L159.892 121.618C141.801 139.709 112.471 139.709 94.3811 121.618C88.4141 115.651 84.4156 108.462 82.3847 100.856V100.856C91.2736 98.6733 101.057 101.059 107.999 108C114.944 114.945 124.724 117.326 133.613 115.144C138.252 114.005 142.649 111.624 146.273 108L184.594 69.6786C195.163 59.1094 195.163 41.9737 184.594 31.4044C174.025 20.8352 156.889 20.8352 146.32 31.4044L107.999 69.7259C104.375 73.3502 101.993 77.747 100.855 82.3863M57.3743 57.3742L51.4081 51.4081M50.3783 72.752L42.2285 70.5679M72.7516 50.3783L70.568 42.2285M158.624 158.624L164.59 164.591M165.62 143.247L173.77 145.431M143.247 165.621L145.431 173.77" stroke="#043D7A" stroke-width="4" stroke-miterlimit="10" stroke-linecap="round" stroke-linejoin="round"/>
</g>
</svg>
