<svg width="170" height="170" viewBox="0 0 170 170" fill="none" xmlns="http://www.w3.org/2000/svg">
<g clip-path="url(#clip0_85_990)">
<path d="M85 170C131.944 170 170 131.944 170 85C170 38.0558 131.944 0 85 0C38.0558 0 0 38.0558 0 85C0 131.944 38.0558 170 85 170Z" fill="#00BCEB"/>
<path d="M63.4844 108.143H67.834V90.9268H63.4844V108.143ZM44.3926 99.5264C44.3926 105.071 48.6758 108.441 53.5566 108.441C55.499 108.441 56.9766 107.993 57.5244 107.827V103.212C57.3252 103.312 55.9141 104.125 53.8721 104.125C50.9668 104.125 49.1074 102.083 49.1074 99.5264C49.1074 96.9033 51.0498 94.9277 53.8721 94.9277C55.9473 94.9277 57.3418 95.7578 57.5244 95.8574V91.2422C57.1094 91.126 55.5986 90.6279 53.5566 90.6279C48.2773 90.6279 44.3926 94.3965 44.3926 99.5264ZM89.7314 99.5264C89.7314 105.071 94.0146 108.441 98.8955 108.441C100.821 108.441 102.315 107.993 102.847 107.827V103.212C102.664 103.312 101.236 104.125 99.1943 104.125C96.3057 104.125 94.4297 102.083 94.4297 99.5264C94.4297 96.9033 96.3721 94.9277 99.1943 94.9277C101.27 94.9277 102.664 95.7578 102.847 95.8574V91.2422C102.432 91.126 100.921 90.6279 98.8955 90.6279C93.5996 90.6279 89.7314 94.3965 89.7314 99.5264ZM112.027 99.5264C112.027 97.0361 113.937 94.9941 116.526 94.9941C119.1 94.9941 121.025 97.0195 121.025 99.5264C121.025 102.033 119.1 104.059 116.526 104.059C113.937 104.075 112.027 102.033 112.027 99.5264ZM107.429 99.5264C107.429 104.457 111.23 108.441 116.51 108.441C121.806 108.441 125.607 104.457 125.607 99.5264C125.607 94.6123 121.806 90.6279 116.51 90.6279C111.23 90.6279 107.429 94.6123 107.429 99.5264ZM73.6611 96.0068C73.6611 98.8623 75.6865 100.273 78.0938 101.037C78.3594 101.12 78.7578 101.253 79.0234 101.336C80.1025 101.668 80.9492 102.183 80.9492 103.046C80.9492 104.025 79.9531 104.656 77.7949 104.656C75.9023 104.656 74.0762 104.108 73.6943 104.009V107.977C73.9102 108.026 76.0684 108.441 78.376 108.441C81.6963 108.441 85.498 106.997 85.498 102.664C85.498 100.572 84.2197 98.6299 81.3975 97.75L80.2022 97.3682C79.4883 97.1357 78.21 96.7705 78.21 95.7246C78.21 94.8945 79.1562 94.3135 80.8994 94.3135C82.3936 94.3135 84.2363 94.8115 84.2861 94.8447V91.1592C84.1533 91.126 82.1611 90.6113 80.0527 90.6113C76.0684 90.6279 73.6611 92.7861 73.6611 96.0068ZM35.4775 72.4326V76.9482C35.4775 78.1436 36.457 79.1064 37.6357 79.1064C38.8311 79.1064 39.7939 78.1436 39.7939 76.9482V72.4326C39.7939 71.2539 38.8311 70.2744 37.6357 70.2744C36.4404 70.291 35.4775 71.2539 35.4775 72.4326ZM82.8584 72.4326V76.9482C82.8584 78.1436 83.8213 79.1064 85.0166 79.1064C86.1953 79.1064 87.1582 78.1436 87.1582 76.9482V72.4326C87.1582 71.2539 86.1953 70.2744 85.0166 70.2744C83.8213 70.291 82.8584 71.2539 82.8584 72.4326ZM130.223 72.4326V76.9482C130.223 78.1436 131.186 79.1064 132.364 79.1064C133.543 79.1064 134.506 78.1436 134.506 76.9482V72.4326C134.506 71.2539 133.543 70.2744 132.364 70.2744C131.186 70.291 130.223 71.2539 130.223 72.4326ZM47.3145 66.5059V76.9482C47.3145 78.1436 48.2773 79.1064 49.4727 79.1064C50.668 79.1064 51.6309 78.1436 51.6309 76.9482V66.5059C51.6309 65.3271 50.668 64.3477 49.4727 64.3477C48.2773 64.3477 47.3145 65.3271 47.3145 66.5059ZM71.0049 66.5059V76.9482C71.0049 78.1436 71.9678 79.1064 73.1631 79.1064C74.3584 79.1064 75.3213 78.1436 75.3213 76.9482V66.5059C75.3213 65.3271 74.3584 64.3477 73.1631 64.3477C71.9844 64.3477 71.0049 65.3271 71.0049 66.5059ZM94.6953 66.5059V76.9482C94.6953 78.1436 95.6582 79.1064 96.8535 79.1064C98.0322 79.1064 99.0117 78.1436 99.0117 76.9482V66.5059C99.0117 65.3271 98.0488 64.3477 96.8535 64.3477C95.6582 64.3477 94.6953 65.3271 94.6953 66.5059ZM118.369 66.5059V76.9482C118.369 78.1436 119.332 79.1064 120.511 79.1064C121.723 79.1064 122.686 78.1436 122.686 76.9482V66.5059C122.686 65.3271 121.723 64.3477 120.511 64.3477C119.332 64.3477 118.369 65.3271 118.369 66.5059ZM59.168 58.3877V81.248C59.168 82.4434 60.1309 83.4062 61.3262 83.4062C62.5049 83.4062 63.4844 82.4434 63.4844 81.248V58.3877C63.4844 57.1924 62.5215 56.2295 61.3262 56.2295C60.1309 56.2461 59.168 57.209 59.168 58.3877ZM106.549 58.3877V81.248C106.549 82.4434 107.512 83.4062 108.69 83.4062C109.886 83.4062 110.832 82.4434 110.832 81.248V58.3877C110.832 57.1924 109.869 56.2295 108.69 56.2295C107.512 56.2461 106.549 57.209 106.549 58.3877Z" fill="white"/>
</g>
<defs>
<clipPath id="clip0_85_990">
<rect width="170" height="170" fill="white"/>
</clipPath>
</defs>
</svg>
