<svg width="26" height="26" viewBox="0 0 26 26" fill="none" xmlns="http://www.w3.org/2000/svg">
<g id="ph:arrow-up">
<path id="Vector" d="M19.319 17.8353C19.2122 17.8353 19.1065 17.8144 19.0078 17.7735C18.9092 17.7327 18.8195 17.6728 18.744 17.5973C18.6685 17.5218 18.6087 17.4322 18.5678 17.3335C18.527 17.2348 18.506 17.1291 18.5061 17.0223L18.5068 8.64217L7.25401 19.8949C7.10164 20.0473 6.89498 20.1329 6.67949 20.1329C6.464 20.1329 6.25734 20.0473 6.10496 19.8949C5.95259 19.7426 5.86699 19.5359 5.86699 19.3204C5.86699 19.1049 5.95259 18.8983 6.10496 18.7459L17.3577 7.49312L8.97759 7.49384C8.76198 7.49384 8.5552 7.40819 8.40274 7.25573C8.25028 7.10327 8.16463 6.8965 8.16463 6.68089C8.16463 6.46528 8.25028 6.2585 8.40274 6.10605C8.5552 5.95359 8.76198 5.86794 8.97759 5.86794L19.319 5.86794C19.4258 5.86788 19.5315 5.88887 19.6302 5.9297C19.7289 5.97053 19.8185 6.03041 19.894 6.10591C19.9695 6.18142 20.0294 6.27106 20.0702 6.36972C20.111 6.46838 20.132 6.57412 20.132 6.68089L20.132 17.0223C20.132 17.1291 20.111 17.2348 20.0702 17.3335C20.0294 17.4322 19.9695 17.5218 19.894 17.5973C19.8185 17.6728 19.7289 17.7327 19.6302 17.7735C19.5315 17.8144 19.4258 17.8353 19.319 17.8353Z" fill="#121212"/>
</g>
</svg>
